<?xml version="1.0" encoding="UTF-8" standalone="no"?>
<svg
   xmlns:dc="http://purl.org/dc/elements/1.1/"
   xmlns:cc="http://creativecommons.org/ns#"
   xmlns:rdf="http://www.w3.org/1999/02/22-rdf-syntax-ns#"
   xmlns:svg="http://www.w3.org/2000/svg"
   xmlns="http://www.w3.org/2000/svg"
   xmlns:sodipodi="http://sodipodi.sourceforge.net/DTD/sodipodi-0.dtd"
   xmlns:inkscape="http://www.inkscape.org/namespaces/inkscape"
   inkscape:version="1.0 (4035a4f, 2020-05-01)"
   sodipodi:docname="Amherst College logo.svg"
   viewBox="0 0 175.33319 24.918667"
   height="24.918667"
   width="175.33319"
   xml:space="preserve"
   id="svg10"
   version="1.1"><metadata
     id="metadata16"><rdf:RDF><cc:Work
         rdf:about=""><dc:format>image/svg+xml</dc:format><dc:type
           rdf:resource="http://purl.org/dc/dcmitype/StillImage" /><dc:title></dc:title></cc:Work></rdf:RDF></metadata><defs
     id="defs14"><clipPath
       id="clipPath32"
       clipPathUnits="userSpaceOnUse"><path
         id="path30"
         d="M 0,612 H 792 V 0 H 0 Z" /></clipPath><clipPath
       id="clipPath86"
       clipPathUnits="userSpaceOnUse"><path
         id="path84"
         d="M 0,0 H 792 V 612 H 0 Z" /></clipPath><clipPath
       id="clipPath98"
       clipPathUnits="userSpaceOnUse"><path
         id="path96"
         d="m 218.75,383.328 h 131.5 v 66.702 h -131.5 z" /></clipPath><clipPath
       id="clipPath252"
       clipPathUnits="userSpaceOnUse"><path
         id="path250"
         d="M 585.5,383.888 H 717.028 V 472.12 H 585.5 Z" /></clipPath><clipPath
       id="clipPath264"
       clipPathUnits="userSpaceOnUse"><path
         id="path262"
         d="M 36,362.325 H 141.515 V 467.84 H 36 Z" /></clipPath><clipPath
       id="clipPath276"
       clipPathUnits="userSpaceOnUse"><path
         id="path274"
         d="m 585.24,98.201 h 87.259 v 88.851 H 585.24 Z" /></clipPath><clipPath
       id="clipPath296"
       clipPathUnits="userSpaceOnUse"><path
         id="path294"
         d="M 585.5,246.464 H 665 V 331 h -79.5 z" /></clipPath><clipPath
       id="clipPath312"
       clipPathUnits="userSpaceOnUse"><path
         id="path310"
         d="m 402.8,249.324 h 74.068 v 73.879 H 402.8 Z" /></clipPath><clipPath
       id="clipPath324"
       clipPathUnits="userSpaceOnUse"><path
         id="path322"
         d="m 218.75,304.514 h 131.5 v 18.689 h -131.5 z" /></clipPath><clipPath
       clipPathUnits="userSpaceOnUse"
       id="clipPath324-2"><path
         d="m 218.75,304.514 h 131.5 v 18.689 h -131.5 z"
         id="path322-4" /></clipPath></defs><sodipodi:namedview
     inkscape:current-layer="g18"
     inkscape:window-maximized="0"
     inkscape:window-y="23"
     inkscape:window-x="0"
     inkscape:cy="289.61796"
     inkscape:cx="414.48039"
     inkscape:zoom="0.71078431"
     showgrid="false"
     id="namedview12"
     inkscape:window-height="789"
     inkscape:window-width="1196"
     inkscape:pageshadow="2"
     inkscape:pageopacity="0"
     guidetolerance="10"
     gridtolerance="10"
     objecttolerance="10"
     borderopacity="1"
     bordercolor="#666666"
     pagecolor="#ffffff" /><g
     transform="matrix(1.3333333,0,0,-1.3333333,-113.51961,697.61796)"
     inkscape:label="AmherstCollege_VisualIdentityToolkit_4_30_2018_reduced_size 2"
     inkscape:groupmode="layer"
     id="g18"><g
       transform="translate(-133.61039,200.01048)"
       id="g318"><g
         id="g320"
         clip-path="url(#clipPath324-2)"><g
           id="g326"
           transform="translate(270.4021,315.853)"><path
             d="M 0,0 V 3.042 H -0.5 L -3.157,2.079 V 1.675 l 1.386,-0.674 v -6.584 c 0,-0.886 -0.635,-0.982 -1.482,-1.097 v -0.674 h 5.12 V -6.68 C 0.481,-6.526 0,-6.469 0,-5.506 v 4.89 C 1.251,0.886 2.022,1.059 3.215,1.059 H 3.619 V 2.772 C 3.485,2.926 3.234,3.042 2.907,3.042 1.713,3.042 1.251,2.233 0,0"
             style="fill:#5b2a93;fill-opacity:1;fill-rule:nonzero;stroke:none"
             id="path328" /></g><g
           id="g330"
           transform="translate(222.6581,313.8124)"><path
             d="M 0,0 2.445,6.026 4.986,0 Z m 34.48,-3.542 v 5.467 c 0,2.253 -1.02,3.157 -2.695,3.157 -1.598,0 -2.734,-0.962 -3.677,-1.886 V 9.337 H 27.626 L 24.931,8.375 V 7.97 L 26.336,7.296 V -3.542 c 0,-0.987 -0.848,-0.964 -1.094,-0.964 -0.604,0 -1.062,0.234 -1.062,0.964 v 5.467 c 0,2.195 -0.885,3.157 -2.56,3.157 -1.54,0 -2.734,-1.02 -3.677,-1.944 -0.289,1.348 -1.117,1.944 -2.445,1.944 -1.54,0 -2.638,-0.962 -3.581,-1.886 V 5.082 H 11.436 L 8.76,4.12 V 3.716 l 1.386,-0.674 v -6.584 c 0,-0.507 -0.26,-0.963 -0.721,-0.963 -0.385,0 -0.662,0.411 -0.762,0.655 L 3.369,8.375 H 1.232 L 1.829,7.104 -2.734,-3.85 c -0.211,-0.52 -0.654,-0.636 -1.174,-0.713 v -0.751 h 4.312 v 0.751 c -1.328,0.039 -1.809,0.251 -1.809,0.847 0,0.212 0.096,0.482 0.211,0.77 l 0.848,2.099 h 5.679 l 0.905,-2.118 c 0.115,-0.289 0.211,-0.539 0.211,-0.77 0,-0.597 -0.462,-0.789 -1.79,-0.828 v -0.751 h 4.004 1.155 3.581 v 0.674 c -0.866,0.116 -1.482,0.212 -1.482,1.098 v 6.18 c 0.731,0.577 1.713,1.02 2.714,1.02 1.194,0 1.656,-0.481 1.656,-1.868 v -5.332 c 0,-0.886 -0.635,-0.982 -1.502,-1.098 v -0.674 h 4.756 v 0.674 c -0.847,0.116 -1.483,0.212 -1.483,1.098 v 6.18 c 0.732,0.577 1.694,1.02 2.695,1.02 1.194,0 1.656,-0.481 1.656,-1.868 v -5.332 c 0,-0.886 -0.635,-0.982 -1.502,-1.098 v -0.674 h 3.928 0.828 3.927 v 0.674 c -0.847,0.116 -1.482,0.212 -1.482,1.098 v 6.18 c 0.75,0.577 1.809,1.02 2.81,1.02 1.233,0 1.791,-0.481 1.791,-1.868 v -5.332 c 0,-0.886 -0.635,-0.982 -1.483,-1.098 v -0.674 h 4.756 v 0.674 c -0.867,0.116 -1.502,0.212 -1.502,1.098"
             style="fill:#5b2a93;fill-opacity:1;fill-rule:nonzero;stroke:none"
             id="path332" /></g><g
           id="g334"
           transform="translate(278.5547,314.4091)"><path
             d="m 0,0 c -1.482,0.462 -2.272,1.02 -2.272,2.079 0,0.867 0.636,1.521 1.675,1.521 1.367,0 2.233,-0.77 2.503,-2.31 H 2.638 V 3.677 C 1.79,4.158 0.751,4.486 -0.539,4.486 -2.56,4.486 -3.85,3.273 -3.85,1.579 c 0,-1.752 1.135,-2.484 2.849,-3.023 1.733,-0.539 2.618,-0.962 2.618,-2.214 0,-1.001 -0.731,-1.578 -1.964,-1.578 -1.578,0 -2.522,1.001 -2.907,2.637 H -3.966 L -3.85,-5.16 c 0.943,-0.712 2.233,-0.943 3.484,-0.943 2.214,0 3.581,1.29 3.581,2.984 C 3.215,-1.174 1.925,-0.597 0,0"
             style="fill:#5b2a93;fill-opacity:1;fill-rule:nonzero;stroke:none"
             id="path336" /></g><g
           id="g338"
           transform="translate(262.7787,317.9514)"><path
             d="M 0,0 C 1.579,0 2.387,-1.174 2.387,-3.023 H -2.657 C -2.503,-1.425 -1.521,0 0,0 m 0.789,-8.182 c -2.175,0 -3.523,1.713 -3.523,4.235 h 6.892 v 0.597 c 0,2.522 -1.328,4.293 -3.869,4.293 -2.657,0 -4.621,-2.252 -4.621,-5.621 0,-2.753 1.656,-4.967 4.467,-4.967 2.156,0 3.581,1.232 4.043,2.945 L 3.85,-6.526 C 3.138,-7.47 2.233,-8.182 0.789,-8.182"
             style="fill:#5b2a93;fill-opacity:1;fill-rule:nonzero;stroke:none"
             id="path340" /></g><g
           id="g342"
           transform="translate(327.7641,317.9514)"><path
             d="M 0,0 C 1.579,0 2.387,-1.174 2.387,-3.023 H -2.657 C -2.503,-1.425 -1.521,0 0,0 m 0.789,-8.182 c -2.175,0 -3.523,1.713 -3.523,4.235 h 6.892 v 0.597 c 0,2.522 -1.328,4.293 -3.869,4.293 -2.657,0 -4.621,-2.252 -4.621,-5.621 0,-2.753 1.656,-4.967 4.467,-4.967 2.156,0 3.581,1.232 4.043,2.945 L 3.85,-6.526 C 3.138,-7.47 2.233,-8.182 0.789,-8.182"
             style="fill:#5b2a93;fill-opacity:1;fill-rule:nonzero;stroke:none"
             id="path344" /></g><g
           id="g346"
           transform="translate(286.621,309.5191)"><path
             d="m 0,0 c -1.059,0 -1.521,0.366 -1.521,1.425 v 6.738 h 2.946 v 1.02 h -2.946 v 2.195 h -0.5 C -2.869,10.146 -3.716,9.356 -4.697,8.74 V 8.163 h 1.424 V 1.059 c 0,-1.637 0.963,-2.272 2.291,-2.272 1.271,0 2.272,0.501 2.926,1.213 L 1.752,0.424 C 1.251,0.173 0.578,0 0,0"
             style="fill:#5b2a93;fill-opacity:1;fill-rule:nonzero;stroke:none"
             id="path348" /></g><g
           id="g350"
           transform="translate(322.0504,310.2764)"><path
             d="m 0,0 v 12.927 h -0.483 l -2.705,-0.966 v -0.406 l 1.41,-0.676 V 0 c 0,-1.075 -1.083,-1.026 -1.407,-1.026 -0.492,0 -1.362,0.042 -1.362,1.026 V 12.927 H -5.03 l -2.705,-0.966 v -0.406 l 1.41,-0.676 V 0 c 0,-0.889 -0.638,-0.985 -1.507,-1.101 v -0.677 h 4.547 0.226 4.547 v 0.677 C 0.638,-0.985 0,-0.889 0,0"
             style="fill:#5b2a93;fill-opacity:1;fill-rule:nonzero;stroke:none"
             id="path352" /></g><g
           id="g354"
           transform="translate(346.0723,317.9514)"><path
             d="M 0,0 C 1.579,0 2.387,-1.174 2.387,-3.023 H -2.657 C -2.503,-1.425 -1.521,0 0,0 M 3.85,-6.526 C 3.138,-7.47 2.233,-8.182 0.789,-8.182 c -2.175,0 -3.523,1.713 -3.523,4.235 h 6.892 v 0.597 c 0,2.522 -1.328,4.293 -3.869,4.293 -2.657,0 -4.621,-2.252 -4.621,-5.621 0,-2.753 1.656,-4.967 4.467,-4.967 2.156,0 3.581,1.232 4.043,2.945 z"
             style="fill:#5b2a93;fill-opacity:1;fill-rule:nonzero;stroke:none"
             id="path356" /></g><g
           id="g358"
           transform="translate(336.7739,305.4378)"><path
             d="m 0,0 c -1.771,0 -3.061,0.578 -3.061,2.06 0,0.423 0.135,0.847 0.501,1.232 h 4.697 c 1.02,0 1.617,-0.193 1.617,-1.136 C 3.754,0.751 2.214,0 0,0 m -0.154,12.649 c 1.444,0 2.291,-1.233 2.291,-2.734 0,-1.444 -0.655,-2.465 -1.964,-2.465 -1.463,0 -2.272,1.252 -2.272,2.734 0,1.444 0.636,2.465 1.945,2.465 M 2.484,4.948 h -4.351 c -0.463,0 -0.713,0.173 -0.713,0.616 0,0.443 0.193,0.789 0.809,1.424 0.539,-0.192 1.136,-0.288 1.752,-0.288 2.329,0 3.869,1.328 3.869,3.369 0,1.02 -0.577,1.848 -1.328,2.329 v 0.096 l 1.983,-0.442 h 0.712 v 1.309 l -3.484,-0.25 c -0.462,0.192 -1.04,0.346 -1.714,0.346 -2.233,0 -3.889,-1.328 -3.889,-3.485 0,-1.328 0.674,-2.271 1.695,-2.791 C -3.177,6.565 -3.947,5.814 -3.947,4.871 -3.947,4.178 -3.6,3.735 -2.849,3.465 -3.754,3.042 -4.64,2.56 -4.64,1.463 c 0,-1.598 1.579,-2.387 4.274,-2.387 3.273,0 5.622,1.463 5.622,3.619 0,1.656 -1.04,2.253 -2.772,2.253"
             style="fill:#5b2a93;fill-opacity:1;fill-rule:nonzero;stroke:none"
             id="path360" /></g><g
           id="g362"
           transform="translate(309.7993,309.3073)"><path
             d="m 0,0 c -1.944,0 -3.061,2.041 -3.061,4.447 0,2.484 0.905,4.139 2.714,4.139 1.945,0 3.062,-2.04 3.062,-4.447 C 2.715,1.656 1.81,0 0,0 m -0.116,9.587 c -2.618,0 -4.793,-2.175 -4.793,-5.486 0,-2.965 1.829,-5.102 4.678,-5.102 2.618,0 4.794,2.175 4.794,5.487 0,2.964 -1.829,5.101 -4.679,5.101"
             style="fill:#5b2a93;fill-opacity:1;fill-rule:nonzero;stroke:none"
             id="path364" /></g><g
           id="g366"
           transform="translate(303.2547,312.3903)"><path
             d="m 0,0 c -0.75,-2.051 -1.853,-3.102 -3.705,-3.102 -3.119,0 -4.698,2.714 -4.698,6.218 0,3.138 1.367,5.718 4.467,5.718 1.695,0 2.949,-0.864 3.509,-2.897 0.046,-0.165 0.195,-0.28 0.366,-0.28 h 0.019 c 0.21,0 0.379,0.17 0.379,0.38 v 2.376 c 0,0.124 -0.06,0.238 -0.16,0.31 -0.875,0.632 -2.096,1.093 -3.998,1.093 -3.716,0 -6.642,-2.734 -6.642,-7.239 0,-3.87 2.522,-6.661 6.334,-6.661 1.943,0 3.118,0.384 4.306,0.969 0.113,0.055 0.19,0.164 0.207,0.288 L 0.799,0.248 H 0.355 C 0.197,0.248 0.054,0.149 0,0"
             style="fill:#5b2a93;fill-opacity:1;fill-rule:nonzero;stroke:none"
             id="path368" /></g></g></g></g></svg>
