<?xml version="1.0" encoding="utf-8"?>
<!-- Generator: Adobe Illustrator 26.3.1, SVG Export Plug-In . SVG Version: 6.00 Build 0)  -->
<svg version="1.1" id="Layer_1" xmlns="http://www.w3.org/2000/svg" xmlns:xlink="http://www.w3.org/1999/xlink" x="0px" y="0px"
	 viewBox="0 0 360 177.8" style="enable-background:new 0 0 360 177.8;" xml:space="preserve">
<style type="text/css">
	.st0{fill:#ED1B2E;}
	.st1{fill:#231F20;}
	.st2{fill:#FFFFFF;}
</style>
<g transform="matrix(1.2599 0 0 1.2599 -8.70683 -11.7612)">
	<path d="M198.4,80c0,8.9-6.3,15-14.4,15s-14-6.2-14-14.3c0-7.3,5.1-14.9,14.7-14.9C192.2,65.8,198.4,71.6,198.4,80z M149.9,94.5
		h-11.5v-1c3.6-0.3,3.9-0.6,3.9-5.3V72.7c0-4.7-0.4-5-3.8-5.2v-1h11.1c2.8,0,5.2,0.4,6.8,1.5c1.8,1.1,2.9,3,2.9,5.5
		c0,3.5-2.2,6.1-5.7,7.6c0.8,1.3,2.6,4.2,3.8,6.2c1.6,2.3,2.5,3.4,3.6,4.7c0.9,1.1,1.7,1.8,3.2,2.2l-0.1,0.8h-0.6
		c-4.9-0.1-6.5-1.7-8.1-4c-1.4-2-3.1-5.1-4.3-7.2c-0.7-1.1-1.4-1.6-2.8-1.6h-2.4v6.1c0,4.7,0.4,5,3.8,5.3V94.5z M217.4,94.8h-1.2
		l-7.5-23.1c-1.2-3.5-1.8-3.8-4.2-4.1v-1h10.5v0.8l-1.4,0.2c-2,0.3-2.2,0.7-1.6,2.6l5.8,18.4h0.1l6.9-21.6h1.1l7.8,21.6h0.1
		c1.8-5.4,4.2-14.5,5-17.6c0.6-2.5,0.4-3-1.6-3.2l-1.3-0.2v-1h9.1v1c-2.8,0.4-3.1,0.5-4.5,4.4c-0.4,1.1-3.5,11-7.2,22.8h-1.2
		l-7.8-21l-0.1,0.1L217.4,94.8z M261.3,94.4H251v-1c2.4-0.1,3.5-0.7,3.7-2.3c0.2-1.4,0.4-3.6,0.4-8.2v-9.3c0-3.1,0-3.8-0.8-4.8
		c-0.8-1.1-2-1.4-3.8-1.5v-1h6.3l18.2,21.7h0.1V77.9c0-4.5-0.2-6.9-0.4-8.2c-0.2-1.5-1.4-2.1-4.2-2.3v-1h10.3v1
		c-2.4,0.1-3.5,0.7-3.7,2.3c-0.2,1.4-0.4,3.6-0.4,8.2v16.8h-1.1L256.8,72h-0.1v11c0,4.5,0.2,6.9,0.4,8.2c0.2,1.5,1.4,2.1,4.2,2.3
		L261.3,94.4z M118.9,94.5h-9.9v-1c3.6-0.3,3.9-0.6,3.9-5.3V72.7c0-4.7-0.3-5-3.7-5.2v-1h11.6v-0.1c3.1,0,4.9,0.5,6.3,1.5
		c1.5,1.1,2.3,2.6,2.3,4.7c0,3.8-3.5,5.6-5.6,6.2v0.1c3.9,0.6,7.5,2.9,7.5,7.3c0,3-1.5,5.2-4,6.7C125,94,122.2,94.5,118.9,94.5
		L118.9,94.5z M183.5,67.2c-5.1,0-9.4,4.2-9.4,12.3c0,8.4,4.3,14.2,10.6,14.2c5.2,0,9.4-4,9.4-12C194.3,72.3,189.7,67.2,183.5,67.2z
		 M119.1,79.8h-2.6v9.4c0,2.9,0.6,3.8,3.7,3.8c3.6,0,6.7-1.8,6.7-6.4C126.9,82,123.5,79.8,119.1,79.8L119.1,79.8z M148.7,67.6
		c-1.4,0-1.9,0.1-2.3,0.2c-0.3,0.1-0.4,0.3-0.4,1.2v11.8h2.6c1.8,0,3.1-0.2,4.3-1.2c1.9-1.5,2.5-3.5,2.5-5.7c0-4.5-3.2-6.3-6.5-6.3
		L148.7,67.6z M116.5,78.6h2.8c4.1,0,6.2-2,6.2-5.5c0-2.6-1.1-5.5-6.2-5.5c-1.4,0-2.1,0.1-2.4,0.3c-0.3,0.1-0.4,0.3-0.4,1.1V78.6z"
		/>
	<path class="st0" d="M51,141.5l4.8,1.2l4.7-1.2v-37.1h30.4v-8.6H60.5V68.1H51v27.7H20.6v8.6H51V141.5z"/>
	<path class="st0" d="M60.8,53.6c5.3,0.4,5.3,3.7,6.6,5.3c0.5,0.6-4.2,2-9.1,0.6c-1.6-0.7-2.8-4.4-3.3-4.9
		C54.7,54.4,57.7,53.3,60.8,53.6L60.8,53.6z M82,59.3c4.9,1.4,8.1,0.1,8.6-0.9c0.5-1.1-0.7-4.6-6-5c-3-0.3-6.1,0.8-5.9,1
		C79.1,54.9,80.3,58.6,82,59.3L82,59.3z M37,53.3c5.2,0.5,5.3,3.7,6.6,5.3c0.5,0.6-4.2,2-9.1,0.6c-1.6-0.7-2.9-4.4-3.3-4.9
		C30.9,54.2,34,53,37,53.3z"/>
	<g>
		<path class="st1" d="M94,44c-0.4-0.3-5-0.9-5.7-0.9c-0.7,0-4.6,0-6.2,0.3c-2.4,0.4-6.5,0.4-9.5,0c-1.1-0.1-2.4,0.1-3.3,0.5
			c0.2-0.2,0.4-0.4,0.7-0.6c0.9-1,2-2.8,3.7-3.6c0.5-0.2,0.9-0.5,1.3-0.7c1.5,0.8,3.9,1.3,6.9-0.1c4.4,2.3,7.1,0.7,8.1-0.1
			c1.2-1,1.8-2.4,1.8-3.8c0-0.5-0.1-1-0.2-1.5c-0.7-2-2.4-3.1-4.8-3.4c-0.1-0.5-0.4-1-0.6-1.5c0.3-0.4,0.6-0.7,0.7-0.9
			c0.2-0.3,1-1.5-1-0.5c-0.1,0.1-0.3,0.2-0.5,0.3c-0.3-0.3-0.6-0.5-0.9-0.7c-1.9-1.1-4.3-1.3-6.8-0.6c-0.4-1.4-1-2.5-2.1-3.1
			c-1.1-0.7-2.6-0.9-4.2-0.6c0.1-0.2,0.2-0.5,0.3-0.6c0.7-1.6,0.3-2-0.4-1.3c-0.9,0.8-1.4,1.4-1.9,1.8c-1.6-2.6-3.6-4.2-6.1-4.8
			c-2.2-0.6-4.4-0.3-6.5,0.7c-0.1-1.1-0.3-1.9-0.4-2.4c-0.4-1.3-0.9-0.3-0.9,0.1c-0.1,0.5-0.2,1.3-0.3,2.1c-2.1-1.1-4.3-1.4-6.5-0.8
			c-2.4,0.7-4.1,2.5-5.2,4.9c-0.9-0.3-1.7-0.5-2.4-0.6c-0.4-0.6-1.1-1.3-2-2.1c-0.6-0.5-1.1-0.3-0.8,0.8c0.1,0.4,0.3,0.8,0.4,1.1
			c-1.7,0.1-2.9,0.7-3.7,1.3c-1.7,1.3-2.3,3-2.5,4.2c-0.1,0-0.2,0.1-0.2,0.1c-1.4,0.3-3.2,0.8-4.3,2.7c-0.2-0.1-0.4-0.2-0.4-0.3
			c-3.4-2.3-1.9,0.7-0.5,2c-4.6,0.7-5.9,2.8-6.2,4.1c-0.1,0.3-0.1,0.7-0.1,1c0,1.5,0.8,2.9,2.1,3.8c1.6,1.1,3.3,1,5-0.1
			c2.2,0.7,5.2,0.6,7.4-1c1.3,1.4,2.3,2.4,2.9,2.8c1.4,1.4,3.4,2.4,4.4,2.8c-1-0.4-2.8-0.8-4.4-0.6c-3.6,0.5-6.1-0.2-7.7-0.3
			c-2.6-0.3-5.2,0.2-6.6,0.2s-3.3,0.7-4.3,0.8c-1.1,0.2-1,0.9,0.5,1.3c1.5,0.4,4.1,0.6,4.8,1c2.4,1,6.3,1.9,9,1.7
			c2-0.2,3.9,0.8,4.4,1c1,0.3,3.3,1,4.3,1c0-0.1,0,1.4,0.1,2.1c-0.4,0.1-0.7,0.3-1.1,0.4c-1.1-0.7-5.9-2.7-11.8-0.2
			c-1.3-0.4-3.8-1.9-7.5-0.7c-4.4,1.5-3.7,5.5-2.3,7.4c2,2.6,5.6,2,6.7,0.8c2.4,1.6,4.8,1.1,6.6,0c1.2,0.7,6.9,1.8,11.2,0
			c0.6,0.4,2.9,1.7,6,0.1c1.8,1.1,4.7,1.1,6.2-0.2c0.5,0.5,2.2,1.1,5.6,1.1c4.1,0,5.1-0.7,5.7-1.2c0.9,0.4,3.2,1.7,6.1,0.4
			c1.6,1,4.7,0.9,6.4-0.2c3,1.4,8.6,0.8,10-0.2c2.6-1.8,1.3-5.3-1.5-7c-5.4-2.8-10.5-0.6-11.8,0.1c-1.6-1.1-4.9-1.8-8.5-1.1
			c0.1-0.4,0-0.9,0-1.4v-0.2c0.7-0.2,1.7-1,3.6-1.1c2.8-0.2,9.1-0.1,12.3-1.8c1.9-1,8.2-2.2,9-2.7C94.7,44.6,94.5,44.3,94,44L94,44z
			 M70.7,40.2c-2.3,2.8-3.4,3.6-3.8,3.6c-0.5-0.9-1.4-2-2.1-2.6c0.8-0.9,4.4-2.6,6.1-3.8c0.3-0.2,1-0.6,1.3-0.8c0.4,0.5,1,1,1.6,1.4
			C72.3,38.9,71.5,39.4,70.7,40.2z M37.5,34.3c2,0.3,4.2-0.2,5.8-1.7c2.1,3.2,2.1,6.1,4,8.2c-2.5-2.4-4.6-2.4-8.2-4.2
			c-0.6-0.3-1.5-0.9-1.8-1.1c0-0.3,0.1-0.6,0.1-1C37.5,34.5,37.5,34.4,37.5,34.3z M52.4,38c0.1,0.1-1-1.5-1.1-1.7
			c-0.4-0.6-0.9-1.1-1.4-1.8c-0.9-1-1.6-1.9-2.2-2.5c1.4-0.3,3-1.2,4.7-2.8c0.2,0.1,0.4,0.2,0.6,0.4c-0.1,0.6-0.2,1.1-0.3,1.4
			c-0.4,2.2-0.4,3.8-0.5,4.5C52.3,36.3,52.4,37.4,52.4,38z M49.4,36c0.9,1.1,1.6,2.5,1.8,2.8c-0.7,0.3-2,0.9-2.8,1.4
			c-1.4-1.4-2.5-5.7-3.1-6.8c-0.3-0.4-0.5-0.7-0.6-1c0.5,0.2,1.2,0.1,1.7,0.2C46.5,32.7,47.7,33.7,49.4,36z M55.7,39.1
			c6.7,0,12,5.3,12,12c0,0.5,0,1.1-0.1,1.8c-0.7,0.2-1.5,0.5-2.2,0.8c-3.4-2.1-8.2-1.9-11.5,0c-2.1-1.6-6.6-1.8-10-1
			c-0.1-0.7-0.2-1.3-0.2-1.6C43.8,44.5,49.1,39.1,55.7,39.1L55.7,39.1z M54,34.5c0.1-2.3,0.6-3.7,0.6-4c0.5,0.2,1.1,0.4,1.6,0.6
			c0.4,0.9,1.2,4.6,0.9,6.9c-1-0.1-2.2-0.1-2.9,0C53.9,37.6,53.9,35.7,54,34.5z M64.6,34.8c-0.7,1.5-0.3,3.3-2.1,5
			c-0.2-0.2-2-1-2.7-1.3c0.3-2.4,2.5-5.2,3.8-6.4c0.4,0.5,1.1,1,1.6,1.3C65.2,33.6,64.9,34.1,64.6,34.8z M66.5,34.3
			c0.1-0.1,0.1-0.2,0.2-0.4c1.3,0.4,2.8,0.5,4.1,0.4c0.1,0.5,0.4,1,0.6,1.5c-0.7,0.3-2.8,1.8-5.8,3.4c-0.8,0.4-1.3,0.9-1.6,1.2
			c0.3-0.5,0.8-1.1,1-1.7C65.5,37.3,65.4,36.2,66.5,34.3z M59.1,36.1c-0.3,0.8-0.5,1.3-0.6,1.8c0.3-1.8-0.2-4.4-0.8-6.7
			c1.6,0,3.1-0.4,4.7-1.3c0.1,0.4,0.3,0.7,0.5,1C62.1,31.7,59.9,33.9,59.1,36.1L59.1,36.1z M34.5,38c-1.8,1.5-4.7,1.6-6.6,0.9
			c-0.2-0.1-0.5-0.1-0.7,0.1c-1.2,0.9-2.6,1-3.6,0.2c-1.1-0.8-1.7-2.1-1.4-3.3c0.4-1.7,2.5-2.9,5.6-3.1c0.3,0,0.6-0.3,0.7-0.6
			c0.6-2.8,2.5-3.2,4.2-3.6l0.8-0.2c0.4-0.1,0.6-0.4,0.5-0.8c-0.1-0.5,0.4-2.4,1.9-3.5c1.8-1.4,4.4-1.4,7.7-0.1
			c0.2,0.1,0.4,0.1,0.6,0c0.2-0.1,0.3-0.2,0.4-0.4c0.8-2.4,2.5-4,4.5-4.6c2.2-0.7,4.5-0.2,6.6,1.3c0.3,0.2,0.6,0.2,0.9,0
			c2-1.3,4.3-1.7,6.4-1.1c2.4,0.6,4.3,2.4,5.8,5.1c0.2,0.3,0.6,0.5,0.9,0.4c2.3-0.8,4-0.8,5.2-0.1c1.2,0.7,1.5,1.9,1.7,2.9
			c0,0.2,0.2,0.4,0.3,0.5c0.2,0.1,0.4,0.1,0.6,0.1c2.4-0.8,4.7-0.7,6.3,0.3c1.1,0.7,1.7,1.6,1.9,2.8c0.1,0.3,0.3,0.6,0.7,0.6
			c2.1,0.1,3.5,1.1,4,2.5c0.4,1.3,0,2.8-1.1,3.7c-1.6,1.3-4,1.2-6.7-0.2c-0.2-0.1-0.5-0.1-0.7,0c-2.2,1.1-4.1,1.2-6,0.2
			c-2.2-1.1-3.4-3.3-3.5-4.4c0-0.2-0.1-0.4-0.3-0.5c-0.2-0.1-0.4-0.2-0.6-0.1c-1.5,0.2-6.5,0.7-7.6-4.1c-0.1-0.2-0.2-0.4-0.4-0.5
			c-0.2-0.1-0.5,0.1-0.7,0.2c-3.2,2.2-6.5,2-9.5-0.5c-0.3-0.2-0.7-0.3-1,0c-3.5,3.5-6.4,3.3-7.8,2.8c-0.3-0.1-0.7,0-0.9,0.3
			c-1.4,2.2-4.3,2.6-6.3,2c-0.2-0.1-0.5-0.1-0.7,0.1c-0.2,0.2-0.3,0.4-0.3,0.7C36.3,35.3,35.8,36.9,34.5,38L34.5,38z M36.2,38.6
			c0.3-0.4,0.7-1.2,0.9-1.8c0.2,0.1,0.3,0.2,0.4,0.3c0.1,0,1.2,0.8,1.9,1.2c3,1.5,4.9,1.8,7,3.4c-0.8,0.8-1.6,1.8-2,2.7
			C40,43.1,36.7,39.2,36.2,38.6z M38.5,48.3c-0.4-0.2-2.9-1.1-4.4-1c-3,0.2-6.9-0.7-8.7-1.5c-0.5-0.2-4.6-0.6-0.6-0.6
			c1.4,0,2.9-0.4,5.7,0c1.6,0.2,4.3,0.5,8.5,0.2c2.1-0.2,3.5,0.5,4.3,1.3c-0.2,0.6-0.5,2.1-0.5,2.6C41.5,49.3,39.6,48.7,38.5,48.3
			L38.5,48.3z M28.3,59.3c-1.9-1.3-3-3.7-4.3-3.3c-0.5,0.2-0.6,1.2,0.1,1.2c0.5,0,1.4,1.4,2,2c-0.1,0.7-2,1.5-3.9,0.3
			c-0.9-0.5-2.3-2.3-1.1-4.4c0.7-1.2,2.5-1.8,4.7-1.7c4.2,0.1,5.5,4.9,6.5,5.9C32.2,59.6,29.8,60.5,28.3,59.3z M34.4,59.2
			c-1.6-0.7-2.9-4.4-3.3-4.9c-0.2-0.2,2.8-1.3,5.9-1c5.3,0.5,5.3,3.7,6.6,5.3C44.1,59.3,39.3,60.6,34.4,59.2L34.4,59.2z M51.6,59.6
			c-0.5-0.3-2-2.2-2.6-2.8c-0.5-0.7-1.5-1.3-2-0.7c-0.3,0.4,0,0.8,0.5,1c0.5,0.3,1.8,1.9,1.9,2.3c-0.1,0.5-2.5,1.4-3.8-0.3
			c-0.7-0.9-2.1-3.4-2.9-4.5c3-1.1,6.6-1.5,9.1-0.3c2.5,1.2,2.9,3.7,3.8,5C55.9,60.1,53.1,60.6,51.6,59.6L51.6,59.6z M58.2,59.5
			c-1.6-0.7-2.8-4.4-3.3-4.9c-0.2-0.2,2.8-1.3,5.9-1c5.3,0.5,5.3,3.7,6.6,5.3C67.9,59.5,63.1,60.9,58.2,59.5L58.2,59.5z M84.6,53.4
			c5.3,0.5,6.5,3.9,6,5c-0.5,1-3.6,2.3-8.6,0.9c-1.6-0.7-2.8-4.4-3.3-4.9C78.4,54.2,81.4,53.1,84.6,53.4L84.6,53.4z M75.6,54.2
			c2.5,1.2,2.9,3.7,3.8,5c0.2,0.9-2.8,1.1-4,0.4c-0.5-0.3-2-2.2-2.6-2.8c-0.5-0.7-1.4-1.1-1.8-0.5c-0.3,0.4,0.1,0.8,0.5,1
			c0.6,0.3,1.6,1.8,1.7,2.1c-0.1,0.5-2.2,1.2-3.7-0.4c-0.8-0.8-2.2-3.5-2.8-4.6C69.8,53.3,73.1,53,75.6,54.2z M89.8,45
			c-1.6,0.3-3.4,0.8-5.7,1.6c-3,1.2-8.9,1.5-11.4,1.5c-2.4,0-3,1-3.9,0.9c0-1.3-0.8-3-0.8-3c0.7-0.4,2.8-1.1,4.8-1
			c2.6,0.1,7.2,0.3,9.6-0.1c1.2-0.2,5.5-0.2,6.1-0.2c0.5,0,1.3,0.1,1.5,0.1C91.1,44.8,90.3,44.9,89.8,45z"/>
		<path class="st1" d="M28.1,34.8c-1.3,0-2.4,0-3.2,1c-1,1.1-0.7,1.6-0.9,1.8c-0.3,0.3-0.9-0.2-0.9-0.7c0.1-2.5,3-3.4,4.8-3.2
			C28.5,33.7,28.6,34.8,28.1,34.8"/>
		<path class="st1" d="M33.4,30.7c-1.9,0.2-2.5,1.1-2.8,2.2c-0.1,0.4-1.2,0.1-1-0.7c0.5-2.4,3-2.9,3.9-2.7
			C33.8,29.6,33.7,30.7,33.4,30.7"/>
		<path class="st1" d="M41.5,25.7c-3.3-1.3-5,1.2-5.5,3.2c-0.1,0.3-1.2,0.2-1-0.7c0.4-2.1,2.4-5,7-3.8
			C42.4,24.5,42.1,25.9,41.5,25.7"/>
		<path class="st1" d="M53.9,22.3c-3-2.1-5.5-0.4-6.8,1.1c-0.6,0.7-1.3-0.5-1-0.9c1.1-1.8,4.9-4.4,8.3-1.5
			C54.8,21.5,54.4,22.6,53.9,22.3"/>
		<path class="st1" d="M66.6,25.2c-0.3,0.2-0.4-0.2-0.6-0.5c-2.8-4.3-7.7-3.1-9-1.2c-0.3,0.4-1-0.7-0.6-1.3c1.2-2,7.5-3.7,10.7,1.8
			C67.4,24.6,66.9,25,66.6,25.2"/>
		<path class="st1" d="M74.2,27.9c-0.8-2.1-2.3-2-3.9-1.4c-0.8,0.3-0.6-1.1-0.3-1.2c1.7-0.6,4.5-0.9,5.3,2
			C75.4,28.1,74.4,28.5,74.2,27.9"/>
		<path class="st1" d="M83.3,32.3c-1.4-2.6-3.6-2.6-5.5-1.9c-0.4,0.2-0.8-0.9-0.1-1.3c1.8-1,5.5-0.9,6.6,2.5
			C84.5,32.2,83.7,33.1,83.3,32.3"/>
		<path class="st1" d="M89,36.3c-0.1,0.4-1.2,0.5-1.1,0c0.2-2.1-0.9-2.3-2.3-2.3c-0.5,0-0.5-1.1-0.1-1.2
			C87.4,32.5,89.6,33.8,89,36.3"/>
		<path class="st1" d="M53.1,47c0,0.8-0.7,1.4-1.5,1.3c-0.8,0-1.4-0.7-1.3-1.5v-0.2c-0.1-0.2-0.8-0.4-1.7,0.2
			c-0.5,0.3-1,0.1-0.2-0.6c0.9-0.8,1.7-1.2,2.4-1.3c1.2-0.1,2.8,0.2,3.5,0.5c0.3,0.1,0,1.7-0.1,1.6c-0.3-0.1-0.8-0.3-1.3-0.2
			L53.1,47z"/>
		<path class="st1" d="M57,51.2c-0.2,0.7-2.8,1-3.2,0c-0.2-0.4-0.4-1.3-0.1-1.1c0.6,0.3,2.6,0.1,2.9,0c0.3-0.1,0.1-0.6,0.3-0.5
			C57.3,49.7,57.3,50.5,57,51.2"/>
		<path class="st1" d="M63,47.3c-0.6-0.5-1.5-0.8-1.8-0.5v0.1c0.1,0.8-0.5,1.5-1.3,1.5c-0.8,0.1-1.5-0.5-1.5-1.3V47
			c-0.5-0.2-1.3,0.1-1.4,0.1c-0.1,0-0.4-1.5,0-1.7c1.2-0.5,5.1-0.7,6.2,1.5C63.4,47.2,63.3,47.5,63,47.3"/>
		<path class="st1" d="M62.1,68.1h28.8v26.1H62.1V68.1z M20.6,68.1h28.8v26.1H20.6V68.1z M49.5,141c-7.4-2.2-14.6-5.1-19.3-9.4
			c-1.7-1.6-3-3.1-4.2-5h7.4v1.1h3.4v-1.1h8.3v-14h-1.8V110c-1.8,0.4-4.7-0.6-6-0.6c-1.5,0-2.2,0.6-2.2,0.6s-0.8-0.6-2.2-0.6
			c-1.3,0-4.2,1-6,0.6v2.6h-1.8V125c-2.8-4.9-4.1-10.8-4.4-18l-0.1-1.1h28.8V141z M28.3,123.8v-12c1,0.2,2.8-0.5,4.6-0.6
			c1,0,1.3,0.5,1.3,0.5v12.1c0,0-1.1-0.7-3.3-0.1C29,124.3,28.3,123.8,28.3,123.8z M36,123.8v-12.1c0,0,0.3-0.6,1.3-0.5
			c1.8,0.1,3.5,0.8,4.6,0.6v12c0,0-0.7,0.5-2.5,0C37,123.1,36,123.8,36,123.8z M60.5,141.5l-4.8,1.2l-4.7-1.3v-37H20.6v-8.6H51V68.1
			h9.5v27.7h30.3v8.6H60.5V141.5z M86.5,125.2v-12.6h-1.8v-2.6c-1.8,0.4-4.7-0.6-6-0.6c-1.5,0-2.2,0.6-2.2,0.6s-0.7-0.6-2.2-0.6
			c-1.3,0-4.2,1-6,0.6v2.6h-1.8v14h8.3v1.1h3.4v-1.1h7.5c-1.2,1.8-2.7,3.4-4.3,5c-4.9,4.4-12.1,7.3-19.4,9.3v-35H91v1.2
			C90.5,115,89.2,120.6,86.5,125.2L86.5,125.2z M83.3,111.7v12c0,0-0.7,0.5-2.5,0c-2.4-0.7-3.3,0.1-3.3,0.1v-12.1
			c0,0,0.3-0.6,1.3-0.5C80.5,111.2,82.3,111.9,83.3,111.7L83.3,111.7z M75.6,111.7v12.1c0,0-1.1-0.7-3.3-0.1c-1.8,0.5-2.5,0-2.5,0
			v-12c1,0.2,2.8-0.5,4.6-0.6C75.4,111.1,75.6,111.7,75.6,111.7L75.6,111.7z M18.8,66.4v38.7c0,12.8,3.1,21.6,10,27.8
			c6.8,6.2,16.9,9.3,26.8,11.7c10.2-2.5,20-5.4,26.8-11.7c6.9-6.2,10-15,10-27.8V66.4H18.8z"/>
		<path class="st1" d="M43.3,75v-2.6c-1.8,0.4-4.7-0.6-6-0.6c-1.5,0-2.2,0.6-2.2,0.6s-0.8-0.6-2.2-0.6c-1.3,0-4.2,1-6,0.6V75h-1.8
			v14h8.3v1.1h3.4V89h8.3V75H43.3z M34.1,86.1c0,0-1.1-0.7-3.3-0.1c-1.8,0.5-2.5,0-2.5,0V74c1,0.2,2.8-0.5,4.6-0.6
			c1,0,1.3,0.5,1.3,0.5L34.1,86.1z M41.8,86c0,0-0.7,0.5-2.5,0C37,85.3,36,86.1,36,86.1V74c0,0,0.3-0.6,1.3-0.5
			c1.8,0.1,3.5,0.8,4.6,0.6L41.8,86z"/>
		<path class="st1" d="M84.8,75v-2.6c-1.8,0.4-4.7-0.6-6-0.6c-1.5,0-2.2,0.6-2.2,0.6s-0.7-0.6-2.2-0.6c-1.3,0-4.2,1-6,0.6V75h-1.8
			v14h8.3v1.1h3.4V89h8.3V75H84.8z M75.4,86.1c0,0-1.1-0.7-3.3-0.1c-1.8,0.5-2.5,0-2.5,0V74c1,0.2,2.8-0.5,4.6-0.6
			c1,0,1.3,0.5,1.3,0.5L75.4,86.1C75.5,86.1,75.4,86.1,75.4,86.1z M83.1,86c0,0-0.7,0.5-2.5,0c-2.4-0.7-3.3,0.1-3.3,0.1V74
			c0,0,0.3-0.6,1.3-0.5c1.8,0.1,3.5,0.8,4.6,0.6L83.1,86L83.1,86z"/>
	</g>
	<g>
		<path class="st2" d="M62.1,141c7.3-2.1,14.4-4.9,19.4-9.3c1.8-1.6,3.1-3.2,4.3-5h-7.5v1.1h-3.4v-1.1h-8.3v-14h1.8v-2.6
			c1.8,0.4,4.7-0.6,6-0.6c1.5,0,2.2,0.6,2.2,0.6s0.8-0.6,2.2-0.6c1.3,0,4.2,1,6,0.6v2.6h1.8v12.6c2.7-4.6,3.9-10.2,4.3-18.1V106H62
			L62.1,141L62.1,141z"/>
		<path class="st2" d="M20.7,107.1c0.3,7.2,1.7,13.1,4.4,18v-12.5h1.8V110c1.8,0.4,4.7-0.6,6-0.6c1.5,0,2.2,0.6,2.2,0.6
			s0.8-0.6,2.2-0.6c1.3,0,4.2,1,6,0.6v2.6H45v14h-8.3v1.1h-3.4v-1.1h-7.4c1.2,1.8,2.6,3.4,4.2,5c4.6,4.3,11.8,7.3,19.3,9.4v-35H20.6
			L20.7,107.1z"/>
		<path class="st2" d="M34.1,123.8v-12.1c0,0-0.3-0.6-1.3-0.5c-1.8,0.1-3.5,0.8-4.6,0.6v12c0,0,0.7,0.5,2.5,0
			C33.2,123.1,34.1,123.8,34.1,123.8z"/>
		<path class="st2" d="M25.3,45.8c1.9,0.8,5.8,1.7,8.7,1.5c1.5-0.1,3.9,0.8,4.4,1c1.1,0.4,3,1,4.1,1c0.1-0.5,0.3-2,0.5-2.6
			c-0.8-0.8-2.4-1.5-4.3-1.3c-4.1,0.3-6.9,0.1-8.5-0.2c-2.7-0.4-4.3,0-5.7,0C20.6,45.3,24.8,45.6,25.3,45.8L25.3,45.8z"/>
		<path class="st2" d="M33,73.4c-1.8,0.1-3.5,0.8-4.6,0.6v12c0,0,0.7,0.5,2.5,0c2.4-0.7,3.3,0.1,3.3,0.1V74
			C34.1,74,33.9,73.4,33,73.4z"/>
		<path class="st2" d="M78.5,73.4c-1,0-1.3,0.5-1.3,0.5V86c0,0,1.1-0.7,3.3-0.1c1.8,0.5,2.5,0,2.5,0v-12
			C82,74.2,80.2,73.5,78.5,73.4L78.5,73.4z"/>
		<path class="st2" d="M90.9,68.1H62.1v26.1h28.8V68.1z M86.5,89h-8.3v1.1h-3.4V89h-8.3V75h1.8v-2.6c1.8,0.4,4.7-0.6,6-0.6
			c1.5,0,2.2,0.6,2.2,0.6s0.8-0.6,2.2-0.6c1.3,0,4.2,1,6,0.6V75h1.8L86.5,89z"/>
		<path class="st2" d="M77.5,111.7v12.1c0,0,1.1-0.7,3.3-0.1c1.8,0.5,2.5,0,2.5,0v-12c-1.1,0.2-2.8-0.5-4.6-0.6
			C77.8,111.1,77.5,111.7,77.5,111.7L77.5,111.7z"/>
		<path class="st2" d="M69.8,111.7v12c0,0,0.7,0.5,2.5,0c2.4-0.7,3.3,0.1,3.3,0.1v-12.1c0,0-0.3-0.6-1.3-0.5
			C72.6,111.2,70.9,111.9,69.8,111.7L69.8,111.7z"/>
		<path class="st2" d="M74.1,73.4c-1.8,0.1-3.5,0.8-4.6,0.6v12c0,0,0.7,0.5,2.5,0c2.4-0.7,3.3,0.1,3.3,0.1V74
			C75.4,74,75.1,73.4,74.1,73.4L74.1,73.4z"/>
		<path class="st2" d="M46.4,41.7c-2.1-1.7-4-2.1-7-3.4c-0.7-0.3-1.9-1.1-1.9-1.2c-0.1-0.1-0.2-0.2-0.4-0.3
			c-0.2,0.6-0.6,1.4-0.9,1.8c0.5,0.6,3.8,4.5,8.3,5.7C44.9,43.5,45.6,42.5,46.4,41.7z"/>
		<path class="st2" d="M44.8,32.3c0.1,0.2,0.3,0.5,0.6,1c0.7,1.2,1.8,5.4,3.1,6.8c0.7-0.5,2-1.2,2.8-1.4c-0.2-0.3-0.9-1.6-1.8-2.8
			c-1.7-2.2-2.8-3.3-2.9-3.5C45.9,32.5,45.3,32.5,44.8,32.3z"/>
		<path class="st2" d="M43.9,52.7c3.4-0.8,8.1-0.7,10,1c3.2-1.9,8.1-2,11.5,0c0.7-0.4,1.4-0.6,2.2-0.8c0.1-0.7,0.1-1.3,0.1-1.8
			c0-6.7-5.3-12-12-12c-6.6,0-12,5.4-12,12C43.8,51.4,43.8,52,43.9,52.7L43.9,52.7z M57.1,45.4c1.2-0.5,5.1-0.7,6.2,1.5
			c0.1,0.3,0.1,0.6-0.3,0.3c-0.6-0.5-1.5-0.8-1.8-0.5v0.1c0.1,0.8-0.5,1.5-1.3,1.5c-0.8,0.1-1.5-0.5-1.5-1.3v-0.1
			C58,46.7,57.2,47,57.1,47C56.9,47.1,56.7,45.6,57.1,45.4z M56.8,50.1c0.3-0.1,0.1-0.6,0.3-0.5c0.3,0.1,0.3,0.9,0,1.6
			c-0.2,0.7-2.8,1-3.2,0c-0.2-0.4-0.4-1.3-0.1-1.1C54.3,50.4,56.4,50.2,56.8,50.1L56.8,50.1z M48.5,46.3c0.9-0.8,1.7-1.2,2.4-1.3
			c1.2-0.1,2.8,0.2,3.5,0.5c0.3,0.1,0,1.7-0.1,1.6C54,47,53.5,46.8,53,46.9V47c0,0.8-0.7,1.4-1.5,1.3c-0.8,0-1.4-0.7-1.3-1.5v-0.2
			c-0.1-0.2-0.8-0.4-1.7,0.2C48.2,47.2,47.6,47,48.5,46.3L48.5,46.3z"/>
		<path class="st2" d="M51.8,54.2c-2.6-1.2-6.1-0.8-9.1,0.3c0.8,1.1,2.3,3.7,2.9,4.5c1.4,1.7,3.7,0.8,3.8,0.3
			c-0.2-0.3-1.5-2-1.9-2.3c-0.5-0.3-0.7-0.7-0.5-1c0.4-0.6,1.4,0,2,0.7c0.5,0.7,2.1,2.6,2.6,2.8c1.5,1,4.3,0.5,4-0.4
			C54.7,57.9,54.3,55.3,51.8,54.2L51.8,54.2z"/>
		<path class="st2" d="M25.7,53.3c-2.2,0-4,0.6-4.7,1.7c-1.2,2.1,0.2,3.9,1.1,4.4c2,1.2,3.7,0.4,3.9-0.3c-0.5-0.6-1.5-2-2-2
			c-0.7,0-0.7-1-0.1-1.2c1.3-0.4,2.6,2,4.3,3.3c1.7,1.2,3.9,0.3,3.9-0.2C31.1,58.2,29.9,53.4,25.7,53.3z"/>
		<path class="st2" d="M57,38c0.3-2.3-0.4-5.9-0.9-6.9c-0.6-0.1-1.2-0.3-1.6-0.6c-0.1,0.3-0.5,1.8-0.6,4c-0.1,1.2,0,3,0.2,3.4
			C54.9,37.9,56.1,37.9,57,38z"/>
		<path class="st2" d="M63.7,32.2c-1.4,1.2-3.5,4.1-3.8,6.4c0.7,0.3,2.4,1.1,2.7,1.3c1.8-1.7,1.4-3.6,2.1-5c0.3-0.6,0.6-1.1,0.8-1.4
			C64.8,33,64.2,32.7,63.7,32.2L63.7,32.2z"/>
		<path class="st2" d="M69.6,59c1.6,1.6,3.6,0.9,3.7,0.4c-0.2-0.3-1.2-1.8-1.7-2.1c-0.5-0.3-0.8-0.7-0.5-1c0.4-0.6,1.3-0.2,1.8,0.5
			c0.5,0.7,2,2.6,2.6,2.9c1.4,0.8,4.3,0.5,4-0.4c-0.8-1.3-1.4-3.9-3.8-5c-2.6-1.2-5.8-0.9-8.7,0.2C67.4,55.5,68.8,58.2,69.6,59z"/>
		<path class="st2" d="M68.8,49c0.8,0.1,1.6-0.9,3.9-0.9c2.5,0,8.4-0.3,11.4-1.5c2.3-0.9,4.1-1.3,5.7-1.6c0.5-0.1,1.3-0.2,0.3-0.4
			c-0.2,0-1-0.1-1.5-0.1c-0.7,0-4.9,0-6.1,0.2c-2.4,0.4-7.1,0.2-9.6,0.1c-1.9-0.1-4.1,0.7-4.8,1C68.1,45.8,68.7,47.7,68.8,49z"/>
		<path class="st2" d="M36.3,32.7c0.2-0.2,0.5-0.1,0.7-0.1c2.1,0.7,4.9,0.2,6.3-2c0.2-0.3,0.6-0.4,0.9-0.3c1.4,0.6,4.3,0.8,7.8-2.8
			c0.3-0.3,0.7-0.2,1,0c3,2.5,6.3,2.7,9.5,0.5c0.2-0.1,0.5-0.3,0.7-0.2c0.2,0.1,0.4,0.3,0.4,0.5c1.1,4.8,6.1,4.4,7.6,4.1
			c0.2,0,0.4,0,0.6,0.1c0.2,0.1,0.3,0.3,0.3,0.5c0.2,1.1,1.4,3.3,3.5,4.4c1.9,1,3.8,0.9,6-0.2c0.2-0.1,0.5-0.1,0.7,0
			c2.8,1.5,5.2,1.6,6.7,0.2c1.1-0.9,1.6-2.5,1.1-3.7c-0.5-1.5-2-2.4-4-2.5c-0.3,0-0.6-0.3-0.7-0.6c-0.2-1.2-0.8-2.2-1.9-2.8
			c-1.6-1-3.9-1.1-6.3-0.3c-0.2,0.1-0.4,0-0.6-0.1c-0.2-0.1-0.3-0.3-0.3-0.5c-0.1-0.9-0.5-2.2-1.7-2.8c-1.2-0.7-2.9-0.7-5.2,0.1
			c-0.3,0.1-0.7,0-0.9-0.4c-1.4-2.8-3.4-4.5-5.8-5.1c-2.1-0.6-4.4-0.2-6.4,1.1c-0.3,0.2-0.6,0.2-0.9,0c-2-1.5-4.4-2-6.6-1.3
			c-2.1,0.7-3.7,2.3-4.5,4.6c-0.1,0.2-0.2,0.4-0.4,0.4c-0.2,0.1-0.4,0.1-0.6,0c-3.2-1.3-5.9-1.3-7.7,0.1c-1.5,1.2-2,3-1.9,3.5
			c0,0.4-0.2,0.7-0.5,0.8l-0.8,0.2c-1.8,0.4-3.6,0.8-4.2,3.6c-0.1,0.3-0.3,0.6-0.7,0.6c-3.1,0.3-5.1,1.5-5.6,3.1
			c-0.3,1.2,0.3,2.6,1.4,3.3c1.1,0.8,2.5,0.7,3.6-0.2c0.2-0.1,0.5-0.2,0.7-0.1c1.9,0.7,4.8,0.6,6.6-0.9c1.3-1.1,1.8-2.6,1.5-4.6
			C36,33,36.1,32.9,36.3,32.7L36.3,32.7z M85.6,32.9c1.9-0.4,4,0.9,3.4,3.4c-0.1,0.4-1.2,0.5-1.1,0c0.2-2.1-0.9-2.3-2.3-2.3
			C85.2,34,85.2,33,85.6,32.9L85.6,32.9z M77.7,29.2c1.8-1,5.5-0.9,6.6,2.5c0.2,0.6-0.6,1.5-1,0.7c-1.4-2.6-3.6-2.6-5.5-1.9
			C77.4,30.6,77,29.6,77.7,29.2z M69.9,25.4c1.7-0.6,4.5-0.9,5.3,2c0.2,0.8-0.8,1.2-1,0.6c-0.8-2.1-2.3-2-3.9-1.4
			C69.4,26.9,69.6,25.5,69.9,25.4L69.9,25.4z M56.4,22.2c1.2-2,7.5-3.7,10.7,1.8c0.3,0.6-0.1,1-0.5,1.2c-0.3,0.2-0.4-0.2-0.6-0.5
			c-2.8-4.3-7.7-3.1-9-1.2C56.7,23.9,56,22.8,56.4,22.2z M46.2,22.6c1.1-1.8,4.9-4.4,8.3-1.5c0.4,0.3-0.1,1.6-0.5,1.3
			c-3-2.1-5.5-0.4-6.8,1.1C46.5,24.2,45.9,23,46.2,22.6z M28.1,34.8c-1.3,0-2.4,0-3.2,1c-1,1.1-0.7,1.6-0.9,1.8
			c-0.3,0.3-0.9-0.2-0.9-0.7c0.1-2.5,3-3.4,4.8-3.2C28.5,33.7,28.6,34.8,28.1,34.8z M33.4,30.7c-1.9,0.2-2.5,1.1-2.8,2.2
			c-0.1,0.4-1.2,0.1-1-0.7c0.5-2.4,3-2.9,3.9-2.7C33.8,29.6,33.7,30.7,33.4,30.7z M34.9,28.2c0.4-2.1,2.4-5,7-3.8
			c0.6,0.1,0.2,1.6-0.4,1.3c-3.3-1.3-5,1.2-5.5,3.2C35.9,29.1,34.7,29,34.9,28.2z"/>
		<path class="st2" d="M72.2,36.7c-0.3,0.2-1.1,0.6-1.3,0.8c-1.7,1.3-5.3,2.9-6.1,3.8c0.7,0.6,1.7,1.7,2.1,2.6
			c0.4,0,1.6-0.9,3.8-3.6c0.8-0.9,1.6-1.3,2.9-2.2C73.1,37.8,72.6,37.3,72.2,36.7z"/>
		<path class="st2" d="M39.4,123.8c1.8,0.5,2.5,0,2.5,0v-12c-1.1,0.2-2.8-0.5-4.6-0.6c-1,0-1.3,0.5-1.3,0.5v12.1
			C36,123.8,37,123.1,39.4,123.8z"/>
		<path class="st2" d="M49.5,68.1H20.6v26.1h28.8L49.5,68.1z M45.1,89h-8.3v1.1h-3.4V89h-8.3V75h1.8v-2.6c1.8,0.4,4.7-0.6,6-0.6
			c1.5,0,2.2,0.6,2.2,0.6s0.8-0.6,2.2-0.6c1.3,0,4.2,1,6,0.6V75H45L45.1,89L45.1,89z"/>
		<path class="st2" d="M37.2,73.4c-1,0-1.3,0.5-1.3,0.5V86c0,0,1.1-0.7,3.3-0.1c1.8,0.5,2.5,0,2.5,0v-12
			C40.8,74.2,39.1,73.5,37.2,73.4L37.2,73.4z"/>
	</g>
</g>
</svg>
