<svg width="389" height="232" viewBox="0 0 389 232" fill="none" xmlns="http://www.w3.org/2000/svg">
<rect x="1.21063" y="14.2106" width="352.397" height="106.731" rx="2.01772" fill="white"/>
<path fill-rule="evenodd" clip-rule="evenodd" d="M47.0509 41.0292C46.0378 39.9499 44.3134 39.9499 43.3003 41.0292C42.5486 41.8301 41.3638 42.0637 40.3601 41.6089C39.0074 40.996 37.4143 41.6501 36.895 43.0316C36.5097 44.0566 35.5053 44.7218 34.4024 44.6824C32.9161 44.6292 31.6967 45.8378 31.7504 47.3111C31.7901 48.4042 31.119 49.3998 30.0849 49.7817C28.6912 50.2964 28.0312 51.8755 28.6496 53.2163C29.1084 54.2111 28.8727 55.3854 28.0647 56.1305C26.9758 57.1347 26.9758 58.8439 28.0647 59.8481C28.8727 60.5932 29.1084 61.7675 28.6496 62.7624C28.0312 64.1031 28.6912 65.6823 30.0849 66.1969C31.119 66.5789 31.7901 67.5744 31.7504 68.6676C31.6967 70.1408 32.9161 71.3494 34.4024 71.2963C35.3283 71.2632 36.1847 71.7266 36.6637 72.4826L28.5134 88.6315C27.9092 89.8286 28.9573 91.1912 30.282 90.9307L36.3113 89.7448L39.7011 94.175C40.53 95.2584 42.2568 94.8983 42.575 93.5757L45.2494 82.4594L47.9533 93.6932C48.2666 94.9953 49.9532 95.3715 50.7991 94.3279L54.6492 89.5784L60.1188 90.813C61.4563 91.1149 62.5457 89.739 61.9319 88.523L53.7716 72.3582C54.2628 71.6762 55.0749 71.265 55.9488 71.2963C57.4352 71.3494 58.6545 70.1408 58.6009 68.6676C58.5611 67.5744 59.2322 66.5789 60.2664 66.1969C61.6601 65.6823 62.32 64.1031 61.7017 62.7624C61.2429 61.7675 61.4785 60.5932 62.2865 59.8481C63.3754 58.8439 63.3754 57.1347 62.2865 56.1305C61.4785 55.3854 61.2429 54.2111 61.7017 53.2163C62.32 51.8755 61.6601 50.2964 60.2664 49.7817C59.2322 49.3998 58.5611 48.4042 58.6009 47.3111C58.6545 45.8378 57.4352 44.6292 55.9488 44.6824C54.8459 44.7218 53.8415 44.0566 53.4562 43.0316C52.937 41.6501 51.3438 40.996 49.9911 41.6089C48.9874 42.0637 47.8027 41.8301 47.0509 41.0292Z" fill="#3DE4A2"/>
<path fill-rule="evenodd" clip-rule="evenodd" d="M49.087 38.4999C51.9012 37.4907 55.0438 38.7809 56.3138 41.467C59.3034 41.602 61.7087 43.9861 61.845 46.9494C64.5549 48.2082 65.8566 51.3232 64.8384 54.1126C66.856 56.3035 66.856 59.6751 64.8384 61.866C65.8566 64.6554 64.5549 67.7703 61.845 69.0291C61.7402 71.3075 60.294 73.2436 58.2722 74.0781L64.837 87.0824C66.6784 90.7302 63.4103 94.858 59.3978 93.9523L55.909 93.1649L53.3314 96.3447C51.0668 99.1383 46.7939 98.5403 45.2323 95.6032C43.5961 98.4849 39.3067 98.9875 37.1132 96.1207L34.951 93.2949L30.9144 94.0888C26.9403 94.8705 23.7959 90.7826 25.6086 87.1911L32.2019 74.1271C30.1163 73.3212 28.6136 71.3533 28.5067 69.0291C25.7968 67.7703 24.495 64.6554 25.5132 61.866C23.4956 59.6751 23.4956 56.3035 25.5132 54.1126C24.495 51.3232 25.7968 48.2082 28.5067 46.9494C28.6429 43.9861 31.0482 41.6021 34.0378 41.467C35.3078 38.7809 38.4505 37.4907 41.2647 38.4999C43.475 36.5 46.8766 36.5 49.087 38.4999ZM36.3115 89.7449L30.2822 90.9308C28.9575 91.1913 27.9094 89.8287 28.5136 88.6315L36.6639 72.4826C36.1849 71.7266 35.3285 71.2632 34.4026 71.2963C34.3596 71.2978 34.3168 71.2983 34.2743 71.2977C34.066 71.295 33.8636 71.2676 33.67 71.2182C32.5372 70.9292 31.7061 69.8894 31.7505 68.6676C31.7903 67.5744 31.1192 66.5789 30.0851 66.1969C28.6913 65.6823 28.0314 64.1031 28.6498 62.7624C29.1086 61.7675 28.8729 60.5932 28.0649 59.8481C26.976 58.8439 26.976 57.1347 28.0649 56.1305C28.8729 55.3854 29.1086 54.2111 28.6498 53.2162C28.0314 51.8754 28.6913 50.2963 30.0851 49.7816C31.1192 49.3997 31.7903 48.4042 31.7505 47.311C31.6969 45.8377 32.9163 44.6291 34.4026 44.6823C35.5055 44.7217 36.5099 44.0565 36.8952 43.0315C37.4145 41.65 39.0076 40.9959 40.3603 41.6088C41.364 42.0636 42.5488 41.83 43.3005 41.0291C44.3136 39.9498 46.038 39.9498 47.0511 41.0291C47.8029 41.83 48.9876 42.0636 49.9913 41.6088C51.344 40.9959 52.9372 41.65 53.4564 43.0315C53.8417 44.0565 54.8461 44.7217 55.949 44.6823C57.4353 44.6291 58.6547 45.8377 58.6011 47.311C58.5613 48.4042 59.2324 49.3997 60.2666 49.7816C61.6603 50.2963 62.3202 51.8754 61.7019 53.2162C61.2431 54.2111 61.4787 55.3854 62.2867 56.1305C63.3756 57.1347 63.3756 58.8439 62.2867 59.8481C61.4787 60.5932 61.2431 61.7675 61.7019 62.7624C62.3202 64.1031 61.6603 65.6823 60.2666 66.1969C59.2324 66.5789 58.5613 67.5744 58.6011 68.6676C58.6438 69.8427 57.8767 70.8495 56.8101 71.1818C56.5396 71.2661 56.2497 71.307 55.949 71.2963C55.9377 71.2959 55.9264 71.2955 55.9151 71.2953C55.0541 71.2757 54.2567 71.685 53.7718 72.3583L61.9321 88.5231C62.5459 89.7391 61.4565 91.115 60.119 90.8131L54.6494 89.5785L50.7993 94.3281C49.9534 95.3716 48.2668 94.9954 47.9534 93.6933L45.2496 82.4595L42.5752 93.5758C42.257 94.8984 40.5302 95.2585 39.7013 94.1751L36.3115 89.7449Z" fill="#088553"/>
<path d="M41.3874 63.1246L49.2221 65.9503L42.5758 93.5756C42.2576 94.8982 40.5308 95.2583 39.7019 94.175L36.3121 89.7447L30.2828 90.9306C28.9581 91.1912 27.9099 89.8286 28.5142 88.6314L41.3874 63.1246Z" fill="#0AB16F"/>
<path d="M41.277 65.9513L49.1114 63.1249L61.9327 88.5228C62.5465 89.7388 61.4571 91.1147 60.1196 90.8128L54.65 89.5782L50.7999 94.3277C49.954 95.3713 48.2674 94.9951 47.9541 93.693L41.277 65.9513Z" fill="#0AB16F"/>
<path d="M43.3481 41.0245C44.3589 39.9476 46.0794 39.9476 47.0902 41.0245C47.8403 41.8235 49.0223 42.0566 50.0238 41.6028C51.3734 40.9913 52.963 41.644 53.4811 43.0223C53.8655 44.045 54.8676 44.7087 55.968 44.6694C57.451 44.6163 58.6676 45.8222 58.6141 47.2921C58.5744 48.3828 59.244 49.3761 60.2758 49.7572C61.6664 50.2707 62.3248 51.8463 61.7079 53.184C61.2501 54.1766 61.4852 55.3483 62.2914 56.0917C63.3779 57.0936 63.3779 58.799 62.2914 59.8009C61.4852 60.5443 61.2501 61.716 61.7079 62.7086C62.3248 64.0463 61.6664 65.6219 60.2758 66.1354C59.244 66.5165 58.5744 67.5097 58.6141 68.6004C58.6676 70.0704 57.451 71.2762 55.968 71.2232C54.8676 71.1839 53.8655 71.8476 53.4811 72.8703C52.963 74.2486 51.3734 74.9012 50.0238 74.2897C49.0223 73.836 47.8403 74.0691 47.0902 74.8681C46.0794 75.945 44.3589 75.945 43.3481 74.8681C42.598 74.0691 41.416 73.836 40.4145 74.2897C39.0649 74.9012 37.4753 74.2486 36.9572 72.8703C36.5728 71.8476 35.5707 71.1839 34.4703 71.2232C32.9873 71.2762 31.7707 70.0704 31.8242 68.6004C31.8639 67.5097 31.1943 66.5165 30.1625 66.1354C28.7719 65.6219 28.1135 64.0463 28.7304 62.7086C29.1882 61.716 28.953 60.5443 28.1469 59.8009C27.0604 58.799 27.0604 57.0936 28.1469 56.0917C28.953 55.3483 29.1882 54.1766 28.7304 53.184C28.1135 51.8463 28.7719 50.2707 30.1625 49.7572C31.1943 49.3761 31.8639 48.3828 31.8242 47.2921C31.7707 45.8222 32.9873 44.6163 34.4703 44.6694C35.5707 44.7087 36.5728 44.045 36.9572 43.0223C37.4753 41.644 39.0649 40.9913 40.4145 41.6028C41.416 42.0566 42.598 41.8235 43.3481 41.0245Z" fill="#3DE4A2"/>
<path d="M44.2097 49.5835C44.8301 48.4871 46.4223 48.4871 47.0427 49.5835L48.6849 52.4857C48.9103 52.884 49.2957 53.1686 49.7451 53.2688L53.0273 54.0004C54.223 54.2669 54.7014 55.7001 53.9021 56.6209L51.6009 59.2718C51.3118 59.6049 51.1726 60.0406 51.2156 60.478L51.5574 63.9534C51.679 65.1888 50.4039 66.0899 49.2652 65.5734L46.302 64.2294C45.8729 64.0348 45.3795 64.0348 44.9504 64.2294L41.9872 65.5734C40.8485 66.0899 39.5734 65.1888 39.6949 63.9534L40.0368 60.478C40.0798 60.0406 39.9406 59.6049 39.6515 59.2718L37.3503 56.6209C36.5509 55.7001 37.0294 54.2669 38.2251 54.0004L41.5072 53.2688C41.9567 53.1686 42.3421 52.884 42.5674 52.4857L44.2097 49.5835Z" fill="#FFDF3F"/>
<path d="M87.6105 63.002H89.8962C90.0511 63.002 90.1674 62.9438 90.2255 62.7695L90.884 60.7744H95.9978L96.6563 62.7695C96.7144 62.9438 96.8307 63.002 96.9856 63.002H99.2713C99.4844 63.002 99.6006 62.8664 99.5231 62.6727L94.9905 49.6753C94.9324 49.5204 94.7774 49.4429 94.6225 49.4429H92.2787C92.1237 49.4429 91.9688 49.5204 91.9107 49.6753L87.3781 62.6727C87.3006 62.8664 87.3974 63.002 87.6105 63.002ZM91.6782 58.3144L93.4409 52.9295L95.2036 58.3144H91.6782Z" fill="#171923"/>
<path d="M101.64 63.002H103.751C103.925 63.002 104.041 62.8857 104.041 62.7114V49.4429C104.041 49.2686 103.925 49.1523 103.751 49.1523H101.64C101.465 49.1523 101.349 49.2686 101.349 49.4429V62.7114C101.349 62.8857 101.465 63.002 101.64 63.002Z" fill="#171923"/>
<path d="M110.817 66.9728C113.161 66.9728 115.834 65.8881 115.834 62.479V53.8012C115.834 53.6268 115.718 53.5106 115.544 53.5106H113.645C113.471 53.5106 113.335 53.6268 113.335 53.8012L113.297 54.6728C112.696 53.7818 111.728 53.2782 110.333 53.2782C107.66 53.2782 105.859 55.2539 105.859 58.0432C105.859 60.8519 107.66 62.8083 110.333 62.8083C111.689 62.8083 112.677 62.2853 113.277 61.433V62.4596C113.277 64.2223 111.902 64.8034 110.566 64.8034C109.733 64.8034 108.88 64.5709 108.047 64.106C107.834 63.9898 107.66 64.0673 107.563 64.261L107.001 65.3264C106.905 65.5007 106.924 65.7525 107.118 65.8881C108.047 66.5854 109.403 66.9728 110.817 66.9728ZM108.474 58.0432C108.474 56.6098 109.481 55.6801 110.856 55.6801C112.212 55.6801 113.181 56.5905 113.181 58.0432C113.181 59.496 112.212 60.4064 110.856 60.4064C109.481 60.4064 108.474 59.496 108.474 58.0432Z" fill="#171923"/>
<path d="M122.854 63.2344C124.19 63.2344 125.411 62.847 126.224 62.0334C126.399 61.8785 126.418 61.7429 126.321 61.6073L125.604 60.6194C125.508 60.4838 125.411 60.4645 125.275 60.542C124.5 60.9875 123.803 61.1231 123.067 61.1231C121.537 61.1231 120.549 60.4645 120.258 59.2635H126.031C126.864 59.2635 127.077 58.7405 127.077 57.8108C127.077 55.4089 125.411 53.2782 122.525 53.2782C119.6 53.2782 117.643 55.4282 117.643 58.2175C117.643 61.0843 119.735 63.2344 122.854 63.2344ZM120.22 57.3846C120.452 56.1256 121.362 55.4864 122.544 55.4864C123.687 55.4864 124.539 56.1256 124.694 57.3846H120.22Z" fill="#171923"/>
<path d="M134.509 63.2344C137.162 63.2344 139.003 61.0843 139.003 58.2563C139.003 55.4476 137.162 53.2782 134.509 53.2782C133.191 53.2782 132.204 53.7624 131.564 54.6147V49.4429C131.564 49.2686 131.448 49.1523 131.274 49.1523H129.163C128.988 49.1523 128.872 49.2686 128.872 49.4429V62.7114C128.872 62.8857 129.008 63.002 129.182 63.002H131.08C131.254 63.002 131.371 62.8857 131.371 62.7114L131.409 61.6654C132.068 62.6339 133.075 63.2344 134.509 63.2344ZM131.526 58.2563C131.526 56.726 132.514 55.7188 133.947 55.7188C135.342 55.7188 136.388 56.7454 136.388 58.2563C136.388 59.7865 135.342 60.7938 133.947 60.7938C132.514 60.7938 131.526 59.7865 131.526 58.2563Z" fill="#171923"/>
<path d="M141.117 63.002H143.209C143.384 63.002 143.5 62.8857 143.5 62.7114V57.9657C143.5 56.6098 144.197 55.7382 145.514 55.7382C145.786 55.7382 145.999 55.7769 146.212 55.835C146.464 55.8931 146.599 55.835 146.599 55.6026V53.898C146.599 53.7237 146.56 53.6075 146.425 53.5106C146.27 53.3944 145.999 53.2782 145.553 53.2782C144.43 53.2782 143.829 54.0336 143.5 55.0408L143.423 53.8205C143.403 53.5881 143.306 53.5106 143.132 53.5106H141.117C140.943 53.5106 140.827 53.6268 140.827 53.8012V62.7114C140.827 62.8857 140.943 63.002 141.117 63.002Z" fill="#171923"/>
<path d="M152.082 63.2344C153.496 63.2344 154.522 62.6339 155.181 61.6654L155.22 62.7114C155.22 62.8857 155.336 63.002 155.51 63.002H157.389C157.564 63.002 157.699 62.8857 157.699 62.7114V53.8012C157.699 53.6268 157.583 53.5106 157.409 53.5106H155.51C155.336 53.5106 155.22 53.6268 155.22 53.8012L155.181 54.8471C154.542 53.8593 153.515 53.2782 152.082 53.2782C149.409 53.2782 147.569 55.4476 147.569 58.2563C147.569 61.0843 149.409 63.2344 152.082 63.2344ZM150.184 58.2563C150.184 56.7454 151.23 55.7188 152.644 55.7188C154.058 55.7188 155.045 56.726 155.045 58.2563C155.045 59.7865 154.058 60.7938 152.644 60.7938C151.23 60.7938 150.184 59.7865 150.184 58.2563Z" fill="#171923"/>
<path d="M164.275 63.002H166.464C166.638 63.002 166.755 62.8857 166.755 62.7114V49.7334C166.755 49.5591 166.638 49.4429 166.464 49.4429H164.275C164.101 49.4429 163.985 49.5591 163.985 49.7334V62.7114C163.985 62.8857 164.101 63.002 164.275 63.002Z" fill="#171923"/>
<path d="M169.742 63.002H171.931C172.105 63.002 172.221 62.8857 172.221 62.7114V49.7334C172.221 49.5591 172.105 49.4429 171.931 49.4429H169.742C169.568 49.4429 169.452 49.5591 169.452 49.7334V62.7114C169.452 62.8857 169.568 63.002 169.742 63.002Z" fill="#171923"/>
<rect x="87.3516" y="82.9727" width="158" height="13" rx="4" fill="#FFDF3F"/>
<path d="M262.942 92.3141H264.127C264.226 92.3141 264.292 92.2483 264.292 92.1495V84.7987C264.292 84.7 264.226 84.6342 264.127 84.6342H261.516C261.417 84.6342 261.352 84.7 261.352 84.7987V85.7532C261.352 85.852 261.417 85.9178 261.516 85.9178H262.778V92.1495C262.778 92.2483 262.844 92.3141 262.942 92.3141Z" fill="#4A5568"/>
<path d="M268.53 92.4567C270.143 92.4567 271.613 91.2608 271.613 88.507C271.613 85.7532 270.143 84.5464 268.53 84.5464C266.917 84.5464 265.447 85.7532 265.447 88.507C265.447 91.2608 266.917 92.4567 268.53 92.4567ZM266.917 88.507C266.917 87.0259 267.4 85.9507 268.53 85.9507C269.649 85.9507 270.143 87.0259 270.143 88.507C270.143 89.9882 269.649 91.0524 268.53 91.0524C267.4 91.0524 266.917 89.9882 266.917 88.507Z" fill="#4A5568"/>
<path d="M275.687 92.4567C277.3 92.4567 278.77 91.2608 278.77 88.507C278.77 85.7532 277.3 84.5464 275.687 84.5464C274.074 84.5464 272.604 85.7532 272.604 88.507C272.604 91.2608 274.074 92.4567 275.687 92.4567ZM274.074 88.507C274.074 87.0259 274.557 85.9507 275.687 85.9507C276.806 85.9507 277.3 87.0259 277.3 88.507C277.3 89.9882 276.806 91.0524 275.687 91.0524C274.557 91.0524 274.074 89.9882 274.074 88.507Z" fill="#4A5568"/>
<path d="M281.319 87.5635C282.164 87.5635 282.822 86.9162 282.822 86.0714C282.822 85.2266 282.164 84.5793 281.319 84.5793C280.474 84.5793 279.816 85.2266 279.816 86.0714C279.816 86.9162 280.474 87.5635 281.319 87.5635ZM280.551 91.6119C280.496 91.6997 280.507 91.7765 280.606 91.8423L281.176 92.2263C281.264 92.2921 281.341 92.2702 281.396 92.1824L285.971 85.3363C286.026 85.2486 286.015 85.1718 285.916 85.1059L285.346 84.7219C285.258 84.6561 285.181 84.678 285.126 84.7658L280.551 91.6119ZM280.814 86.0714C280.814 85.7752 281.034 85.5557 281.319 85.5557C281.604 85.5557 281.824 85.7752 281.824 86.0714C281.824 86.3676 281.604 86.5871 281.319 86.5871C281.034 86.5871 280.814 86.3676 280.814 86.0714ZM283.7 90.8768C283.7 91.7216 284.358 92.3689 285.203 92.3689C286.048 92.3689 286.706 91.7216 286.706 90.8768C286.706 90.0321 286.048 89.3847 285.203 89.3847C284.358 89.3847 283.7 90.0321 283.7 90.8768ZM284.698 90.8768C284.698 90.5806 284.918 90.3612 285.203 90.3612C285.488 90.3612 285.708 90.5806 285.708 90.8768C285.708 91.1731 285.488 91.3925 285.203 91.3925C284.918 91.3925 284.698 91.1731 284.698 90.8768Z" fill="#4A5568"/>
<path d="M290.314 92.3141H291.554C291.652 92.3141 291.718 92.2483 291.718 92.1495V87.5745L291.861 88.0462L293.485 92.1824C293.518 92.2702 293.594 92.3141 293.682 92.3141H294.779C294.867 92.3141 294.944 92.2702 294.977 92.1824L296.6 88.0462L296.743 87.5745V92.1495C296.743 92.2483 296.809 92.3141 296.908 92.3141H298.147C298.246 92.3141 298.312 92.2483 298.312 92.1495V84.7987C298.312 84.7 298.246 84.6342 298.147 84.6342H296.71C296.622 84.6342 296.557 84.6671 296.524 84.7439L294.231 90.5038L291.938 84.7439C291.905 84.6671 291.839 84.6342 291.751 84.6342H290.314C290.215 84.6342 290.149 84.7 290.149 84.7987V92.1495C290.149 92.2483 290.215 92.3141 290.314 92.3141Z" fill="#4A5568"/>
<path d="M301.997 92.4457C302.797 92.4457 303.379 92.1056 303.752 91.5571L303.774 92.1495C303.774 92.2483 303.84 92.3141 303.939 92.3141H305.003C305.101 92.3141 305.178 92.2483 305.178 92.1495V87.1027C305.178 87.004 305.112 86.9381 305.014 86.9381H303.939C303.84 86.9381 303.774 87.004 303.774 87.1027L303.752 87.6952C303.39 87.1356 302.808 86.8065 301.997 86.8065C300.483 86.8065 299.44 88.0353 299.44 89.6261C299.44 91.2279 300.483 92.4457 301.997 92.4457ZM300.921 89.6261C300.921 88.7703 301.514 88.1889 302.315 88.1889C303.116 88.1889 303.675 88.7594 303.675 89.6261C303.675 90.4928 303.116 91.0634 302.315 91.0634C301.514 91.0634 300.921 90.4928 300.921 89.6261Z" fill="#4A5568"/>
<path d="M308.318 92.4457C309.393 92.4457 310.326 91.8862 310.337 90.8C310.348 89.9772 309.81 89.5054 309.13 89.2311L308.373 88.9349C308.077 88.8252 307.857 88.6826 307.857 88.4193C307.857 88.1889 308.022 87.9914 308.373 87.9914C308.691 87.9914 308.998 88.145 309.349 88.4412C309.448 88.518 309.525 88.529 309.602 88.4412L310.085 87.8597C310.139 87.7939 310.161 87.7061 310.095 87.6293C309.646 87.0917 308.998 86.8065 308.296 86.8065C307.298 86.8065 306.42 87.3989 306.42 88.4302C306.42 89.1763 306.903 89.6371 307.594 89.9114L308.274 90.1857C308.669 90.3502 308.834 90.4709 308.834 90.7342C308.834 91.0414 308.592 91.184 308.23 91.184C307.813 91.184 307.44 90.9975 306.991 90.6574C306.903 90.5916 306.804 90.5696 306.716 90.7013L306.332 91.2389C306.256 91.3596 306.245 91.4803 306.31 91.5571C306.738 92.0618 307.418 92.4457 308.318 92.4457Z" fill="#4A5568"/>
<path d="M313.34 92.3799C313.702 92.3799 314.25 92.3141 314.25 92.0618V91.2608C314.25 91.1511 314.173 91.0963 314.053 91.1072C313.921 91.1182 313.811 91.1182 313.713 91.1182C313.427 91.1182 313.241 90.9646 313.241 90.6464V88.1121H314.086C314.184 88.1121 314.25 88.0462 314.25 87.9475V87.1027C314.25 87.004 314.184 86.9381 314.086 86.9381H313.241V85.6764C313.241 85.5777 313.175 85.5119 313.076 85.5119H311.88C311.782 85.5119 311.716 85.5777 311.716 85.6764V86.9381H311.036C310.937 86.9381 310.871 87.004 310.871 87.1027V87.9475C310.871 88.0462 310.937 88.1121 311.036 88.1121H311.716V90.811C311.716 91.985 312.484 92.3799 313.34 92.3799Z" fill="#4A5568"/>
<path d="M317.841 92.4457C318.598 92.4457 319.29 92.2263 319.75 91.7655C319.849 91.6778 319.86 91.601 319.805 91.5242L319.399 90.9646C319.344 90.8878 319.29 90.8768 319.213 90.9207C318.774 91.1731 318.379 91.2499 317.962 91.2499C317.095 91.2499 316.536 90.8768 316.371 90.1966H319.641C320.112 90.1966 320.233 89.9004 320.233 89.3738C320.233 88.0133 319.29 86.8065 317.655 86.8065C315.998 86.8065 314.89 88.0243 314.89 89.6042C314.89 91.2279 316.075 92.4457 317.841 92.4457ZM316.349 89.1324C316.481 88.4193 316.997 88.0572 317.666 88.0572C318.313 88.0572 318.796 88.4193 318.884 89.1324H316.349Z" fill="#4A5568"/>
<path d="M321.415 92.3141H322.6C322.698 92.3141 322.764 92.2483 322.764 92.1495V89.4615C322.764 88.6936 323.159 88.1998 323.905 88.1998C324.059 88.1998 324.179 88.2218 324.3 88.2547C324.443 88.2876 324.52 88.2547 324.52 88.123V87.1576C324.52 87.0588 324.498 86.993 324.421 86.9381C324.333 86.8723 324.179 86.8065 323.927 86.8065C323.291 86.8065 322.951 87.2344 322.764 87.8049L322.72 87.1137C322.709 86.982 322.654 86.9381 322.556 86.9381H321.415C321.316 86.9381 321.25 87.004 321.25 87.1027V92.1495C321.25 92.2483 321.316 92.3141 321.415 92.3141Z" fill="#4A5568"/>
<path d="M326.601 94.3986H327.764C327.852 94.3986 327.929 94.3548 327.961 94.267L330.803 87.1247C330.847 87.004 330.792 86.9381 330.671 86.9381H329.465C329.377 86.9381 329.3 86.982 329.267 87.0698L327.994 90.5587L326.711 87.0698C326.678 86.982 326.601 86.9381 326.513 86.9381H325.306C325.186 86.9381 325.131 87.004 325.175 87.1247L327.248 92.3251L326.469 94.2121C326.414 94.3328 326.48 94.3986 326.601 94.3986Z" fill="#4A5568"/>
<rect x="1.21063" y="14.2106" width="352.397" height="106.731" rx="2.01772" stroke="#CBD5E0" stroke-width="2.42126"/>
<rect x="32.2106" y="110.211" width="346.479" height="106.731" rx="2.01772" fill="white"/>
<path fill-rule="evenodd" clip-rule="evenodd" d="M78.0509 137.029C77.0378 135.95 75.3134 135.95 74.3003 137.029C73.5486 137.83 72.3638 138.064 71.3601 137.609C70.0074 136.996 68.4143 137.65 67.895 139.032C67.5097 140.057 66.5053 140.722 65.4024 140.682C63.9161 140.629 62.6967 141.838 62.7504 143.311C62.7901 144.404 62.119 145.4 61.0849 145.782C59.6912 146.296 59.0312 147.875 59.6496 149.216C60.1084 150.211 59.8727 151.385 59.0647 152.131C57.9758 153.135 57.9758 154.844 59.0647 155.848C59.8727 156.593 60.1084 157.768 59.6496 158.762C59.0312 160.103 59.6912 161.682 61.0849 162.197C62.119 162.579 62.7901 163.574 62.7504 164.668C62.6967 166.141 63.9161 167.349 65.4024 167.296C66.3283 167.263 67.1847 167.727 67.6637 168.483L59.5134 184.631C58.9092 185.829 59.9573 187.191 61.282 186.931L67.3113 185.745L70.7011 190.175C71.53 191.258 73.2568 190.898 73.575 189.576L76.2494 178.459L78.9533 189.693C79.2666 190.995 80.9532 191.371 81.7991 190.328L85.6492 185.578L91.1188 186.813C92.4563 187.115 93.5457 185.739 92.9319 184.523L84.7716 168.358C85.2628 167.676 86.0749 167.265 86.9488 167.296C88.4352 167.349 89.6545 166.141 89.6009 164.668C89.5611 163.574 90.2322 162.579 91.2664 162.197C92.6601 161.682 93.32 160.103 92.7017 158.762C92.2429 157.768 92.4785 156.593 93.2865 155.848C94.3754 154.844 94.3754 153.135 93.2865 152.131C92.4785 151.385 92.2429 150.211 92.7017 149.216C93.32 147.875 92.6601 146.296 91.2664 145.782C90.2322 145.4 89.5611 144.404 89.6009 143.311C89.6545 141.838 88.4352 140.629 86.9488 140.682C85.8459 140.722 84.8415 140.057 84.4562 139.032C83.937 137.65 82.3438 136.996 80.9911 137.609C79.9874 138.064 78.8027 137.83 78.0509 137.029Z" fill="#3DE4A2"/>
<path fill-rule="evenodd" clip-rule="evenodd" d="M80.087 134.5C82.9012 133.491 86.0438 134.781 87.3138 137.467C90.3034 137.602 92.7087 139.986 92.845 142.949C95.5549 144.208 96.8566 147.323 95.8384 150.113C97.856 152.303 97.856 155.675 95.8384 157.866C96.8566 160.655 95.5549 163.77 92.845 165.029C92.7402 167.308 91.294 169.244 89.2722 170.078L95.837 183.082C97.6784 186.73 94.4103 190.858 90.3978 189.952L86.909 189.165L84.3314 192.345C82.0668 195.138 77.7939 194.54 76.2323 191.603C74.5961 194.485 70.3067 194.988 68.1132 192.121L65.951 189.295L61.9144 190.089C57.9403 190.87 54.7959 186.783 56.6086 183.191L63.2019 170.127C61.1163 169.321 59.6136 167.353 59.5067 165.029C56.7968 163.77 55.495 160.655 56.5132 157.866C54.4956 155.675 54.4956 152.303 56.5132 150.113C55.495 147.323 56.7968 144.208 59.5067 142.949C59.6429 139.986 62.0482 137.602 65.0378 137.467C66.3078 134.781 69.4505 133.491 72.2647 134.5C74.475 132.5 77.8766 132.5 80.087 134.5ZM67.3115 185.745L61.2822 186.931C59.9575 187.191 58.9094 185.829 59.5136 184.632L67.6639 168.483C67.1849 167.727 66.3285 167.263 65.4026 167.296C65.3596 167.298 65.3168 167.298 65.2743 167.298C65.066 167.295 64.8636 167.268 64.67 167.218C63.5372 166.929 62.7061 165.889 62.7505 164.668C62.7903 163.574 62.1192 162.579 61.0851 162.197C59.6913 161.682 59.0314 160.103 59.6498 158.762C60.1086 157.767 59.8729 156.593 59.0649 155.848C57.976 154.844 57.976 153.135 59.0649 152.13C59.8729 151.385 60.1086 150.211 59.6498 149.216C59.0314 147.875 59.6913 146.296 61.0851 145.782C62.1192 145.4 62.7903 144.404 62.7505 143.311C62.6969 141.838 63.9163 140.629 65.4026 140.682C66.5055 140.722 67.5099 140.057 67.8952 139.031C68.4145 137.65 70.0076 136.996 71.3603 137.609C72.364 138.064 73.5488 137.83 74.3005 137.029C75.3136 135.95 77.038 135.95 78.0511 137.029C78.8029 137.83 79.9876 138.064 80.9913 137.609C82.344 136.996 83.9372 137.65 84.4564 139.031C84.8417 140.057 85.8461 140.722 86.949 140.682C88.4353 140.629 89.6547 141.838 89.6011 143.311C89.5613 144.404 90.2324 145.4 91.2666 145.782C92.6603 146.296 93.3202 147.875 92.7019 149.216C92.2431 150.211 92.4787 151.385 93.2867 152.13C94.3756 153.135 94.3756 154.844 93.2867 155.848C92.4787 156.593 92.2431 157.767 92.7019 158.762C93.3202 160.103 92.6603 161.682 91.2666 162.197C90.2324 162.579 89.5613 163.574 89.6011 164.668C89.6438 165.843 88.8767 166.849 87.8101 167.182C87.5396 167.266 87.2497 167.307 86.949 167.296C86.9377 167.296 86.9264 167.296 86.9151 167.295C86.0541 167.276 85.2567 167.685 84.7718 168.358L92.9321 184.523C93.5459 185.739 92.4565 187.115 91.119 186.813L85.6494 185.579L81.7993 190.328C80.9534 191.372 79.2668 190.995 78.9534 189.693L76.2496 178.459L73.5752 189.576C73.257 190.898 71.5302 191.258 70.7013 190.175L67.3115 185.745Z" fill="#088553"/>
<path d="M72.3874 159.125L80.2221 161.95L73.5758 189.576C73.2576 190.898 71.5308 191.258 70.7019 190.175L67.3121 185.745L61.2828 186.931C59.9581 187.191 58.9099 185.829 59.5142 184.631L72.3874 159.125Z" fill="#0AB16F"/>
<path d="M72.277 161.951L80.1114 159.125L92.9327 184.523C93.5465 185.739 92.4571 187.115 91.1196 186.813L85.65 185.578L81.7999 190.328C80.954 191.371 79.2674 190.995 78.9541 189.693L72.277 161.951Z" fill="#0AB16F"/>
<path d="M74.3481 137.024C75.3589 135.948 77.0794 135.948 78.0902 137.024C78.8403 137.824 80.0223 138.057 81.0238 137.603C82.3734 136.991 83.963 137.644 84.4811 139.022C84.8655 140.045 85.8676 140.709 86.968 140.669C88.451 140.616 89.6676 141.822 89.6141 143.292C89.5744 144.383 90.244 145.376 91.2758 145.757C92.6664 146.271 93.3248 147.846 92.7079 149.184C92.2501 150.177 92.4852 151.348 93.2914 152.092C94.3779 153.094 94.3779 154.799 93.2914 155.801C92.4852 156.544 92.2501 157.716 92.7079 158.709C93.3248 160.046 92.6664 161.622 91.2758 162.135C90.244 162.516 89.5744 163.51 89.6141 164.6C89.6676 166.07 88.451 167.276 86.968 167.223C85.8676 167.184 84.8655 167.848 84.4811 168.87C83.963 170.249 82.3734 170.901 81.0238 170.29C80.0223 169.836 78.8403 170.069 78.0902 170.868C77.0794 171.945 75.3589 171.945 74.3481 170.868C73.598 170.069 72.416 169.836 71.4145 170.29C70.0649 170.901 68.4753 170.249 67.9572 168.87C67.5728 167.848 66.5707 167.184 65.4703 167.223C63.9873 167.276 62.7707 166.07 62.8242 164.6C62.8639 163.51 62.1943 162.516 61.1625 162.135C59.7719 161.622 59.1135 160.046 59.7304 158.709C60.1882 157.716 59.953 156.544 59.1469 155.801C58.0604 154.799 58.0604 153.094 59.1469 152.092C59.953 151.348 60.1882 150.177 59.7304 149.184C59.1135 147.846 59.7719 146.271 61.1625 145.757C62.1943 145.376 62.8639 144.383 62.8242 143.292C62.7707 141.822 63.9873 140.616 65.4703 140.669C66.5707 140.709 67.5728 140.045 67.9572 139.022C68.4753 137.644 70.0649 136.991 71.4145 137.603C72.416 138.057 73.598 137.824 74.3481 137.024Z" fill="#3DE4A2"/>
<path d="M75.2097 145.584C75.8301 144.487 77.4223 144.487 78.0427 145.584L79.6849 148.486C79.9103 148.884 80.2957 149.169 80.7451 149.269L84.0273 150C85.223 150.267 85.7014 151.7 84.9021 152.621L82.6009 155.272C82.3118 155.605 82.1726 156.041 82.2156 156.478L82.5574 159.953C82.679 161.189 81.4039 162.09 80.2652 161.573L77.302 160.229C76.8729 160.035 76.3795 160.035 75.9504 160.229L72.9872 161.573C71.8485 162.09 70.5734 161.189 70.6949 159.953L71.0368 156.478C71.0798 156.041 70.9406 155.605 70.6515 155.272L68.3503 152.621C67.5509 151.7 68.0294 150.267 69.2251 150L72.5072 149.269C72.9567 149.169 73.3421 148.884 73.5674 148.486L75.2097 145.584Z" fill="#FFDF3F"/>
<path d="M125.344 159.254C127.281 159.254 128.889 158.498 130.09 157.278C130.225 157.142 130.206 157.007 130.09 156.891L128.734 155.438C128.618 155.302 128.463 155.302 128.327 155.418C127.514 156.096 126.545 156.542 125.344 156.542C122.962 156.542 121.16 154.741 121.16 152.281C121.16 149.821 122.962 148 125.344 148C126.545 148 127.514 148.445 128.327 149.123C128.463 149.239 128.618 149.239 128.734 149.104L130.09 147.651C130.206 147.515 130.225 147.38 130.09 147.244C128.889 146.043 127.281 145.288 125.344 145.288C121.47 145.288 118.352 148.31 118.352 152.281C118.352 156.251 121.47 159.254 125.344 159.254Z" fill="#171923"/>
<path d="M135.626 159.234C137.04 159.234 138.067 158.634 138.726 157.665L138.764 158.711C138.764 158.886 138.881 159.002 139.055 159.002H140.934C141.108 159.002 141.244 158.886 141.244 158.711V149.801C141.244 149.627 141.127 149.511 140.953 149.511H139.055C138.881 149.511 138.764 149.627 138.764 149.801L138.726 150.847C138.086 149.859 137.06 149.278 135.626 149.278C132.953 149.278 131.113 151.448 131.113 154.256C131.113 157.084 132.953 159.234 135.626 159.234ZM133.728 154.256C133.728 152.745 134.774 151.719 136.188 151.719C137.602 151.719 138.59 152.726 138.59 154.256C138.59 155.787 137.602 156.794 136.188 156.794C134.774 156.794 133.728 155.787 133.728 154.256Z" fill="#171923"/>
<path d="M143.843 159.002H145.954C146.129 159.002 146.245 158.886 146.245 158.711V145.443C146.245 145.269 146.129 145.152 145.954 145.152H143.843C143.669 145.152 143.552 145.269 143.552 145.443V158.711C143.552 158.886 143.669 159.002 143.843 159.002Z" fill="#171923"/>
<path d="M153.079 159.234C154.609 159.234 155.907 158.576 156.72 157.53C156.837 157.394 156.798 157.239 156.682 157.123L155.519 155.98C155.364 155.825 155.151 155.845 155.016 155.98C154.493 156.503 153.931 156.774 153.195 156.774C151.626 156.774 150.638 155.612 150.638 154.218C150.638 152.823 151.626 151.738 153.137 151.738C153.912 151.738 154.473 152.009 154.996 152.532C155.132 152.668 155.345 152.687 155.5 152.532L156.662 151.39C156.778 151.273 156.817 151.118 156.701 150.983C155.887 149.937 154.59 149.278 153.021 149.278C150.173 149.278 148.062 151.409 148.062 154.218C148.062 157.065 150.193 159.234 153.079 159.234Z" fill="#171923"/>
<path d="M162.019 159.234C163.433 159.234 164.344 158.537 164.886 157.569L164.963 158.692C164.983 158.924 165.08 159.002 165.254 159.002H167.249C167.423 159.002 167.559 158.886 167.559 158.711V149.801C167.559 149.627 167.423 149.511 167.249 149.511H165.176C165.002 149.511 164.886 149.627 164.886 149.801V154.721C164.886 156.058 164.15 156.774 163.026 156.774C161.884 156.774 161.264 156.058 161.264 154.721V149.801C161.264 149.627 161.147 149.511 160.973 149.511H158.881C158.707 149.511 158.591 149.627 158.591 149.801V155.322C158.591 157.801 160.024 159.234 162.019 159.234Z" fill="#171923"/>
<path d="M170.136 159.002H172.248C172.422 159.002 172.538 158.886 172.538 158.711V145.443C172.538 145.269 172.422 145.152 172.248 145.152H170.136C169.962 145.152 169.846 145.269 169.846 145.443V158.711C169.846 158.886 169.962 159.002 170.136 159.002Z" fill="#171923"/>
<path d="M178.268 159.234C179.682 159.234 180.592 158.537 181.135 157.569L181.212 158.692C181.232 158.924 181.329 159.002 181.503 159.002H183.498C183.672 159.002 183.808 158.886 183.808 158.711V149.801C183.808 149.627 183.672 149.511 183.498 149.511H181.425C181.251 149.511 181.135 149.627 181.135 149.801V154.721C181.135 156.058 180.399 156.774 179.275 156.774C178.132 156.774 177.513 156.058 177.513 154.721V149.801C177.513 149.627 177.396 149.511 177.222 149.511H175.13C174.956 149.511 174.84 149.627 174.84 149.801V155.322C174.84 157.801 176.273 159.234 178.268 159.234Z" fill="#171923"/>
<path d="M189.329 159.234C191.228 159.234 192.874 158.247 192.894 156.329C192.913 154.876 191.964 154.043 190.763 153.559L189.426 153.036C188.903 152.842 188.516 152.59 188.516 152.126C188.516 151.719 188.806 151.37 189.426 151.37C189.988 151.37 190.53 151.641 191.15 152.164C191.325 152.3 191.46 152.319 191.596 152.164L192.448 151.138C192.545 151.021 192.584 150.867 192.467 150.731C191.673 149.782 190.53 149.278 189.291 149.278C187.528 149.278 185.978 150.324 185.978 152.145C185.978 153.462 186.831 154.276 188.051 154.76L189.252 155.244C189.949 155.535 190.24 155.748 190.24 156.213C190.24 156.755 189.814 157.007 189.174 157.007C188.438 157.007 187.78 156.678 186.986 156.077C186.831 155.961 186.656 155.922 186.501 156.155L185.823 157.104C185.688 157.317 185.668 157.53 185.785 157.665C186.54 158.556 187.741 159.234 189.329 159.234Z" fill="#171923"/>
<rect x="119.055" y="175.301" width="158" height="13" rx="4" fill="#EDF2F7"/>
<rect x="118.352" y="175.254" width="119" height="13" rx="4" fill="#FFDF3F"/>
<path d="M293.823 184.602H294.975C295.095 184.602 295.15 184.537 295.183 184.438L298.058 177.131C298.102 177.01 298.047 176.923 297.937 176.923H293.219C293.121 176.923 293.055 176.988 293.055 177.087V178.042C293.055 178.14 293.121 178.206 293.219 178.206H296.225L293.702 184.405C293.647 184.537 293.724 184.602 293.823 184.602Z" fill="#4A5568"/>
<path d="M301.2 184.745C302.747 184.745 303.976 183.703 303.976 182.079C303.976 180.609 302.967 179.49 301.573 179.49C301.179 179.49 300.86 179.589 300.641 179.665L300.97 178.206H303.318C303.417 178.206 303.483 178.14 303.483 178.042V177.087C303.483 176.988 303.417 176.923 303.318 176.923H300.027C299.928 176.923 299.873 176.977 299.851 177.065L299.028 180.73C299.006 180.828 299.039 180.883 299.138 180.927L299.961 181.256C300.081 181.3 300.169 181.256 300.235 181.179C300.476 180.916 300.827 180.762 301.211 180.762C301.957 180.762 302.506 181.3 302.506 182.046C302.506 182.759 301.99 183.352 301.179 183.352C300.652 183.352 300.29 183.099 300.048 182.77C299.983 182.682 299.884 182.65 299.774 182.726L298.995 183.319C298.896 183.396 298.875 183.472 298.918 183.582C299.248 184.131 300.038 184.745 301.2 184.745Z" fill="#4A5568"/>
<path d="M306.401 179.852C307.246 179.852 307.904 179.205 307.904 178.36C307.904 177.515 307.246 176.868 306.401 176.868C305.556 176.868 304.898 177.515 304.898 178.36C304.898 179.205 305.556 179.852 306.401 179.852ZM305.633 183.9C305.578 183.988 305.589 184.065 305.688 184.131L306.258 184.515C306.346 184.581 306.423 184.559 306.478 184.471L311.053 177.625C311.108 177.537 311.097 177.46 310.998 177.394L310.427 177.01C310.34 176.944 310.263 176.966 310.208 177.054L305.633 183.9ZM305.896 178.36C305.896 178.064 306.116 177.844 306.401 177.844C306.686 177.844 306.905 178.064 306.905 178.36C306.905 178.656 306.686 178.875 306.401 178.875C306.116 178.875 305.896 178.656 305.896 178.36ZM308.782 183.165C308.782 184.01 309.44 184.657 310.285 184.657C311.129 184.657 311.788 184.01 311.788 183.165C311.788 182.32 311.129 181.673 310.285 181.673C309.44 181.673 308.782 182.32 308.782 183.165ZM309.78 183.165C309.78 182.869 309.999 182.65 310.285 182.65C310.57 182.65 310.789 182.869 310.789 183.165C310.789 183.461 310.57 183.681 310.285 183.681C309.999 183.681 309.78 183.461 309.78 183.165Z" fill="#4A5568"/>
<path d="M315.396 184.602H316.635C316.734 184.602 316.8 184.537 316.8 184.438V179.863L316.943 180.335L318.566 184.471C318.599 184.559 318.676 184.602 318.764 184.602H319.861C319.949 184.602 320.026 184.559 320.058 184.471L321.682 180.335L321.825 179.863V184.438C321.825 184.537 321.891 184.602 321.989 184.602H323.229C323.328 184.602 323.394 184.537 323.394 184.438V177.087C323.394 176.988 323.328 176.923 323.229 176.923H321.792C321.704 176.923 321.638 176.955 321.605 177.032L319.312 182.792L317.019 177.032C316.987 176.955 316.921 176.923 316.833 176.923H315.396C315.297 176.923 315.231 176.988 315.231 177.087V184.438C315.231 184.537 315.297 184.602 315.396 184.602Z" fill="#4A5568"/>
<path d="M327.078 184.734C327.879 184.734 328.461 184.394 328.834 183.845L328.856 184.438C328.856 184.537 328.922 184.602 329.02 184.602H330.084C330.183 184.602 330.26 184.537 330.26 184.438V179.391C330.26 179.292 330.194 179.227 330.095 179.227H329.02C328.922 179.227 328.856 179.292 328.856 179.391L328.834 179.984C328.472 179.424 327.89 179.095 327.078 179.095C325.564 179.095 324.522 180.324 324.522 181.914C324.522 183.516 325.564 184.734 327.078 184.734ZM326.003 181.914C326.003 181.059 326.596 180.477 327.397 180.477C328.197 180.477 328.757 181.048 328.757 181.914C328.757 182.781 328.197 183.352 327.397 183.352C326.596 183.352 326.003 182.781 326.003 181.914Z" fill="#4A5568"/>
<path d="M333.4 184.734C334.475 184.734 335.408 184.175 335.419 183.088C335.43 182.266 334.892 181.794 334.212 181.52L333.455 181.223C333.159 181.114 332.939 180.971 332.939 180.708C332.939 180.477 333.104 180.28 333.455 180.28C333.773 180.28 334.08 180.433 334.431 180.73C334.53 180.806 334.607 180.817 334.684 180.73L335.166 180.148C335.221 180.082 335.243 179.995 335.177 179.918C334.727 179.38 334.08 179.095 333.378 179.095C332.38 179.095 331.502 179.687 331.502 180.719C331.502 181.465 331.985 181.925 332.676 182.2L333.356 182.474C333.751 182.639 333.916 182.759 333.916 183.023C333.916 183.33 333.674 183.472 333.312 183.472C332.895 183.472 332.522 183.286 332.072 182.946C331.985 182.88 331.886 182.858 331.798 182.99L331.414 183.527C331.337 183.648 331.326 183.769 331.392 183.845C331.82 184.35 332.5 184.734 333.4 184.734Z" fill="#4A5568"/>
<path d="M338.421 184.668C338.783 184.668 339.332 184.602 339.332 184.35V183.549C339.332 183.44 339.255 183.385 339.134 183.396C339.003 183.407 338.893 183.407 338.794 183.407C338.509 183.407 338.323 183.253 338.323 182.935V180.4H339.167C339.266 180.4 339.332 180.335 339.332 180.236V179.391C339.332 179.292 339.266 179.227 339.167 179.227H338.323V177.965C338.323 177.866 338.257 177.8 338.158 177.8H336.962C336.863 177.8 336.798 177.866 336.798 177.965V179.227H336.117C336.019 179.227 335.953 179.292 335.953 179.391V180.236C335.953 180.335 336.019 180.4 336.117 180.4H336.798V183.099C336.798 184.273 337.566 184.668 338.421 184.668Z" fill="#4A5568"/>
<path d="M342.923 184.734C343.68 184.734 344.371 184.515 344.832 184.054C344.931 183.966 344.942 183.889 344.887 183.813L344.481 183.253C344.426 183.176 344.371 183.165 344.295 183.209C343.856 183.461 343.461 183.538 343.044 183.538C342.177 183.538 341.618 183.165 341.453 182.485H344.722C345.194 182.485 345.315 182.189 345.315 181.662C345.315 180.302 344.371 179.095 342.737 179.095C341.08 179.095 339.972 180.313 339.972 181.893C339.972 183.516 341.157 184.734 342.923 184.734ZM341.431 181.421C341.563 180.708 342.078 180.346 342.748 180.346C343.395 180.346 343.878 180.708 343.965 181.421H341.431Z" fill="#4A5568"/>
<path d="M346.496 184.602H347.681C347.78 184.602 347.846 184.537 347.846 184.438V181.75C347.846 180.982 348.241 180.488 348.987 180.488C349.14 180.488 349.261 180.51 349.382 180.543C349.524 180.576 349.601 180.543 349.601 180.411V179.446C349.601 179.347 349.579 179.281 349.503 179.227C349.415 179.161 349.261 179.095 349.009 179.095C348.372 179.095 348.032 179.523 347.846 180.093L347.802 179.402C347.791 179.27 347.736 179.227 347.637 179.227H346.496C346.398 179.227 346.332 179.292 346.332 179.391V184.438C346.332 184.537 346.398 184.602 346.496 184.602Z" fill="#4A5568"/>
<path d="M351.683 186.687H352.846C352.933 186.687 353.01 186.643 353.043 186.555L355.885 179.413C355.929 179.292 355.874 179.227 355.753 179.227H354.546C354.458 179.227 354.382 179.27 354.349 179.358L353.076 182.847L351.792 179.358C351.76 179.27 351.683 179.227 351.595 179.227H350.388C350.267 179.227 350.213 179.292 350.256 179.413L352.33 184.613L351.551 186.501C351.496 186.621 351.562 186.687 351.683 186.687Z" fill="#4A5568"/>
<rect x="32.2106" y="110.211" width="346.479" height="106.731" rx="2.01772" stroke="#CBD5E0" stroke-width="2.42126"/>
</svg>
