<svg width="164" height="102" viewBox="0 0 164 102" fill="none" xmlns="http://www.w3.org/2000/svg">
<path d="M134.508 35.3934L134.22 36.9142L135.749 37.1543C150.898 39.5336 162.5 52.7176 162.5 68.6354C162.5 86.2418 148.309 100.5 130.821 100.5H33.1792C15.691 100.5 1.5 86.2418 1.5 68.6354C1.5 51.0289 15.691 36.7707 33.1792 36.7707H33.1829H34.6599L34.6827 35.2939C34.9234 19.7402 47.5351 7.21963 63.0407 7.21963C69.9785 7.21963 76.332 9.72364 81.2617 13.8852L82.5153 14.9435L83.4574 13.6004C88.595 6.27573 97.0681 1.5 106.647 1.5C122.303 1.5 135.009 14.2646 135.009 30.028C135.009 31.8633 134.837 33.6565 134.508 35.3934Z" fill="#EDF2F7" stroke="#CBD5E0" stroke-width="3"/>
</svg>
