<svg width="206" height="148" viewBox="0 0 206 148" fill="none" xmlns="http://www.w3.org/2000/svg">
<path d="M164.207 51.4832L163.922 53.0002L165.446 53.2416C187.556 56.743 204.5 76.1469 204.5 99.5886C204.5 125.517 183.776 146.5 158.255 146.5H17.7457C-7.7758 146.5 -28.5 125.517 -28.5 99.5886C-28.5 73.6602 -7.7758 52.6771 17.7457 52.6771H17.751H19.2282L19.2509 51.2001C19.6029 28.2551 38.052 9.79908 60.7171 9.79908C70.8588 9.79908 80.1493 13.4905 87.3578 19.6263L88.6171 20.6982L89.5614 19.3407C97.0743 8.54063 109.464 1.5 123.468 1.5C146.353 1.5 164.94 20.3158 164.94 43.5701C164.94 46.2762 164.688 48.921 164.207 51.4832Z" fill="#EDF2F7" stroke="#CBD5E0" stroke-width="3"/>
</svg>
