<svg width="228" height="188" viewBox="0 0 228 188" fill="none" xmlns="http://www.w3.org/2000/svg">
<path d="M248.932 65.4704L248.644 66.9908L250.173 67.231C278.678 71.7121 300.5 96.5375 300.5 126.504C300.5 159.649 273.808 186.5 240.902 186.5H61.0983C28.1919 186.5 1.5 159.649 1.5 126.504C1.5 93.3602 28.1919 66.5088 61.0983 66.5088H61.1051H62.5821L62.605 65.032C63.0586 35.6798 86.8385 12.0421 116.087 12.0421C129.172 12.0421 141.158 16.7704 150.454 24.6256L151.708 25.6853L152.651 24.3406C162.337 10.5187 178.317 1.5 196.387 1.5C225.919 1.5 249.876 25.5985 249.876 55.3458C249.876 58.8077 249.552 62.1918 248.932 65.4704Z" fill="#EDF2F7" stroke="#CBD5E0" stroke-width="3"/>
</svg>
