<?xml version="1.0" encoding="UTF-8"?><svg id="a" xmlns="http://www.w3.org/2000/svg" viewBox="0 0 167.348 88.538"><defs><style>.b{fill:#002169;}</style></defs><path class="b" d="M66.526,28.246c-9.407,0-16.438,7.158-16.438,16.812,0,.05,.006,.099,.007,.148l-.002-.003c0,1.017-.164,1.783-.508,2.533-3.65,7.391-9.292,11.092-16.859,11.092-10.929,0-18.468-10.107-18.468-25.486,0-13.142,6.266-23.071,17.958-23.071,8.394,0,13.394,4.203,15.764,13.86h1.44V8.839h-1.354c-.513,1.08-1.358,1.609-2.629,1.609-2.884,0-7.46-2.143-13.557-2.143-14.493,0-25.079,11.979-25.079,28.259,0,17.077,12.199,25.485,23.887,25.485,9.054,0,16.576-4.813,19.953-12.551,1.81,7.254,8.005,12.281,15.885,12.281,9.404,0,16.435-7.153,16.435-16.722,0-9.654-7.031-16.812-16.435-16.812Zm0,31.745c-6.947,0-10.169-6.797-10.169-14.933,0-9.123,3.817-15.021,10.169-15.021,6.949,0,10.169,7.062,10.169,15.021,0,7.686-3.051,14.933-10.169,14.933Zm27.221-5.187V4.639h-1.441l-10.337,1.077v1.516h1.952c3.129,0,4.066,1.248,4.066,4.293V53.281c0,4.651-.936,5.99-3.983,5.99h-1.524v1.524h16.686v-1.524h-.759c-3.644,0-4.66-1.069-4.66-4.468Zm25.788-26.558c-3.647,0-7.539,1.791-10.083,4.738V4.639h-1.44l-9.656,1.077v1.516c4.829,0,5.332,.629,5.332,5.453V60.167c4.069,.715,6.863,.988,9.323,.988,15.416,0,20.417-9.93,20.417-17.438,0-8.678-6.095-15.471-13.893-15.471Zm-4.999,31.298c-4.152,0-5.083-1.967-5.083-6.172v-18.063c2.374-3.131,4.659-4.473,7.712-4.473,4.579,0,10,4.568,10,13.589,0,10.823-6.02,15.119-12.629,15.119Zm38.922-30.317v1.523c3.305,.176,3.563,2.234,2.378,5.992l-5.258,16.719-7.202-17.881c-1.104-2.687-.169-4.473,2.115-4.83v-1.523h-14.401v1.523c3.472,.086,4.579,1.07,6.097,4.74l10.767,26.198-3.902,11.441c-2.679,7.18-7.558,4.967-8.743,4.43l-.276,6.43c1.145,.363,.817,.363,2.056,.363,3.641,0,5.78-1.561,8.155-8.891l11.941-37.289c1.695-5.28,3.647-7.423,6.869-7.423v-1.523h-10.595Z"/></svg>