<?xml version="1.0" encoding="utf-8"?>
<!-- Generator: Adobe Illustrator 25.4.1, SVG Export Plug-In . SVG Version: 6.00 Build 0)  -->
<svg version="1.0"
	 id="svg10" xmlns:cc="http://creativecommons.org/ns#" xmlns:dc="http://purl.org/dc/elements/1.1/" xmlns:rdf="http://www.w3.org/1999/02/22-rdf-syntax-ns#" xmlns:svg="http://www.w3.org/2000/svg"
	 xmlns="http://www.w3.org/2000/svg" xmlns:xlink="http://www.w3.org/1999/xlink" x="0px" y="0px" viewBox="0 0 512 54.236"
	 enable-background="new 0 0 512 54.236" xml:space="preserve">
<path id="path78" fill="#00693E" d="M474.02,2.151V1.186h-14.02v0.965c2.003,1.187,2.893,2.597,2.893,8.236v33.536
	c0,5.638-0.89,7.048-2.893,8.236v0.964h14.02v-0.964c-2.003-1.187-2.893-2.597-2.893-8.236V29.454h29.746v14.469
	c0,5.638-0.89,7.048-2.893,8.236v0.964H512v-0.964c-2.003-1.187-2.893-2.597-2.893-8.236V10.387c0-5.638,0.89-7.048,2.893-8.236
	V1.186h-14.02v0.965c2.003,1.187,2.893,2.597,2.893,8.236v13.355h-29.746V10.387C471.127,4.748,472.016,3.338,474.02,2.151
	 M435.445,52.159c-2.226-1.261-3.264-2.746-3.264-8.607V6.826h6.305c8.087,0,9.644,1.186,11.796,3.857l0.963-0.296l-1.557-9.868
	c-3.042,0.371-7.047,0.667-12.092,0.667h-19.065c-5.044,0-9.05-0.296-12.091-0.667l-1.558,9.868l0.965,0.296
	c2.151-2.671,3.709-3.857,11.794-3.857h6.306v36.726c0,5.861-1.039,7.346-3.264,8.607v0.964h14.763V52.159z M383.965,2.151
	c2.151,1.261,3.264,2.745,3.264,8.607v22.183c0,9.497-5.119,14.765-14.095,14.765c-9.346,0-14.391-5.12-14.391-14.245V10.387
	c0-5.638,0.891-7.048,2.893-8.236V1.186h-14.02v0.965c2.003,1.187,2.893,2.597,2.893,8.236V33.98
	c0,12.762,7.938,20.256,21.513,20.256c13.502,0,21.512-7.568,21.512-21.295V10.758c0-5.862,1.114-7.346,3.264-8.607V1.186h-12.833
	V2.151z M311.785,0c-16.616,0-27.447,12.835-27.447,27.525c0,13.949,9.94,26.711,27.522,26.711
	c16.616,0,27.447-12.837,27.447-27.527C339.307,12.76,329.367,0,311.785,0 M312.528,48.523c-10.978,0-19.435-9.571-19.435-22.63
	c0-12.464,7.196-20.181,18.025-20.181c10.978,0,19.436,9.572,19.436,22.63C330.554,40.807,323.359,48.523,312.528,48.523
	 M224.918,52.159c-2.299-0.965-3.263-2.746-2.522-8.458l3.413-25.821l16.913,34.575h3.115l17.136-34.649l3.19,26.191
	c0.667,5.565-0.075,7.197-2.226,8.162v0.964h14.094v-0.964c-1.928-1.039-2.744-2.597-3.487-7.866l-5.933-43.701h-3.784
	l-19.361,39.991L226.106,0.592h-3.783l-6.157,43.404c-0.742,5.416-1.855,7.048-4.007,8.162v0.964h12.759L224.918,52.159z
	 M192.946,52.159c-2.226-1.261-3.264-2.746-3.264-8.607V6.826h6.306c8.085,0,9.644,1.186,11.795,3.857l0.965-0.296l-1.558-9.868
	c-3.04,0.371-7.047,0.667-12.091,0.667h-19.065c-5.044,0-9.05-0.296-12.092-0.667l-1.557,9.868l0.963,0.296
	c2.152-2.671,3.709-3.857,11.796-3.857h6.305v36.726c0,5.861-1.038,7.346-3.263,8.607v0.964h14.761V52.159z M128.036,52.159
	c-1.632-0.816-2.893-2.597-2.893-8.236V6.603h6.749c8.234,0,12.389,3.19,12.389,10.091c0,6.306-3.933,10.238-11.425,10.238h-4.896
	v0.742l2.299,4.675h2.226c2.448,0,3.19,0.815,6.825,5.712l9.273,12.465c1.485,2.002,2.523,2.596,4.451,2.596h9.124v-0.964
	c-1.928-0.742-3.412-1.855-6.973-6.456l-6.38-8.161c-3.412-4.303-5.266-6.456-7.492-7.346c7.641-2.004,11.572-7.419,11.572-13.949
	c0-9.571-6.38-15.061-20.177-15.061h-18.694v0.965c1.632,0.816,2.894,2.597,2.894,8.236v33.536c0,5.638-1.262,7.419-2.894,8.236
	v0.964h14.022V52.159z M100.665,45.109L80.561,0.592h-3.04L57.417,45.109c-2.003,4.378-3.042,6.011-5.267,7.05v0.964h13.353v-0.964
	c-2.671-1.039-3.56-2.671-1.187-8.088l2.746-6.306h21.365l2.744,6.306c2.373,5.417,1.557,7.05-0.816,8.088v0.964h15.207v-0.964
	C103.631,51.12,102.668,49.488,100.665,45.109 M69.434,32.423l8.309-18.994l8.308,18.994H69.434z M22.477,1.186H0v0.965
	c2.003,1.187,2.893,2.597,2.893,8.236v33.536c0,5.638-0.89,7.048-2.893,8.236v0.964h21.067c19.585,0,29.674-11.574,29.674-27.378
	C50.741,11.499,40.948,1.186,22.477,1.186 M20.475,47.484h-9.421V6.826h10.089c13.5,0,20.918,6.826,20.918,20.922
	C42.061,39.991,35.311,47.484,20.475,47.484"/>
</svg>
