<?xml version="1.0" encoding="utf-8"?>
<!-- Generator: Adobe Illustrator 19.0.0, SVG Export Plug-In . SVG Version: 6.00 Build 0)  -->
<svg version="1.1" id="Layer_1" xmlns="http://www.w3.org/2000/svg" xmlns:xlink="http://www.w3.org/1999/xlink" x="0px" y="0px"
	 viewBox="0 0 500 500" style="enable-background:new 0 0 500 500;" xml:space="preserve">
<style type="text/css">
	.st0{fill:#272F5B;}
</style>
<g id="XMLID_1_">
	<path id="XMLID_5_" class="st0" d="M100.8,269.1c0,12.7,11.4,18.3,23.2,18.3c14.1,0,47.8-11.8,47.8-48.5
		c0-37.1-33.3-53.6-55.8-53.6c-14.9,0-15.2,3.3-15.2,5.8V269.1z M90,291.7c-5.3,0-12,0.7-16.3,0.7c-0.9,0-3.3,0-3.3-1.8
		c0-1.5,1.3-3.1,6.7-4c4-0.7,8.2-1.3,8.2-11.8v-85.1c0-3.4-7.6-3.1-12.3-3.4c-4.2-0.4-5.4-0.4-5.4-2.4c0-3.1,4.9-3.1,7.1-3.1H91
		c8.9,0,17.4-1.1,29-1.1c38,0,68.8,18.8,68.8,62.5c0,27.2-25,49.4-56.2,49.4L90,291.7"/>
	<path id="XMLID_6_" class="st0" d="M205.7,269.3c0-11,0.4-27.9,0.4-38.6c0-2.5-3.1-2.9-5.3-3.4c-4.3-1.1-5.4-1.4-5.4-2.7
		c0-1.6,2-1.6,4.5-1.6s5.1,0.4,7.8,0.4c2.5,0,5.3-0.4,8-0.4c2.4,0,2.7,0.9,2.7,3.4c0,16.1-0.4,32.2-0.4,48.4
		c0,7.4,5.4,11.6,14.3,11.6c20.1,0,21.6-8.5,21.7-15.9c0-12.9,0.4-25.9,0.4-38.8c0-2.2-0.9-2.2-9.4-4.3c-1.5-0.4-5.3-1.4-5.3-2.9
		c0-1.1,2-1.4,4-1.4c3.1,0,6.2,0.4,9.2,0.4c3.6,0,7.1-0.4,10.7-0.4c1.3,0,3.8,0.5,3.8,3.8c0,18.3-0.7,36.6-0.7,54.9
		c0,3.8,3.1,4.3,4.7,4.3c7.1,0,9.4,0,9.4,1.8c0,1.4-0.9,1.8-3.6,2.2c-12.7,2-20.1,3.6-21.7,3.6c-1.5,0-1.5-1.3-1.5-2.9v-4.2
		c0-1.5-0.4-2.2-1.3-2.2c-2.9,0-10.7,10.7-25.4,10.7C210.5,295,205.7,284.7,205.7,269.3"/>
	<path id="XMLID_7_" class="st0" d="M298,188.7c0-9.6-8.9-6.5-8.9-10c0-1.3,1.3-1.6,3.8-2.5l12.3-4.7c0.9-0.4,2-0.4,3.1-0.4
		c0.9,0,2,0.5,2,3.3v74.4c0,2,0.4,2.9,1.6,2.9c1.8,0,29.5-16.3,29.5-19.6c0-4.7-6.9-4.7-6.9-7.4c0-0.9,1.4-1.8,2.5-1.8
		c3.8,0,9.2,0.4,13.9,0.4c4.5,0,10-0.4,13.6-0.4c1.6,0,3.4,0.4,3.4,2.2c0,2-6.3,3.3-8.9,4.3c-5.3,2.4-35,19.6-35,21.6
		c0,1.3,0.9,2,1.5,2.5l31.3,28.4c7.4,6.7,14.3,6.2,14.3,8.7c0,0.9-1.8,1.8-4.7,1.8c-3.8,0-8.5-0.7-13.9-0.7c-4.7,0-9.1,0.7-13.4,0.7
		c-3.8,0-5.4-0.2-5.4-1.8c0-1.6,2.2-2.2,5.3-2.5c1.8-0.2,3.4-1.3,3.4-2.5c0-0.9-0.9-1.8-2-2.9l-27.4-25.9c-0.5-0.5-1.3-1.1-1.6-1.1
		c-0.7,0-1.3,0.2-1.3,0.9v25.7c0,4,2.4,5.3,4,5.8c2.9,0.9,5.3,0.9,5.3,2.5c0,1.4-2.4,1.8-4.2,1.8c-4.3,0-8.2-0.7-12.1-0.7
		c-4.3,0-10,0.7-13,0.7c-1.1,0-4.3-0.2-4.3-1.8c0-1.6,1.4-2,3.3-2.5c5.1-1.5,8.9-0.9,8.9-8.5V188.7"/>
	<path id="XMLID_10_" class="st0" d="M420.5,235.4c0-6.2-5.8-11-13.4-11c-13,0-20.8,12.7-20.8,18.3c0,1.3,0.4,1.6,15.8,1.6
		C418,244.3,420.5,241.9,420.5,235.4z M384.7,249.7c-0.4,1.1-0.4,3.4-0.4,6.3c0,15.2,4.2,30.2,26.3,30.2c13.9,0,14.3-7.2,17.2-7.2
		c0.9,0,1.6,0.5,1.6,1.4c0,1.3-7.6,14.5-26.4,14.5c-19.9,0-31.3-14.1-31.3-36.8c0-17,10.5-38.2,33-38.2c20.8,0,27.9,17.8,27.9,25.5
		c0,3.3-0.5,4.2-3.6,4.2L384.7,249.7"/>
	<path id="XMLID_11_" class="st0" d="M82.7,308.2v13.1c0.1,3.7,2.2,5.9,5.6,5.9c3.3,0,5.5-2.2,5.6-5.9v-13.1h1.8v13.2
		c-0.1,4.4-2.5,7.6-7.4,7.6c-4.9,0-7.4-3.2-7.4-7.6v-13.2H82.7"/>
	<polyline id="XMLID_12_" class="st0" points="121.9,308.2 123.9,308.2 135.1,326 135.2,326 135.2,308.2 137,308.2 137,328.5 
		134.7,328.5 123.7,310.9 123.7,310.9 123.7,328.5 121.9,328.5 121.9,308.2 	"/>
	<rect id="XMLID_13_" x="163.4" y="308.1" class="st0" width="1.8" height="20.4"/>
	<polyline id="XMLID_14_" class="st0" points="197.9,326.7 198,326.7 204.4,308.2 206.2,308.2 198.9,328.5 196.8,328.5 189.4,308.2 
		191.4,308.2 197.9,326.7 	"/>
	<polyline id="XMLID_15_" class="st0" points="230.5,328.5 230.5,308.2 242.5,308.2 242.5,309.9 232.3,309.9 232.3,317.2 
		242.1,317.2 242.1,318.8 232.3,318.8 232.3,326.8 242.9,326.8 242.9,328.5 230.5,328.5 	"/>
	<path id="XMLID_18_" class="st0" d="M273.7,317.1c2.6,0,5.8-0.2,5.8-3.6c0-3.9-3.7-3.6-5.6-3.6h-4.1v7.3H273.7z M269.8,328.5H268
		v-20.3h6.6c1.8,0,3.2,0.1,4.8,1.1c1.4,0.8,2.1,2.3,2.1,4.2c0,2.2-1.5,3.8-3.9,4.4v0.1c2.6,0.4,3.1,2.2,3.4,4.5
		c0.4,3.3,0.3,4.8,1.1,6h-2.1c-0.5-1.3-0.6-2.8-0.7-4.2c-0.4-4.6-0.7-5.5-4.4-5.5h-5V328.5"/>
	<path id="XMLID_19_" class="st0" d="M312.2,328.9c-3.2,0-6-2.4-6-5.7h2c0.1,3.1,2.4,4,5.1,4c2.3,0,4.9-1.3,4.9-3.9
		c0-2-1.5-3-3.2-3.5c-3.3-1.1-8.3-2.1-8.3-6.5c0-3.5,3.3-5.5,6.5-5.5c2.7,0,6.2,0.9,6.6,4.8h-2c-0.1-2.5-2.3-3.1-4.4-3.1
		c-2.1,0-4.7,1.1-4.7,3.5c0,5.8,11.5,3.1,11.5,10.1C320.1,327.6,316.3,328.9,312.2,328.9"/>
	<rect id="XMLID_20_" x="345.5" y="308.1" class="st0" width="1.8" height="20.4"/>
	<polyline id="XMLID_21_" class="st0" points="378.2,309.9 371.6,309.9 371.6,308.2 386.5,308.2 386.5,309.9 380,309.9 380,328.5 
		378.2,328.5 378.2,309.9 	"/>
	<polyline id="XMLID_22_" class="st0" points="416.9,319.7 409.5,308.2 411.8,308.2 418,318 424.2,308.2 426.2,308.2 418.8,319.7 
		418.8,328.5 416.9,328.5 416.9,319.7 	"/>
</g>
</svg>
