<svg width="166" height="154" viewBox="0 0 166 154" fill="none" xmlns="http://www.w3.org/2000/svg">
<circle cx="83" cy="77" r="77" fill="#D4EFFE"/>
<rect x="51" y="117" width="90" height="20" rx="1" fill="white" stroke="#E2E8F0" stroke-width="2"/>
<rect x="35" y="8" width="122.923" height="29.2308" rx="3" fill="white" stroke="#E2E8F0" stroke-width="2"/>
<rect x="56" y="120" width="14" height="14" rx="2" fill="#0DDD8B"/>
<rect x="41.5381" y="12.3848" width="20.4615" height="20.4615" rx="3" fill="#7843E3"/>
<rect x="99" y="123" width="35" height="8" rx="1" fill="#EDF2F7"/>
<rect x="100.77" y="16.6924" width="47.3846" height="10.7692" rx="1" fill="#EDF2F7"/>
<rect x="1.5" y="44.2571" width="163" height="64.7465" rx="5.42" fill="white" stroke="#E2E8F0" stroke-width="3"/>
<path d="M67.8275 70.1763C67.8275 70.4324 67.9556 70.5604 68.2025 70.5604H68.6233C68.8703 70.5604 68.9983 70.4324 68.9983 70.1763V68.1369H70.1325L71.2759 70.2952C71.3765 70.4781 71.5137 70.5604 71.7241 70.5604H72.218C72.5199 70.5604 72.6388 70.3684 72.4833 70.1031L71.4131 68.146C71.2851 67.9082 71.2027 67.8076 71.2027 67.8076V67.7893C71.8796 67.515 72.2821 66.7833 72.2821 66.0151C72.2821 65.1372 71.8522 64.5153 71.1936 64.2409C70.9192 64.122 70.599 64.0671 69.9588 64.0671H68.2025C67.9556 64.0671 67.8275 64.2043 67.8275 64.4512V70.1763ZM68.9983 67.1126V65.0823H69.8673C70.2149 65.0823 70.4161 65.1189 70.5716 65.192C70.9283 65.3384 71.0838 65.6676 71.0838 66.0791C71.0838 66.7193 70.6905 67.1126 70.0594 67.1126H68.9983Z" fill="#2D3748"/>
<path d="M72.987 69.2709C72.987 70.1214 73.6822 70.6702 74.5329 70.6702C75.5573 70.6702 75.9964 69.7922 75.9964 69.7922H76.0147C76.0147 69.7922 75.9964 69.8654 75.9964 69.9934V70.1763C75.9964 70.4324 76.1244 70.5604 76.3714 70.5604H76.6824C76.9385 70.5604 77.0666 70.4324 77.0666 70.1763V67.643C77.0666 66.4633 76.344 65.7865 75.1366 65.7865C74.4414 65.7865 73.9109 66.0151 73.609 66.1706C73.3895 66.2895 73.3529 66.4724 73.4627 66.6827L73.5541 66.8565C73.6639 67.076 73.8377 67.1126 74.0664 67.012C74.2859 66.8931 74.6426 66.7468 75.0359 66.7468C75.5116 66.7468 75.9049 66.9571 75.9049 67.5699V67.6796H75.7128C74.6701 67.6796 72.987 67.9082 72.987 69.2709ZM74.1395 69.1703C74.1395 68.4753 75.1366 68.3838 75.722 68.3838H75.9141V68.5576C75.9141 69.1246 75.4933 69.7831 74.8439 69.7831C74.3774 69.7831 74.1395 69.4813 74.1395 69.1703Z" fill="#2D3748"/>
<path d="M78.352 68.8959C78.352 70.158 79.3399 70.6061 80.1722 70.6061C80.4924 70.6061 80.6479 70.4964 80.6479 70.222V69.9385C80.6479 69.6825 80.5473 69.591 80.2637 69.5636C79.9436 69.527 79.5137 69.3898 79.5137 68.6947V66.8839H80.1997C80.4375 66.8839 80.5747 66.7559 80.5747 66.4998V66.3444C80.5747 66.0974 80.4375 65.9603 80.1905 65.9603H79.5137V65.0091C79.5137 64.7622 79.3765 64.625 79.1295 64.625H78.7636C78.5166 64.625 78.3794 64.7622 78.3794 65.0091V65.9603H78.1142C77.8581 65.9603 77.73 66.0974 77.73 66.3444V66.4998C77.73 66.7559 77.8581 66.8839 78.105 66.8839H78.352V68.8959Z" fill="#2D3748"/>
<path d="M81.8028 65.1006H82.2052C82.4522 65.1006 82.5894 64.9725 82.5894 64.7256V64.4512C82.5894 64.2043 82.4522 64.0671 82.2052 64.0671H81.8028C81.5558 64.0671 81.4277 64.2043 81.4277 64.4512V64.7256C81.4277 64.9725 81.5558 65.1006 81.8028 65.1006ZM81.4277 70.1763C81.4277 70.4324 81.5558 70.5604 81.8028 70.5604H82.2052C82.4522 70.5604 82.5802 70.4324 82.5802 70.1763V66.2803C82.5802 66.0334 82.4522 65.8962 82.2052 65.8962H81.8028C81.5558 65.8962 81.4277 66.0334 81.4277 66.2803V70.1763Z" fill="#2D3748"/>
<path d="M83.4396 68.2283C83.4396 69.6642 84.583 70.6702 86.0008 70.6702C87.4185 70.6702 88.5711 69.6642 88.5711 68.2283C88.5711 66.8016 87.4185 65.7865 86.0008 65.7865C84.583 65.7865 83.4396 66.8016 83.4396 68.2283ZM84.6196 68.2283C84.6196 67.3687 85.2416 66.7742 86.0008 66.7742C86.76 66.7742 87.3911 67.3687 87.3911 68.2283C87.3911 69.0971 86.76 69.6825 86.0008 69.6825C85.2416 69.6825 84.6196 69.0971 84.6196 68.2283Z" fill="#2D3748"/>
<path d="M89.4224 70.1763C89.4224 70.4324 89.5504 70.5604 89.7974 70.5604H90.1999C90.4468 70.5604 90.5749 70.4324 90.5749 70.1763V68.3747C90.5749 67.5333 91.0963 66.8474 91.9195 66.8474C92.5049 66.8474 92.6512 67.2315 92.6512 67.7985V70.1763C92.6512 70.4324 92.7884 70.5604 93.0354 70.5604H93.4287C93.6848 70.5604 93.8129 70.4324 93.8129 70.1763V67.5607C93.8129 66.3261 93.2183 65.7865 92.1847 65.7865C91.2426 65.7865 90.7304 66.3809 90.5291 66.7742H90.5109C90.5109 66.7742 90.5291 66.6645 90.5291 66.5639V66.2803C90.5291 66.0334 90.4011 65.8962 90.1541 65.8962H89.7974C89.5504 65.8962 89.4224 66.0334 89.4224 66.2803V70.1763Z" fill="#2D3748"/>
<path d="M94.5413 69.2709C94.5413 70.1214 95.2365 70.6702 96.0871 70.6702C97.1116 70.6702 97.5506 69.7922 97.5506 69.7922H97.5689C97.5689 69.7922 97.5506 69.8654 97.5506 69.9934V70.1763C97.5506 70.4324 97.6787 70.5604 97.9257 70.5604H98.2367C98.4928 70.5604 98.6208 70.4324 98.6208 70.1763V67.643C98.6208 66.4633 97.8982 65.7865 96.6908 65.7865C95.9957 65.7865 95.4651 66.0151 95.1633 66.1706C94.9438 66.2895 94.9072 66.4724 95.0169 66.6827L95.1084 66.8565C95.2182 67.076 95.392 67.1126 95.6206 67.012C95.8402 66.8931 96.1969 66.7468 96.5902 66.7468C97.0658 66.7468 97.4592 66.9571 97.4592 67.5699V67.6796H97.2671C96.2243 67.6796 94.5413 67.9082 94.5413 69.2709ZM95.6938 69.1703C95.6938 68.4753 96.6908 68.3838 97.2762 68.3838H97.4683V68.5576C97.4683 69.1246 97.0476 69.7831 96.3981 69.7831C95.9316 69.7831 95.6938 69.4813 95.6938 69.1703Z" fill="#2D3748"/>
<path d="M99.6946 69.1063C99.6946 70.4415 100.49 70.6061 101.112 70.6061C101.387 70.6061 101.497 70.4507 101.497 70.2129V69.9019C101.497 69.6916 101.378 69.591 101.213 69.5727C101.039 69.5544 100.847 69.4721 100.847 69.0148V64.4512C100.847 64.2043 100.719 64.0671 100.472 64.0671H100.07C99.8226 64.0671 99.6946 64.2043 99.6946 64.4512V69.1063Z" fill="#2D3748"/>
<path d="M104.719 70.1763C104.719 70.4324 104.847 70.5604 105.094 70.5604H105.515C105.762 70.5604 105.89 70.4324 105.89 70.1763V67.9357H107.664C107.911 67.9357 108.048 67.7985 108.048 67.5516V67.2955C108.048 67.0486 107.911 66.9205 107.664 66.9205H105.89V65.0823H108.067C108.314 65.0823 108.451 64.9542 108.451 64.7073V64.4512C108.451 64.2043 108.314 64.0671 108.067 64.0671H105.094C104.847 64.0671 104.719 64.2043 104.719 64.4512V70.1763Z" fill="#2D3748"/>
<path d="M109.019 68.8959C109.019 70.1672 109.641 70.6702 110.638 70.6702C111.434 70.6702 112.037 70.1672 112.257 69.6916H112.275C112.275 69.6916 112.257 69.7922 112.257 69.9019V70.1763C112.257 70.4324 112.385 70.5604 112.632 70.5604H112.989C113.236 70.5604 113.373 70.4324 113.373 70.1763V66.2803C113.373 66.0334 113.236 65.8962 112.989 65.8962H112.595C112.339 65.8962 112.211 66.0334 112.211 66.2803V68.0363C112.211 68.8685 111.745 69.6093 110.903 69.6093C110.327 69.6093 110.181 69.2252 110.181 68.6582V66.2803C110.181 66.0334 110.053 65.8962 109.796 65.8962H109.403C109.156 65.8962 109.019 66.0334 109.019 66.2803V68.8959Z" fill="#2D3748"/>
<path d="M114.514 70.1763C114.514 70.4324 114.642 70.5604 114.889 70.5604H115.291C115.538 70.5604 115.666 70.4324 115.666 70.1763V68.3747C115.666 67.5333 116.188 66.8474 117.011 66.8474C117.596 66.8474 117.743 67.2315 117.743 67.7985V70.1763C117.743 70.4324 117.88 70.5604 118.127 70.5604H118.52C118.776 70.5604 118.904 70.4324 118.904 70.1763V67.5607C118.904 66.3261 118.31 65.7865 117.276 65.7865C116.334 65.7865 115.822 66.3809 115.621 66.7742H115.602C115.602 66.7742 115.621 66.6645 115.621 66.5639V66.2803C115.621 66.0334 115.493 65.8962 115.246 65.8962H114.889C114.642 65.8962 114.514 66.0334 114.514 66.2803V70.1763Z" fill="#2D3748"/>
<path d="M119.697 68.2283C119.697 69.5819 120.685 70.6702 122.231 70.6702C123.036 70.6702 123.603 70.3409 123.886 70.1306C124.069 70.0025 124.097 69.8196 123.987 69.6184L123.895 69.4447C123.776 69.2252 123.603 69.1977 123.374 69.3258C123.154 69.4813 122.789 69.6825 122.331 69.6825C121.435 69.6825 120.877 69.0057 120.877 68.2192C120.877 67.4235 121.435 66.7742 122.295 66.7742C122.697 66.7742 123.008 66.9297 123.2 67.0577C123.42 67.1675 123.575 67.1675 123.712 66.9571L123.831 66.7742C123.959 66.573 123.95 66.3809 123.758 66.2529C123.484 66.0609 122.981 65.7865 122.231 65.7865C120.685 65.7865 119.697 66.9022 119.697 68.2283Z" fill="#2D3748"/>
<path d="M125.096 68.8959C125.096 70.158 126.084 70.6061 126.916 70.6061C127.236 70.6061 127.392 70.4964 127.392 70.222V69.9385C127.392 69.6825 127.291 69.591 127.008 69.5636C126.688 69.527 126.258 69.3898 126.258 68.6947V66.8839H126.944C127.182 66.8839 127.319 66.7559 127.319 66.4998V66.3444C127.319 66.0974 127.182 65.9603 126.935 65.9603H126.258V65.0091C126.258 64.7622 126.121 64.625 125.874 64.625H125.508C125.261 64.625 125.124 64.7622 125.124 65.0091V65.9603H124.858C124.602 65.9603 124.474 66.0974 124.474 66.3444V66.4998C124.474 66.7559 124.602 66.8839 124.849 66.8839H125.096V68.8959Z" fill="#2D3748"/>
<path d="M128.547 65.1006H128.949C129.196 65.1006 129.333 64.9725 129.333 64.7256V64.4512C129.333 64.2043 129.196 64.0671 128.949 64.0671H128.547C128.3 64.0671 128.172 64.2043 128.172 64.4512V64.7256C128.172 64.9725 128.3 65.1006 128.547 65.1006ZM128.172 70.1763C128.172 70.4324 128.3 70.5604 128.547 70.5604H128.949C129.196 70.5604 129.324 70.4324 129.324 70.1763V66.2803C129.324 66.0334 129.196 65.8962 128.949 65.8962H128.547C128.3 65.8962 128.172 66.0334 128.172 66.2803V70.1763Z" fill="#2D3748"/>
<path d="M130.184 68.2283C130.184 69.6642 131.327 70.6702 132.745 70.6702C134.163 70.6702 135.315 69.6642 135.315 68.2283C135.315 66.8016 134.163 65.7865 132.745 65.7865C131.327 65.7865 130.184 66.8016 130.184 68.2283ZM131.364 68.2283C131.364 67.3687 131.986 66.7742 132.745 66.7742C133.504 66.7742 134.135 67.3687 134.135 68.2283C134.135 69.0971 133.504 69.6825 132.745 69.6825C131.986 69.6825 131.364 69.0971 131.364 68.2283Z" fill="#2D3748"/>
<path d="M136.166 70.1763C136.166 70.4324 136.295 70.5604 136.541 70.5604H136.944C137.191 70.5604 137.319 70.4324 137.319 70.1763V68.3747C137.319 67.5333 137.84 66.8474 138.664 66.8474C139.249 66.8474 139.395 67.2315 139.395 67.7985V70.1763C139.395 70.4324 139.533 70.5604 139.779 70.5604H140.173C140.429 70.5604 140.557 70.4324 140.557 70.1763V67.5607C140.557 66.3261 139.962 65.7865 138.929 65.7865C137.987 65.7865 137.474 66.3809 137.273 66.7742H137.255C137.255 66.7742 137.273 66.6645 137.273 66.5639V66.2803C137.273 66.0334 137.145 65.8962 136.898 65.8962H136.541C136.295 65.8962 136.166 66.0334 136.166 66.2803V70.1763Z" fill="#2D3748"/>
<path d="M141.532 70.1946C141.816 70.3867 142.337 70.6702 143.087 70.6702C144.167 70.6702 144.862 70.0574 144.862 69.2343C144.862 67.643 142.548 67.9448 142.548 67.1766C142.548 66.8839 142.776 66.7193 143.179 66.7193C143.563 66.7193 143.865 66.8565 144.066 66.948C144.295 67.0486 144.468 67.0211 144.578 66.8016L144.67 66.637C144.77 66.4267 144.743 66.2346 144.533 66.1249C144.286 65.9877 143.856 65.7865 143.234 65.7865C142.255 65.7865 141.45 66.2712 141.45 67.1857C141.45 68.7862 143.764 68.5027 143.764 69.2618C143.764 69.5544 143.517 69.7373 143.115 69.7373C142.639 69.7373 142.292 69.5361 142.072 69.4172C141.843 69.2983 141.688 69.3166 141.551 69.5087L141.441 69.6733C141.304 69.8745 141.322 70.0757 141.532 70.1946Z" fill="#2D3748"/>
<path d="M67.148 59.9651C67.0775 60.171 67.1751 60.3065 67.3919 60.3065H67.7497C67.9231 60.3065 68.0315 60.2252 68.0803 60.0572L68.2429 59.4935H69.4517L69.6143 60.0572C69.6685 60.2252 69.7769 60.3065 69.9504 60.3065H70.3081C70.5249 60.3065 70.6225 60.171 70.552 59.9651L69.43 56.6752C69.3758 56.5071 69.2674 56.4313 69.0939 56.4313H68.6061C68.4326 56.4313 68.3242 56.5071 68.27 56.6752L67.148 59.9651ZM68.4652 58.7347L68.6874 57.9814C68.7579 57.7375 68.8446 57.3147 68.8446 57.3147H68.8554C68.8554 57.3147 68.9422 57.7375 69.0126 57.9814L69.2294 58.7347H68.4652Z" fill="#A0AEC0"/>
<path d="M71.2149 60.0084C71.2149 60.2036 71.3179 60.3065 71.513 60.3065H73.4481C73.6433 60.3065 73.7462 60.2036 73.7462 60.0084V59.7916C73.7462 59.5965 73.6433 59.4935 73.4481 59.4935H72.1635V56.7294C72.1635 56.5342 72.0605 56.4313 71.8654 56.4313H71.513C71.3179 56.4313 71.2149 56.5342 71.2149 56.7294V60.0084Z" fill="#A0AEC0"/>
<path d="M74.0472 58.3933C74.0472 59.6128 74.9579 60.3716 75.9552 60.3716C76.6436 60.3716 76.9851 60.0084 76.9851 60.0084H76.9959C76.9959 60.0084 76.9905 60.0301 76.9905 60.0626V60.0735C76.9905 60.2036 77.0935 60.3065 77.2887 60.3065H77.4675C77.6627 60.3065 77.7656 60.2036 77.7656 60.0084V58.415C77.7656 58.2198 77.6627 58.1169 77.4675 58.1169H76.6761C76.481 58.1169 76.378 58.2198 76.378 58.415V58.6263C76.378 58.8215 76.481 58.9244 76.6761 58.9244H76.9255V59.19C76.9255 59.19 76.6816 59.5044 76.1287 59.5044C75.5379 59.5044 75.0283 59.0545 75.0283 58.3391C75.0283 57.7537 75.3698 57.2334 76.1449 57.2334C76.481 57.2334 76.687 57.331 76.8659 57.4231C77.0447 57.5152 77.1748 57.5044 77.2778 57.3418L77.4187 57.1196C77.5217 56.9516 77.5055 56.8269 77.3429 56.7077C77.1857 56.5939 76.7032 56.3662 76.0853 56.3662C74.8983 56.3662 74.0472 57.2117 74.0472 58.3933Z" fill="#A0AEC0"/>
<path d="M78.5776 60.0084C78.5776 60.2036 78.6806 60.3065 78.8757 60.3065H80.7837C80.9788 60.3065 81.0818 60.2036 81.0818 60.0084V59.7916C81.0818 59.5965 80.9788 59.4935 80.7837 59.4935H79.5261V58.7618H80.4097C80.6048 58.7618 80.7078 58.6589 80.7078 58.4637V58.2469C80.7078 58.0518 80.6048 57.9488 80.4097 57.9488H79.5261V57.2442H80.7078C80.9029 57.2442 81.0059 57.1413 81.0059 56.9461V56.7294C81.0059 56.5342 80.9029 56.4313 80.7078 56.4313H78.8757C78.6806 56.4313 78.5776 56.5342 78.5776 56.7294V60.0084Z" fill="#A0AEC0"/>
<path d="M81.8275 60.0084C81.8275 60.2036 81.9305 60.3065 82.1256 60.3065H83.253C84.0227 60.3065 84.7274 59.9976 84.7274 59.1521C84.7274 58.8106 84.5648 58.415 84.1203 58.2795V58.2686C84.413 58.1006 84.5702 57.77 84.5702 57.4448C84.5702 56.7781 84.0282 56.4313 83.253 56.4313H82.1256C81.9305 56.4313 81.8275 56.5342 81.8275 56.7294V60.0084ZM82.7761 57.9326V57.2442H83.2476C83.5024 57.2442 83.6054 57.396 83.6054 57.5749C83.6054 57.7591 83.5024 57.9326 83.2639 57.9326H82.7761ZM82.7761 59.4935V58.6914H83.3506C83.6271 58.6914 83.7571 58.8702 83.7571 59.087C83.7571 59.3038 83.6216 59.4935 83.3452 59.4935H82.7761Z" fill="#A0AEC0"/>
<path d="M85.4797 60.0084C85.4797 60.2036 85.5827 60.3065 85.7778 60.3065H86.1301C86.3253 60.3065 86.4283 60.2036 86.4283 60.0084V59.0003H86.8727L87.4473 60.0952C87.5286 60.2415 87.637 60.3065 87.7996 60.3065H88.2116C88.4447 60.3065 88.5368 60.1548 88.4176 59.9488L87.8647 58.9515C87.7725 58.7889 87.7183 58.7185 87.7183 58.7185V58.7076C88.1032 58.5125 88.2983 58.0627 88.2983 57.6507C88.2983 57.0871 88.0219 56.6914 87.5828 56.5234C87.4148 56.4584 87.2251 56.4313 86.8294 56.4313H85.7778C85.5827 56.4313 85.4797 56.5342 85.4797 56.7294V60.0084ZM86.4283 58.1873V57.2442H86.7481C86.9053 57.2442 87.0191 57.2605 87.1058 57.2984C87.2847 57.3689 87.3335 57.5152 87.3335 57.7104C87.3335 58.0193 87.1438 58.1873 86.8402 58.1873H86.4283Z" fill="#A0AEC0"/>
<path d="M88.8601 59.9651C88.7897 60.171 88.8872 60.3065 89.104 60.3065H89.4618C89.6352 60.3065 89.7436 60.2252 89.7924 60.0572L89.955 59.4935H91.1638L91.3264 60.0572C91.3806 60.2252 91.489 60.3065 91.6625 60.3065H92.0202C92.237 60.3065 92.3346 60.171 92.2641 59.9651L91.1421 56.6752C91.0879 56.5071 90.9795 56.4313 90.806 56.4313H90.3182C90.1448 56.4313 90.0363 56.5071 89.9821 56.6752L88.8601 59.9651ZM90.1773 58.7347L90.3995 57.9814C90.47 57.7375 90.5567 57.3147 90.5567 57.3147H90.5675C90.5675 57.3147 90.6543 57.7375 90.7247 57.9814L90.9416 58.7347H90.1773Z" fill="#A0AEC0"/>
<path d="M94.499 60.0084C94.499 60.2036 94.6019 60.3065 94.7971 60.3065H95.1494C95.3445 60.3065 95.4475 60.2036 95.4475 60.0084V56.7294C95.4475 56.5342 95.3445 56.4313 95.1494 56.4313H94.7971C94.6019 56.4313 94.499 56.5342 94.499 56.7294V60.0084Z" fill="#A0AEC0"/>
<path d="M96.4149 60.0084C96.4149 60.2036 96.5179 60.3065 96.7131 60.3065H97.0654C97.2605 60.3065 97.3635 60.2036 97.3635 60.0084V56.7294C97.3635 56.5342 97.2605 56.4313 97.0654 56.4313H96.7131C96.5179 56.4313 96.4149 56.5342 96.4149 56.7294V60.0084Z" fill="#A0AEC0"/>
<path d="M9.48584 56.3789C9.48584 54.468 11.0349 52.9189 12.9458 52.9189H54.4707C56.3816 52.9189 57.9307 54.468 57.9307 56.3789V97.8978C57.9307 99.8087 56.3816 101.358 54.4707 101.358H12.9458C11.0349 101.358 9.48584 99.8087 9.48584 97.8978V56.3789Z" fill="#2A84EE"/>
<path d="M41.8323 80.4496L44.2125 78.0696C44.3678 77.9661 44.4712 77.7592 44.4712 77.5005C44.4712 77.2935 44.3678 77.0866 44.2125 76.9314L43.0224 75.7414C42.8672 75.5862 42.6602 75.4827 42.4532 75.4827C42.1945 75.4827 41.9875 75.5862 41.884 75.7414L39.5037 78.1213L37.0717 75.7414C36.9683 75.5862 36.7613 75.4827 36.5026 75.4827C36.2956 75.4827 36.0886 75.5862 35.9334 75.7414L34.7432 76.9314C34.588 77.0866 34.5363 77.2935 34.5363 77.5005C34.5363 77.7592 34.588 77.9661 34.7432 78.0696L37.1235 80.4496L34.7432 82.8813C34.588 82.9847 34.5363 83.1917 34.5363 83.4504C34.5363 83.6573 34.588 83.8643 34.7432 84.0195L35.9334 85.2095C36.0886 85.3647 36.2956 85.4164 36.5026 85.4164C36.7613 85.4164 36.9683 85.3647 37.0717 85.2095L39.5037 82.8295L41.884 85.2095C41.9875 85.3647 42.1945 85.4164 42.4532 85.4164C42.6602 85.4164 42.8672 85.3647 43.0224 85.2095L44.2125 84.0195C44.3678 83.8643 44.4712 83.6573 44.4712 83.4504C44.4712 83.1917 44.3678 82.9847 44.2125 82.8813L41.8323 80.4496ZM27.9129 63.8933H25.4292C22.428 63.8933 20.0477 66.325 20.0477 69.2741V72.5853H17.9779C17.5122 72.5853 17.15 72.9992 17.15 73.4132V75.8966C17.15 76.3622 17.5122 76.7244 17.9779 76.7244H20.0477V83.3469C19.996 84.0712 19.4785 84.5886 18.8059 84.5886H17.9779C17.5122 84.5886 17.15 85.0025 17.15 85.4164V87.8999C17.15 88.3655 17.5122 88.7277 17.9779 88.7277H18.8059C21.7553 88.7277 24.1873 86.3477 24.1873 83.3469V76.7244H26.2571C26.6711 76.7244 27.085 76.3622 27.085 75.8966V73.4132C27.085 72.9992 26.6711 72.5853 26.2571 72.5853H24.1873V69.2741C24.1873 68.6015 24.7048 68.0841 25.4292 68.0324H27.9129C28.3269 68.0324 28.7408 67.6702 28.7408 67.2046V64.7211C28.7408 64.3072 28.3269 63.8933 27.9129 63.8933Z" fill="#35CEF2"/>
<path d="M34.4328 71.8093L33.1391 70.7228C32.7769 70.4123 32.2595 70.4641 31.949 70.878C29.931 73.5166 28.7408 76.8796 28.7408 80.4495C28.7408 84.0712 29.931 87.4342 31.949 90.0729C32.2595 90.4868 32.7769 90.4868 33.1391 90.2281L34.4328 89.1416C34.795 88.8311 34.795 88.3138 34.5363 87.9516C32.9839 85.8821 32.0525 83.2952 32.0525 80.5013C32.0525 77.6557 32.9839 75.0688 34.5363 72.9992C34.795 72.6371 34.795 72.1197 34.4328 71.8093ZM47.0067 70.878C46.6963 70.4641 46.1788 70.4123 45.8166 70.7228L44.523 71.8093C44.1608 72.1197 44.1608 72.6371 44.4195 72.9992C45.9718 75.0688 46.9032 77.6557 46.9032 80.4495C46.9032 83.2952 45.9718 85.8821 44.4195 87.9516C44.1608 88.3138 44.1608 88.8311 44.523 89.1416L45.8166 90.2281C46.1788 90.5385 46.6963 90.4868 47.0067 90.0729C49.0248 87.4342 50.2149 84.0712 50.2149 80.5013C50.2149 76.8796 49.0248 73.5166 47.0067 70.878Z" fill="#85F6FB"/>
<path d="M77.8566 85.1554C77.8566 85.3356 77.9789 85.4257 78.1463 85.4257H80.6566C80.8368 85.4257 80.927 85.3356 80.927 85.1554V84.9751C80.927 84.8014 80.8368 84.7113 80.6566 84.7113H78.7706C78.8093 83.8488 80.8561 83.5978 80.8561 82.1304C80.8561 81.268 80.1674 80.7788 79.3693 80.7788C78.6226 80.7788 78.1978 81.2036 77.9982 81.4675C77.9017 81.6026 77.9339 81.7249 78.069 81.8279L78.2428 81.9631C78.3716 82.0725 78.5003 82.0274 78.6226 81.9051C78.7385 81.7635 78.9702 81.564 79.2985 81.564C79.6847 81.564 79.9936 81.8021 79.9936 82.2012C79.9936 83.1087 77.8566 83.3726 77.8566 85.0202V85.1554Z" fill="#718096"/>
<path d="M81.5492 84.2479H83.4222V85.1554C83.4222 85.3356 83.5124 85.4257 83.6861 85.4257H83.9694C84.1496 85.4257 84.2397 85.3356 84.2397 85.1554V84.2479H84.613C84.7546 84.2479 84.8319 84.1578 84.8319 83.984V83.8231C84.8319 83.6493 84.7353 83.5592 84.5615 83.5592H84.2397V81.1264C84.2397 80.9526 84.1496 80.856 83.9694 80.856H83.4673C83.3193 80.856 83.2227 80.9075 83.1455 81.0298L81.3818 83.5914C81.311 83.6944 81.2852 83.7909 81.2852 83.9196V83.984C81.2852 84.1578 81.3754 84.2479 81.5492 84.2479ZM82.1606 83.5592V83.5463L83.2163 82.0853C83.3386 81.9116 83.4416 81.667 83.4416 81.667H83.4544C83.4544 81.667 83.4222 81.918 83.4222 82.1433V83.5592H82.1606Z" fill="#718096"/>
<path d="M87.2033 85.1554C87.2033 85.3356 87.2934 85.4257 87.4672 85.4257H89.733C89.9132 85.4257 90.0033 85.3356 90.0033 85.1554V84.9751C90.0033 84.8014 89.9132 84.7113 89.733 84.7113H88.0272V81.1264C88.0272 80.9526 87.9371 80.856 87.7633 80.856H87.4672C87.2934 80.856 87.2033 80.9526 87.2033 81.1264V85.1554Z" fill="#718096"/>
<path d="M90.1501 83.7845C90.1501 84.7177 90.826 85.5029 91.9138 85.5029C92.4287 85.5029 92.8149 85.3098 93.0274 85.1747C93.169 85.091 93.1947 84.9623 93.1175 84.8142L93.0402 84.6855C92.9566 84.5375 92.8407 84.5182 92.6798 84.5954C92.5253 84.692 92.2743 84.8078 91.9717 84.8078C91.4761 84.8078 91.0384 84.4989 90.9869 83.9068H92.9887C93.1497 83.9068 93.272 83.7716 93.272 83.63C93.272 82.7289 92.7506 82.066 91.8173 82.066C90.8324 82.066 90.1501 82.774 90.1501 83.7845ZM91.0062 83.4112C91.0835 82.9735 91.3796 82.6839 91.7979 82.6839C92.1713 82.6839 92.4481 82.9542 92.4609 83.4112H91.0062Z" fill="#718096"/>
<path d="M93.6124 84.5182C93.6124 85.1167 94.1016 85.5029 94.7003 85.5029C95.4212 85.5029 95.7301 84.885 95.7301 84.885H95.743C95.743 84.885 95.7301 84.9365 95.7301 85.0266V85.1554C95.7301 85.3356 95.8202 85.4257 95.994 85.4257H96.2129C96.3931 85.4257 96.4832 85.3356 96.4832 85.1554V83.3726C96.4832 82.5423 95.9747 82.066 95.1251 82.066C94.6359 82.066 94.2626 82.2269 94.0501 82.3363C93.8957 82.42 93.8699 82.5487 93.9472 82.6968L94.0115 82.8191C94.0888 82.9735 94.2111 82.9993 94.372 82.9285C94.5265 82.8448 94.7775 82.7418 95.0543 82.7418C95.389 82.7418 95.6658 82.8898 95.6658 83.3211V83.3983H95.5306C94.7968 83.3983 93.6124 83.5592 93.6124 84.5182ZM94.4235 84.4474C94.4235 83.9582 95.1251 83.8939 95.537 83.8939H95.6722V84.0162C95.6722 84.4152 95.3761 84.8786 94.9191 84.8786C94.5908 84.8786 94.4235 84.6662 94.4235 84.4474Z" fill="#718096"/>
<path d="M97.2453 85.1554C97.2453 85.3356 97.3354 85.4257 97.5092 85.4257H97.7924C97.9662 85.4257 98.0563 85.3356 98.0563 85.1554V84.0998C98.0563 83.5013 98.346 82.9092 98.9446 82.9092C99.1184 82.9092 99.2214 82.8126 99.2214 82.6388V82.3878C99.2214 82.2076 99.157 82.1175 98.9768 82.1175C98.5133 82.1175 98.1529 82.5552 98.0241 82.9478H98.0113C98.0113 82.9478 98.0306 82.8448 98.0306 82.7225V82.4136C98.0306 82.2398 97.934 82.1433 97.7602 82.1433H97.5092C97.3354 82.1433 97.2453 82.2398 97.2453 82.4136V85.1554Z" fill="#718096"/>
<path d="M99.6591 85.1554C99.6591 85.3356 99.7492 85.4257 99.923 85.4257H100.206C100.38 85.4257 100.47 85.3356 100.47 85.1554V83.8874C100.47 83.2953 100.837 82.8126 101.416 82.8126C101.828 82.8126 101.931 83.0829 101.931 83.482V85.1554C101.931 85.3356 102.028 85.4257 102.202 85.4257H102.478C102.659 85.4257 102.749 85.3356 102.749 85.1554V83.3146C102.749 82.4458 102.33 82.066 101.603 82.066C100.94 82.066 100.58 82.4844 100.438 82.7611H100.425C100.425 82.7611 100.438 82.6839 100.438 82.6131V82.4136C100.438 82.2398 100.348 82.1433 100.174 82.1433H99.923C99.7492 82.1433 99.6591 82.2398 99.6591 82.4136V85.1554Z" fill="#718096"/>
<path d="M103.313 83.7845C103.313 84.7177 103.989 85.5029 105.076 85.5029C105.591 85.5029 105.978 85.3098 106.19 85.1747C106.332 85.091 106.357 84.9623 106.28 84.8142L106.203 84.6855C106.119 84.5375 106.003 84.5182 105.842 84.5954C105.688 84.692 105.437 84.8078 105.134 84.8078C104.639 84.8078 104.201 84.4989 104.15 83.9068H106.151C106.312 83.9068 106.435 83.7716 106.435 83.63C106.435 82.7289 105.913 82.066 104.98 82.066C103.995 82.066 103.313 82.774 103.313 83.7845ZM104.169 83.4112C104.246 82.9735 104.542 82.6839 104.961 82.6839C105.334 82.6839 105.611 82.9542 105.624 83.4112H104.169Z" fill="#718096"/>
<path d="M107.026 85.1554C107.026 85.3356 107.116 85.4257 107.29 85.4257H107.573C107.747 85.4257 107.837 85.3356 107.837 85.1554V84.0998C107.837 83.5013 108.127 82.9092 108.725 82.9092C108.899 82.9092 109.002 82.8126 109.002 82.6388V82.3878C109.002 82.2076 108.938 82.1175 108.758 82.1175C108.294 82.1175 107.934 82.5552 107.805 82.9478H107.792C107.792 82.9478 107.811 82.8448 107.811 82.7225V82.4136C107.811 82.2398 107.715 82.1433 107.541 82.1433H107.29C107.116 82.1433 107.026 82.2398 107.026 82.4136V85.1554Z" fill="#718096"/>
<path d="M109.344 85.1682C109.543 85.3034 109.91 85.5029 110.438 85.5029C111.198 85.5029 111.687 85.0717 111.687 84.4924C111.687 83.3726 110.058 83.5849 110.058 83.0443C110.058 82.8384 110.219 82.7225 110.502 82.7225C110.773 82.7225 110.985 82.8191 111.127 82.8834C111.288 82.9542 111.41 82.9349 111.487 82.7804L111.552 82.6646C111.622 82.5166 111.603 82.3814 111.455 82.3042C111.281 82.2076 110.979 82.066 110.541 82.066C109.852 82.066 109.286 82.4071 109.286 83.0508C109.286 84.1771 110.914 83.9775 110.914 84.5117C110.914 84.7177 110.741 84.8464 110.457 84.8464C110.123 84.8464 109.878 84.7048 109.724 84.6212C109.563 84.5375 109.453 84.5504 109.357 84.6855L109.279 84.8014C109.183 84.943 109.196 85.0846 109.344 85.1682Z" fill="#718096"/>
<path d="M114.031 85.1554C114.031 85.3356 114.122 85.4257 114.295 85.4257H114.591C114.765 85.4257 114.855 85.3356 114.855 85.1554V82.7933C114.855 82.523 114.81 82.0853 114.81 82.0853H114.823C114.823 82.0853 115.036 82.523 115.203 82.7933L116.831 85.2455C116.902 85.3742 117.005 85.4257 117.147 85.4257H117.494C117.668 85.4257 117.765 85.3356 117.765 85.1554V81.1264C117.765 80.9526 117.668 80.856 117.494 80.856H117.205C117.031 80.856 116.934 80.9526 116.934 81.1264V83.4948C116.934 83.7652 116.979 84.2028 116.979 84.2028H116.967C116.967 84.2028 116.761 83.7652 116.587 83.4948L114.965 81.0363C114.894 80.9075 114.797 80.856 114.643 80.856H114.295C114.122 80.856 114.031 80.9526 114.031 81.1264V85.1554Z" fill="#718096"/>
<path d="M118.437 83.7845C118.437 84.7177 119.112 85.5029 120.2 85.5029C120.715 85.5029 121.101 85.3098 121.314 85.1747C121.455 85.091 121.481 84.9623 121.404 84.8142L121.327 84.6855C121.243 84.5375 121.127 84.5182 120.966 84.5954C120.812 84.692 120.561 84.8078 120.258 84.8078C119.763 84.8078 119.325 84.4989 119.273 83.9068H121.275C121.436 83.9068 121.558 83.7716 121.558 83.63C121.558 82.7289 121.037 82.066 120.104 82.066C119.119 82.066 118.437 82.774 118.437 83.7845ZM119.293 83.4112C119.37 82.9735 119.666 82.6839 120.084 82.6839C120.458 82.6839 120.734 82.9542 120.747 83.4112H119.293Z" fill="#718096"/>
<path d="M121.95 83.7845C121.95 84.7177 122.626 85.5029 123.714 85.5029C124.229 85.5029 124.615 85.3098 124.828 85.1747C124.969 85.091 124.995 84.9623 124.918 84.8142L124.84 84.6855C124.757 84.5375 124.641 84.5182 124.48 84.5954C124.326 84.692 124.074 84.8078 123.772 84.8078C123.276 84.8078 122.839 84.4989 122.787 83.9068H124.789C124.95 83.9068 125.072 83.7716 125.072 83.63C125.072 82.7289 124.551 82.066 123.617 82.066C122.633 82.066 121.95 82.774 121.95 83.7845ZM122.806 83.4112C122.884 82.9735 123.18 82.6839 123.598 82.6839C123.972 82.6839 124.248 82.9542 124.261 83.4112H122.806Z" fill="#718096"/>
<path d="M125.471 83.7845C125.471 84.8014 126.043 85.5029 126.932 85.5029C127.685 85.5029 127.962 84.9365 127.962 84.9365H127.975C127.975 84.9365 127.962 84.988 127.962 85.0524V85.1811C127.962 85.342 128.052 85.4257 128.226 85.4257H128.464C128.637 85.4257 128.728 85.3356 128.728 85.1554V81.1264C128.728 80.9526 128.637 80.856 128.464 80.856H128.18C128.007 80.856 127.917 80.9526 127.917 81.1264V82.3492C127.917 82.4522 127.929 82.5359 127.929 82.5359H127.917C127.917 82.5359 127.678 82.066 126.958 82.066C126.089 82.066 125.471 82.7418 125.471 83.7845ZM126.295 83.7845C126.295 83.1344 126.674 82.7676 127.118 82.7676C127.672 82.7676 127.936 83.2696 127.936 83.778C127.936 84.5053 127.537 84.8142 127.112 84.8142C126.629 84.8142 126.295 84.4088 126.295 83.7845Z" fill="#718096"/>
<path d="M131.274 85.1554C131.274 85.3356 131.364 85.4257 131.537 85.4257H131.834C132.007 85.4257 132.097 85.3356 132.097 85.1554V83.5077H134.189V85.1554C134.189 85.3356 134.28 85.4257 134.46 85.4257H134.749C134.923 85.4257 135.013 85.3356 135.013 85.1554V81.1264C135.013 80.9526 134.923 80.856 134.749 80.856H134.46C134.28 80.856 134.189 80.9526 134.189 81.1264V82.7933H132.097V81.1264C132.097 80.9526 132.007 80.856 131.834 80.856H131.537C131.364 80.856 131.274 80.9526 131.274 81.1264V85.1554Z" fill="#718096"/>
<path d="M135.691 83.7845C135.691 84.7177 136.367 85.5029 137.455 85.5029C137.97 85.5029 138.356 85.3098 138.569 85.1747C138.71 85.091 138.736 84.9623 138.659 84.8142L138.581 84.6855C138.498 84.5375 138.382 84.5182 138.221 84.5954C138.066 84.692 137.815 84.8078 137.513 84.8078C137.017 84.8078 136.58 84.4989 136.528 83.9068H138.53C138.691 83.9068 138.813 83.7716 138.813 83.63C138.813 82.7289 138.292 82.066 137.358 82.066C136.374 82.066 135.691 82.774 135.691 83.7845ZM136.547 83.4112C136.625 82.9735 136.921 82.6839 137.339 82.6839C137.712 82.6839 137.989 82.9542 138.002 83.4112H136.547Z" fill="#718096"/>
<path d="M139.398 84.4023C139.398 85.342 139.958 85.4579 140.396 85.4579C140.589 85.4579 140.666 85.3484 140.666 85.1811V84.9623C140.666 84.8142 140.583 84.7434 140.467 84.7306C140.344 84.7177 140.209 84.6598 140.209 84.338V81.1264C140.209 80.9526 140.119 80.856 139.945 80.856H139.662C139.488 80.856 139.398 80.9526 139.398 81.1264V84.4023Z" fill="#718096"/>
<path d="M141.202 86.4426C141.202 86.6228 141.299 86.7129 141.473 86.7129H141.75C141.93 86.7129 142.02 86.6228 142.02 86.4426V85.2841C142.02 85.1167 142.001 85.0009 142.001 85.0009H142.013C142.013 85.0009 142.277 85.5029 142.96 85.5029C143.822 85.5029 144.466 84.8271 144.466 83.7845C144.466 82.7676 143.893 82.066 143.005 82.066C142.239 82.066 141.949 82.6453 141.949 82.6453H141.936C141.936 82.6453 141.943 82.5874 141.943 82.5166V82.3685C141.943 82.2398 141.853 82.1433 141.679 82.1433H141.473C141.299 82.1433 141.202 82.2398 141.202 82.4136V86.4426ZM141.994 83.8038C141.994 83.0765 142.4 82.7676 142.824 82.7676C143.301 82.7676 143.635 83.173 143.635 83.7973C143.635 84.4474 143.262 84.8142 142.812 84.8142C142.277 84.8142 141.994 84.3122 141.994 83.8038Z" fill="#718096"/>
<path d="M145.448 84.1063H145.634C145.808 84.1063 145.905 84.0162 145.905 83.8424L145.956 81.1328C145.963 80.9526 145.866 80.856 145.692 80.856H145.39C145.216 80.856 145.126 80.9526 145.126 81.1328L145.177 83.8424C145.184 84.0162 145.28 84.1063 145.448 84.1063ZM145.152 85.1554C145.152 85.3356 145.242 85.4257 145.415 85.4257H145.673C145.847 85.4257 145.943 85.3356 145.943 85.1554V84.9301C145.943 84.7563 145.847 84.6598 145.673 84.6598H145.415C145.242 84.6598 145.152 84.7563 145.152 84.9301V85.1554Z" fill="#718096"/>
<path d="M73.5566 79.969C73.2073 79.9532 72.9214 80.2549 72.9214 80.6042V81.9856H72.7944V79.191C72.7944 78.8417 72.4927 78.54 72.1433 78.5559C71.7939 78.5559 71.524 78.8417 71.524 79.1751V81.9856H71.3969V78.5718C71.3969 78.2224 71.0952 77.9208 70.7459 77.9366C70.3965 77.9366 70.1265 78.2224 70.1265 78.5559V81.9856H69.9995V79.2069C69.9995 78.8576 69.6978 78.5559 69.3484 78.5718C68.999 78.5718 68.7291 78.8576 68.7291 79.191V82.9383L68.2209 82.2555C68.0145 81.9697 67.6175 81.9062 67.3316 82.1126C67.0458 82.319 66.9823 82.716 67.1887 83.0018L69.1896 85.7487C69.3166 85.9393 69.5548 86.0504 69.8089 86.0504H72.9373C73.2867 86.0504 73.6043 85.8122 73.6837 85.4629L74.0966 83.6846C74.1601 83.4623 74.176 83.2241 74.176 82.9859V80.5883C74.1918 80.2549 73.906 79.969 73.5566 79.969Z" fill="#FFBE17"/>
</svg>
