<svg width="201" height="155" viewBox="0 0 201 155" fill="none" xmlns="http://www.w3.org/2000/svg">
<circle cx="101" cy="77.2375" r="77" fill="#E6F6FF"/>
<rect x="15" y="25.9968" width="82.4307" height="49.3142" rx="1.95697" fill="#FFF299" stroke="#E2E8F0" stroke-width="2"/>
<rect x="101.914" y="25.9968" width="84.0862" height="49.3142" rx="1.95697" fill="#F7FAFC" stroke="#E2E8F0" stroke-width="2"/>
<rect x="15" y="78.9661" width="82.4307" height="49.3143" rx="1.95697" fill="#FF9892" stroke="#E2E8F0" stroke-width="2"/>
<rect x="101.914" y="78.9661" width="84.0862" height="49.3143" rx="1.95697" fill="#7EC2F9" stroke="#E2E8F0" stroke-width="2"/>
<path d="M45.1832 90.5932C39.8154 94.3343 42.7602 101.871 44.9036 105.172C49.004 107.556 58.435 111.059 63.3555 105.998C68.276 100.936 65.5921 94.1692 63.6351 91.4185C59.721 89.5846 50.551 86.8522 45.1832 90.5932Z" fill="#4A5568"/>
<path d="M38.2073 41.412C37.1011 43.7039 40.7885 52.0123 42.9087 55.4502C50.2834 55.8322 64.1728 55.4502 65.279 55.4502C66.6617 55.4502 70.2871 48.0949 70.2871 41.412C70.2871 38.2605 69.1809 35.1091 66.6919 32.5306C64.203 29.9522 55.3534 27.9467 50.3755 29.9521C46.1323 31.6615 43.4617 30.5252 40.9727 32.5306C38.4838 34.5361 39.5349 38.6617 38.2073 41.412Z" fill="#1A202C"/>
<path d="M139.818 58.9302H148.096L149.751 71.345H139.818V58.9302Z" fill="#B87C4E"/>
<path d="M67.8038 45.7738C67.8038 55.1918 63.1132 59.7582 54.008 59.7582C44.9027 59.7582 40.488 56.048 40.488 45.7738C40.488 38.0504 46.3887 34.9287 54.008 34.9287C61.6272 34.9287 67.8038 38.0504 67.8038 45.7738Z" fill="#5D4437"/>
<rect x="49.5933" y="55.6199" width="9.10535" height="10.7594" fill="#5D4437"/>
<path fill-rule="evenodd" clip-rule="evenodd" d="M64.4926 98.9884C64.4926 105.171 62.6523 111.331 58 113.534V116.253C61.0697 116.403 63.9925 116.61 66.1488 116.793C67.7124 118.598 70.8946 123.292 71.1154 127.625H38.833C38.833 124.584 39.5504 118.161 42.4199 116.793C43.5593 116.25 46.4763 116.048 50 116.038V113.602C45.4513 111.601 43.7988 106.006 43.7988 99.8436C43.7988 92.1289 46.3885 88.7256 54.0077 88.7256C61.627 88.7256 64.4926 91.2736 64.4926 98.9884Z" fill="#FFEAD1"/>
<path d="M70.8085 68.8881C68.3365 63.8009 63.2414 61.4131 58.477 61.4131C57.9165 61.4131 57.9165 65.7387 53.9928 65.7387C50.0691 65.7387 49.5086 62.2782 49.5086 61.4832C40.5072 61.9671 38.5783 70.0416 37.177 74.6555H72.7704C72.7704 73.8572 72.4901 72.3486 70.8085 68.8881Z" fill="#154CAB"/>
<path d="M43.3852 127.625H64.9067C64.6308 124.273 64.7687 120.288 66.1483 116.659C63.8174 115.123 61.0682 114.383 58.4226 114.383C57.8708 114.383 57.8708 118.601 54.008 118.601C50.1451 118.601 49.5933 115.226 49.5933 114.451C46.7327 114.603 43.7698 115.327 42.1436 116.659C44.075 121.131 43.6611 124.273 43.3852 127.625Z" fill="#7843E3"/>
<path d="M132.56 54.3581C128.718 50.9601 128.558 42.1818 129.625 39.0669L138.163 58.0393C137.451 58.3225 136.402 57.7562 132.56 54.3581Z" fill="#1A202C"/>
<path d="M153.699 55.3485C157.541 52.0983 157.701 43.7018 156.634 40.7224L148.096 58.8696C148.807 59.1405 149.857 58.5988 153.699 55.3485Z" fill="#1A202C"/>
<path d="M161.616 68.5779C159.182 63.4636 153.752 61.4133 148.51 61.4133C147.958 61.4133 149.337 68.5779 144.371 68.5779C139.404 68.5779 140.37 61.8272 139.818 61.8272C130.956 62.3136 127.954 68.3008 127.402 74.6558H162.995C162.995 73.8532 162.995 71.477 161.616 68.5779Z" fill="#4A5568"/>
<path fill-rule="evenodd" clip-rule="evenodd" d="M156.535 47.6927C156.003 40.7623 151.28 35.3428 144.029 35.3428C136.775 35.3428 131.804 40.7672 131.246 47.7021C131.084 47.6449 130.917 47.6335 130.757 47.6769C130.162 47.838 129.875 48.692 130.117 49.5844C130.359 50.4768 131.037 51.0696 131.632 50.9085C131.796 50.8641 131.937 50.7667 132.05 50.6303C132.255 51.025 132.458 51.4185 132.659 51.8096C135.602 57.518 138.266 62.6843 144.029 62.6843C149.66 62.6843 152.473 57.5202 155.7 50.8523C156.267 51.061 156.997 50.5576 157.341 49.7134C157.689 48.8572 157.509 47.9747 156.938 47.7422C156.811 47.6902 156.674 47.6751 156.535 47.6927Z" fill="#B87C4E"/>
<path d="M151.568 34.2997C146.654 29.7702 137.329 31.7519 134.258 34.5828C126.44 35.4321 129.139 42.6982 131.466 48.1713C132.861 47.322 133.671 47.0669 135.095 45.6234C137.049 43.6418 137.049 43.3587 137.887 41.377C139.841 42.7925 145.146 46.7558 151.847 47.322C157.226 47.7764 159.851 44.3967 161.34 41.094C156.314 41.094 156.482 38.8292 151.568 34.2997Z" fill="#1A202C"/>
<path d="M48.0409 89.1126C48.6043 87.2531 50.2378 83.4225 52.2657 82.9762C54.2936 82.53 53.4862 85.5796 52.8291 87.1601C53.9557 85.8585 56.4342 83.3668 57.3355 83.813C58.2368 84.2593 57.711 86.2304 57.3355 87.1601C58.4621 86.2304 60.8843 84.5382 61.5603 85.2077C62.2363 85.8771 60.9031 87.5321 60.152 88.2759C61.5603 87.532 64.4895 86.2676 64.9401 87.1601C65.3908 88.0527 64.1891 88.8337 63.5319 89.1126C65.3157 88.9267 68.2074 89.9494 67.7568 91.0651C67.1935 92.4597 65.2219 91.5788 64.9401 92.1808C64.5848 92.94 67.1934 97.4804 64.9401 95.8069C63.1376 94.468 61.9358 93.2035 61.5603 92.7387C62.0297 94.2263 62.4053 96.7552 60.152 94.9701C58.5134 93.6719 57.7685 92.8851 57.4841 92.4809C58.306 94.1728 59.2467 96.6525 57.3355 94.9701C55.989 93.7847 55.3958 93.1077 55.1767 92.7594C55.4371 93.6409 55.6847 94.9701 55.0823 94.9701C54.3393 94.9701 53.1608 93.8918 52.8871 93.2523C52.9836 94.0674 53.0702 96.2608 51.9841 94.9701C50.8575 93.6312 50.3881 92.5527 50.2942 92.1808C50.1064 93.3895 49.5619 95.6395 48.8859 94.9701C48.2099 94.3007 48.0409 92.8316 48.0409 92.1808C47.9471 93.2035 47.534 95.1374 46.6327 94.6912C45.7314 94.2449 45.6938 92.0878 45.7877 91.0651C44.8489 91.437 42.9713 91.9577 42.9713 91.0651C42.9713 90.1726 45.0368 89.5775 46.0695 89.3916C45.5061 87.9969 44.661 85.2077 45.7877 85.2077C46.9144 85.2077 47.7593 87.811 48.0409 89.1126Z" fill="#4A5568"/>
<path d="M139.983 84.8562C126.811 82.614 126.064 107.652 128.493 120.172C138.115 122.881 157.695 127.01 159.04 121.853C160.721 115.407 159.04 93.5449 154.836 87.659C151.473 82.9503 142.225 83.1745 139.983 84.8562Z" fill="#B87C4E"/>
<path d="M157.201 100.727C157.201 108.269 152.073 114.383 144.371 114.383C136.669 114.383 131.541 108.269 131.541 100.727C131.541 93.1844 136.669 87.0703 144.371 87.0703C152.073 87.0703 157.201 93.1844 157.201 100.727Z" fill="#EDBC89"/>
<rect x="139.818" y="111.072" width="8.27747" height="6.62109" fill="#EDBC89"/>
<path d="M133.354 117.732C127.097 119.217 127.139 124.233 126.574 127.625H162.167C161.32 120.276 156.517 118.58 155.105 117.732C153.693 116.884 139.365 116.305 133.354 117.732Z" fill="#EDBC89"/>
<path d="M134.08 121.518L127.402 127.625H160.512L154.391 121.518V117.157L151.052 116.866V121.518H137.14V116.866L134.08 117.157V121.518Z" fill="#1E66CC"/>
<path d="M137.288 93.2908L129.057 100.312C129.057 98.1519 129.332 92.7507 137.288 86.8093C138.995 85.5344 148.811 86.8093 151.28 86.8093C153.255 86.8093 155.761 91.3103 156.767 93.5608C156.95 95.0912 157.645 98.9621 156.767 98.9621C155.889 98.9621 152.56 94.9111 151.28 93.2908C151.28 94.9111 151.609 98.1519 150.731 98.1519C149.853 98.1519 147.073 94.9111 146.067 93.2908C146.067 94.461 146.616 97.0717 146.067 98.1519C145.454 99.3596 141.952 93.2908 141.678 93.2908C141.403 93.2908 137.699 98.9621 136.465 98.1519C135.806 97.7198 136.19 94.6411 137.288 93.2908Z" fill="#B87C4E"/>
<path d="M45.498 39.7245C44.6898 41.7584 41.69 43.7447 39.9254 45.0537C39.4611 44.7732 39.7027 41.2391 39.9256 38.3221C40.1485 35.4051 47.2626 33.7409 50.7918 33.2734L65.0014 34.1149L69.4593 45.3341C68.995 45.7081 68.3172 46.086 67.2305 44.7732C65.8376 43.0903 65.5588 41.1269 65.5588 39.7245C65.5588 38.3221 61.9367 36.3587 59.1504 36.9197C57.4225 37.2676 52.5197 36.1457 50.7918 35.7978C48.0057 35.2368 46.0552 38.3221 45.498 39.7245Z" fill="#1A202C"/>
<mask id="path-27-inside-1" fill="white">
<path fill-rule="evenodd" clip-rule="evenodd" d="M3 0C1.34315 0 0 1.34315 0 3V21.9968C0 23.6537 1.34315 24.9968 3 24.9968H18.6861L25.8957 37.4826C27.0505 39.4824 29.937 39.4825 31.0917 37.4826L38.3013 24.9968H52C53.6569 24.9968 55 23.6537 55 21.9968V3C55 1.34315 53.6569 0 52 0H3Z"/>
</mask>
<path fill-rule="evenodd" clip-rule="evenodd" d="M3 0C1.34315 0 0 1.34315 0 3V21.9968C0 23.6537 1.34315 24.9968 3 24.9968H18.6861L25.8957 37.4826C27.0505 39.4824 29.937 39.4825 31.0917 37.4826L38.3013 24.9968H52C53.6569 24.9968 55 23.6537 55 21.9968V3C55 1.34315 53.6569 0 52 0H3Z" fill="white"/>
<path d="M18.6861 24.9968L20.4181 23.9967L19.8408 22.9968H18.6861V24.9968ZM25.8957 37.4826L27.6277 36.4825V36.4825L25.8957 37.4826ZM31.0917 37.4826L32.8237 38.4827H32.8237L31.0917 37.4826ZM38.3013 24.9968V22.9968H37.1467L36.5693 23.9967L38.3013 24.9968ZM2 3C2 2.44772 2.44772 2 3 2V-2C0.238576 -2 -2 0.238578 -2 3H2ZM2 21.9968V3H-2V21.9968H2ZM3 22.9968C2.44772 22.9968 2 22.5491 2 21.9968H-2C-2 24.7583 0.238577 26.9968 3 26.9968V22.9968ZM18.6861 22.9968H3V26.9968H18.6861V22.9968ZM27.6277 36.4825L20.4181 23.9967L16.9541 25.9969L24.1637 38.4827L27.6277 36.4825ZM29.3597 36.4825C28.9748 37.1491 28.0126 37.1492 27.6277 36.4825L24.1637 38.4827C26.0883 41.8157 30.8991 41.8158 32.8237 38.4827L29.3597 36.4825ZM36.5693 23.9967L29.3597 36.4825L32.8237 38.4827L40.0333 25.9969L36.5693 23.9967ZM52 22.9968H38.3013V26.9968H52V22.9968ZM53 21.9968C53 22.5491 52.5523 22.9968 52 22.9968V26.9968C54.7614 26.9968 57 24.7582 57 21.9968H53ZM53 3V21.9968H57V3H53ZM52 2C52.5523 2 53 2.44772 53 3H57C57 0.238576 54.7614 -2 52 -2V2ZM3 2H52V-2H3V2Z" fill="#E2E8F0" mask="url(#path-27-inside-1)"/>
<circle cx="14.5" cy="12.7375" r="3.5" fill="#718096"/>
<circle cx="27.5" cy="12.7375" r="3.5" fill="#CBD5E0"/>
<circle cx="40.5" cy="12.7375" r="3.5" fill="#CBD5E0"/>
<mask id="path-32-inside-2" fill="white">
<path fill-rule="evenodd" clip-rule="evenodd" d="M149 58.9927C147.343 58.9927 146 60.3358 146 61.9927V80.9893C146 82.6461 147.343 83.9893 149 83.9893H164.686L171.896 96.4751C173.05 98.4749 175.937 98.4749 177.092 96.4751L184.301 83.9893H198C199.657 83.9893 201 82.6461 201 80.9893V61.9927C201 60.3358 199.657 58.9927 198 58.9927H149Z"/>
</mask>
<path fill-rule="evenodd" clip-rule="evenodd" d="M149 58.9927C147.343 58.9927 146 60.3358 146 61.9927V80.9893C146 82.6461 147.343 83.9893 149 83.9893H164.686L171.896 96.4751C173.05 98.4749 175.937 98.4749 177.092 96.4751L184.301 83.9893H198C199.657 83.9893 201 82.6461 201 80.9893V61.9927C201 60.3358 199.657 58.9927 198 58.9927H149Z" fill="white"/>
<path d="M164.686 83.9893L166.418 82.9892L165.841 81.9893H164.686V83.9893ZM171.896 96.4751L173.628 95.475V95.475L171.896 96.4751ZM177.092 96.4751L178.824 97.4752H178.824L177.092 96.4751ZM184.301 83.9893V81.9893H183.147L182.569 82.9892L184.301 83.9893ZM148 61.9927C148 61.4404 148.448 60.9927 149 60.9927V56.9927C146.239 56.9927 144 59.2313 144 61.9927H148ZM148 80.9893V61.9927H144V80.9893H148ZM149 81.9893C148.448 81.9893 148 81.5415 148 80.9893H144C144 83.7507 146.239 85.9893 149 85.9893V81.9893ZM164.686 81.9893H149V85.9893H164.686V81.9893ZM173.628 95.475L166.418 82.9892L162.954 84.9894L170.164 97.4752L173.628 95.475ZM175.36 95.475C174.975 96.1416 174.013 96.1416 173.628 95.475L170.164 97.4752C172.088 100.808 176.899 100.808 178.824 97.4752L175.36 95.475ZM182.569 82.9892L175.36 95.475L178.824 97.4752L186.033 84.9894L182.569 82.9892ZM198 81.9893H184.301V85.9893H198V81.9893ZM199 80.9893C199 81.5415 198.552 81.9893 198 81.9893V85.9893C200.761 85.9893 203 83.7507 203 80.9893H199ZM199 61.9927V80.9893H203V61.9927H199ZM198 60.9927C198.552 60.9927 199 61.4404 199 61.9927H203C203 59.2313 200.761 56.9927 198 56.9927V60.9927ZM149 60.9927H198V56.9927H149V60.9927Z" fill="#E2E8F0" mask="url(#path-32-inside-2)"/>
<circle cx="160.5" cy="71.7375" r="3.5" fill="#CBD5E0"/>
<circle cx="173.5" cy="71.7375" r="3.5" fill="#718096"/>
<circle cx="186.5" cy="71.7375" r="3.5" fill="#CBD5E0"/>
</svg>
