<svg width="154" height="162" viewBox="0 0 154 162" fill="none" xmlns="http://www.w3.org/2000/svg">
<circle cx="77" cy="84.2366" r="77" fill="#E6F6FF"/>
<path d="M83.796 152.192C121.422 147.858 148.409 113.845 144.073 76.2219C139.736 38.5991 105.719 11.614 68.0928 15.9487C30.4668 20.2833 3.47982 54.2963 7.81613 91.9191C12.1524 129.542 46.1699 156.527 83.796 152.192Z" fill="#7EC2F9" stroke="#5DAAF4" stroke-width="3"/>
<mask id="path-3-outside-1" maskUnits="userSpaceOnUse" x="13.3962" y="92.6826" width="96.1653" height="68.9095" fill="black">
<rect fill="white" x="13.3962" y="92.6826" width="96.1653" height="68.9095"/>
<path fill-rule="evenodd" clip-rule="evenodd" d="M105.026 144.502C98.4731 147.655 91.2912 149.786 83.661 150.67C56.4806 153.816 31.2167 140.241 18.1587 118.098C18.8495 117.708 19.7182 117.454 20.615 117.192C21.8951 116.818 23.2326 116.428 24.1921 115.601C25.2423 114.695 26.3332 112.772 27.4535 110.797C28.7837 108.452 30.1554 106.034 31.5495 105.16C35.0639 102.957 38.9046 102.449 43.258 104.987C45.724 106.426 47.8643 112.862 45.9084 116.685C44.9249 119.367 46.2714 121.063 47.3807 121.994C49.8268 124.048 51.8 122.852 54.3437 121.31C56.2298 120.166 58.4296 118.833 61.3685 118.493C65.5957 118.004 69.0513 123.663 69.4314 125.315C70.0689 128.086 71.8564 131.283 74.5218 132.534C78.8362 134.559 83.2534 133.85 87.7226 133.134C88.9378 132.939 90.1569 132.743 91.3787 132.602C94.8691 132.198 98.4065 133.246 101.016 135.312C102.204 136.253 103.457 137.77 104.163 139.658C104.843 141.475 105.001 143.101 105.026 144.502Z"/>
</mask>
<path fill-rule="evenodd" clip-rule="evenodd" d="M105.026 144.502C98.4731 147.655 91.2912 149.786 83.661 150.67C56.4806 153.816 31.2167 140.241 18.1587 118.098C18.8495 117.708 19.7182 117.454 20.615 117.192C21.8951 116.818 23.2326 116.428 24.1921 115.601C25.2423 114.695 26.3332 112.772 27.4535 110.797C28.7837 108.452 30.1554 106.034 31.5495 105.16C35.0639 102.957 38.9046 102.449 43.258 104.987C45.724 106.426 47.8643 112.862 45.9084 116.685C44.9249 119.367 46.2714 121.063 47.3807 121.994C49.8268 124.048 51.8 122.852 54.3437 121.31C56.2298 120.166 58.4296 118.833 61.3685 118.493C65.5957 118.004 69.0513 123.663 69.4314 125.315C70.0689 128.086 71.8564 131.283 74.5218 132.534C78.8362 134.559 83.2534 133.85 87.7226 133.134C88.9378 132.939 90.1569 132.743 91.3787 132.602C94.8691 132.198 98.4065 133.246 101.016 135.312C102.204 136.253 103.457 137.77 104.163 139.658C104.843 141.475 105.001 143.101 105.026 144.502Z" fill="#9EF1D1"/>
<path d="M105.026 144.502L106.327 147.206C107.383 146.698 108.047 145.621 108.026 144.449L105.026 144.502ZM83.661 150.67L83.3157 147.69L83.661 150.67ZM18.1587 118.098L16.6842 115.485C15.9827 115.881 15.4698 116.542 15.2611 117.32C15.0524 118.098 15.1654 118.927 15.5746 119.621L18.1587 118.098ZM20.615 117.192L19.7737 114.313L19.7737 114.313L20.615 117.192ZM24.1921 115.601L22.2331 113.328L22.2331 113.328L24.1921 115.601ZM27.4535 110.797L30.063 112.277L30.063 112.277L27.4535 110.797ZM31.5495 105.16L29.9558 102.618L29.9558 102.618L31.5495 105.16ZM43.258 104.987L41.7468 107.579L41.7468 107.579L43.258 104.987ZM45.9084 116.685L43.2377 115.318C43.1823 115.426 43.1336 115.538 43.0918 115.652L45.9084 116.685ZM47.3807 121.994L49.3095 119.697L49.3095 119.697L47.3807 121.994ZM54.3437 121.31L52.7882 118.744L52.7882 118.744L54.3437 121.31ZM61.3685 118.493L61.0235 115.513L61.3685 118.493ZM69.4314 125.315L66.5078 125.988L69.4314 125.315ZM74.5218 132.534L75.7962 129.818L75.7962 129.818L74.5218 132.534ZM87.7226 133.134L87.2473 130.171L87.2473 130.171L87.7226 133.134ZM91.3787 132.602L91.0337 129.622L91.0337 129.622L91.3787 132.602ZM101.016 135.312L102.879 132.961L102.879 132.961L101.016 135.312ZM104.163 139.658L106.973 138.607L104.163 139.658ZM103.725 141.799C97.4691 144.809 90.6098 146.845 83.3157 147.69L84.0062 153.65C91.9725 152.728 99.477 150.501 106.327 147.206L103.725 141.799ZM83.3157 147.69C57.3561 150.694 33.2201 137.732 20.7429 116.574L15.5746 119.621C29.2133 142.749 55.6051 156.937 84.0062 153.65L83.3157 147.69ZM19.7737 114.313C18.9692 114.548 17.7364 114.891 16.6842 115.485L19.6332 120.71C19.9626 120.524 20.4672 120.361 21.4562 120.072L19.7737 114.313ZM22.2331 113.328C21.8589 113.651 21.2091 113.893 19.7737 114.313L21.4562 120.072C22.5811 119.743 24.6062 119.205 26.1511 117.873L22.2331 113.328ZM24.844 109.317C24.2729 110.324 23.765 111.217 23.2777 111.97C22.7656 112.762 22.4196 113.168 22.2331 113.328L26.1511 117.873C27.0149 117.128 27.7394 116.12 28.3154 115.23C28.9161 114.301 29.5138 113.246 30.063 112.277L24.844 109.317ZM29.9558 102.618C28.6956 103.408 27.713 104.684 26.9953 105.742C26.231 106.868 25.4942 108.171 24.844 109.317L30.063 112.277C30.743 111.079 31.3572 110 31.9599 109.112C32.6091 108.155 33.0094 107.786 33.1433 107.702L29.9558 102.618ZM44.7692 102.396C42.1675 100.879 39.5548 100.185 36.9577 100.298C34.3786 100.411 32.0418 101.31 29.9558 102.618L33.1433 107.702C34.5716 106.806 35.9123 106.35 37.2205 106.292C38.5107 106.236 39.995 106.557 41.7468 107.579L44.7692 102.396ZM48.5792 118.052C50.0281 115.22 49.8377 111.81 49.1419 109.176C48.7799 107.805 48.2409 106.481 47.5631 105.346C46.9147 104.261 45.9987 103.113 44.7692 102.396L41.7468 107.579C41.7263 107.567 41.7966 107.605 41.9362 107.76C42.0712 107.909 42.2354 108.127 42.4119 108.422C42.7679 109.018 43.1041 109.812 43.3409 110.708C43.8428 112.608 43.7446 114.327 43.2377 115.318L48.5792 118.052ZM49.3095 119.697C48.9592 119.403 48.7425 119.124 48.6429 118.877C48.5772 118.714 48.4799 118.387 48.7251 117.718L43.0918 115.652C42.3534 117.666 42.4375 119.528 43.0766 121.116C43.6817 122.62 44.6929 123.655 45.4519 124.292L49.3095 119.697ZM52.7882 118.744C52.1303 119.143 51.6268 119.447 51.161 119.685C50.7019 119.919 50.4048 120.023 50.2074 120.065C50.0426 120.099 49.9704 120.087 49.9199 120.073C49.856 120.056 49.657 119.989 49.3095 119.697L45.4519 124.292C47.3234 125.863 49.3539 126.376 51.4438 125.936C53.1656 125.574 54.7658 124.562 55.8991 123.875L52.7882 118.744ZM61.0235 115.513C57.3594 115.936 54.6502 117.615 52.7882 118.744L55.8991 123.875C57.8094 122.717 59.4998 121.729 61.7135 121.473L61.0235 115.513ZM72.3551 124.643C72.1593 123.792 71.6956 122.821 71.1927 121.965C70.6542 121.048 69.9299 120.023 69.0473 119.067C67.4034 117.285 64.594 115.1 61.0235 115.513L61.7135 121.473C62.3703 121.397 63.4022 121.796 64.638 123.135C65.1952 123.739 65.6703 124.409 66.0187 125.002C66.4028 125.656 66.5135 126.012 66.5078 125.988L72.3551 124.643ZM75.7962 129.818C74.3114 129.121 72.8902 126.969 72.3551 124.643L66.5078 125.988C67.2475 129.203 69.4015 133.444 73.2474 135.249L75.7962 129.818ZM87.2473 130.171C82.6284 130.912 79.1447 131.39 75.7962 129.818L73.2474 135.249C78.5277 137.728 83.8783 136.788 88.198 136.096L87.2473 130.171ZM91.0337 129.622C89.7356 129.772 88.4515 129.978 87.2473 130.171L88.1979 136.096C89.4241 135.899 90.5781 135.714 91.7237 135.582L91.0337 129.622ZM102.879 132.961C99.6473 130.402 95.3164 129.126 91.0337 129.622L91.7237 135.582C94.4219 135.27 97.1658 136.09 99.1537 137.664L102.879 132.961ZM106.973 138.607C106.055 136.153 104.447 134.202 102.879 132.961L99.1537 137.664C99.9608 138.303 100.859 139.387 101.353 140.709L106.973 138.607ZM108.026 144.449C107.997 142.846 107.813 140.852 106.973 138.607L101.353 140.709C101.873 142.098 102.005 143.356 102.027 144.556L108.026 144.449Z" fill="#0DDD8B" mask="url(#path-3-outside-1)"/>
<mask id="path-5-outside-2" maskUnits="userSpaceOnUse" x="1.21469" y="10.6128" width="106.521" height="65.199" fill="black">
<rect fill="white" x="1.21469" y="10.6128" width="106.521" height="65.199"/>
<path fill-rule="evenodd" clip-rule="evenodd" d="M15.7218 64.1854C17.0419 62.691 18.4697 61.0747 20.4806 59.4349C20.542 59.3847 20.6026 59.3353 20.6624 59.2865C23.5536 56.9273 24.5545 56.1106 28.6197 56.3936C32.88 56.6903 37.6772 58.1333 40.3944 61.5816C41.0718 62.4412 41.3939 63.4609 41.7142 64.4746C41.9888 65.3438 42.262 66.2086 42.7565 66.9645C43.577 68.2186 46.3662 66.9663 47.4495 66.4799C47.514 66.4509 47.5725 66.4246 47.6241 66.4018C50.6874 65.0467 52.4565 62.1455 54.1338 59.3949C54.1694 59.3366 54.2049 59.2784 54.2404 59.2202C55.6193 56.9604 56.0517 56.7947 58.7564 56.4821C59.5291 56.3927 60.3098 56.2522 61.089 56.112C63.8621 55.6128 66.6165 55.1171 68.9239 56.944C70.411 58.1215 70.9668 58.8021 71.914 60.3194C72.2681 60.8865 72.7353 61.3286 73.1948 61.7632C73.5657 62.1141 73.9315 62.4602 74.2284 62.8633C74.8323 63.6832 77.3389 64.178 78.2663 64.2819C80.9232 64.5793 83.607 63.5043 85.5292 61.8215C85.7286 61.647 85.9582 61.4358 86.2104 61.2039C87.4955 60.0223 89.3664 58.3019 90.8126 58.1347C91.2613 58.0828 91.7186 58.0416 92.1791 58.0001C93.7305 57.8603 95.3184 57.7172 96.7405 57.1518C99.0029 56.2522 99.8128 55.0275 100.61 52.8346C101.302 50.9293 97.8008 49.8524 96.5889 49.5618C95.8066 49.3742 94.8564 49.2151 93.827 49.0427C89.2704 48.2795 83.1625 47.2565 83.2068 42.3602C83.2337 39.3853 85.4273 36.8564 87.3406 34.6507C87.6544 34.289 87.9606 33.9359 88.2485 33.591C89.4173 32.191 90.9683 31.2543 92.5201 30.3173C93.4218 29.7728 94.3237 29.2282 95.151 28.5924C97.889 26.4884 98.9413 23.8019 98.845 21.0449C89.357 17.5882 78.9411 16.2301 68.2275 17.47C39.3285 20.8146 16.8609 42.0673 10.624 68.8622C12.7136 67.5909 14.1405 65.9756 15.7218 64.1854Z"/>
</mask>
<path fill-rule="evenodd" clip-rule="evenodd" d="M15.7218 64.1854C17.0419 62.691 18.4697 61.0747 20.4806 59.4349C20.542 59.3847 20.6026 59.3353 20.6624 59.2865C23.5536 56.9273 24.5545 56.1106 28.6197 56.3936C32.88 56.6903 37.6772 58.1333 40.3944 61.5816C41.0718 62.4412 41.3939 63.4609 41.7142 64.4746C41.9888 65.3438 42.262 66.2086 42.7565 66.9645C43.577 68.2186 46.3662 66.9663 47.4495 66.4799C47.514 66.4509 47.5725 66.4246 47.6241 66.4018C50.6874 65.0467 52.4565 62.1455 54.1338 59.3949C54.1694 59.3366 54.2049 59.2784 54.2404 59.2202C55.6193 56.9604 56.0517 56.7947 58.7564 56.4821C59.5291 56.3927 60.3098 56.2522 61.089 56.112C63.8621 55.6128 66.6165 55.1171 68.9239 56.944C70.411 58.1215 70.9668 58.8021 71.914 60.3194C72.2681 60.8865 72.7353 61.3286 73.1948 61.7632C73.5657 62.1141 73.9315 62.4602 74.2284 62.8633C74.8323 63.6832 77.3389 64.178 78.2663 64.2819C80.9232 64.5793 83.607 63.5043 85.5292 61.8215C85.7286 61.647 85.9582 61.4358 86.2104 61.2039C87.4955 60.0223 89.3664 58.3019 90.8126 58.1347C91.2613 58.0828 91.7186 58.0416 92.1791 58.0001C93.7305 57.8603 95.3184 57.7172 96.7405 57.1518C99.0029 56.2522 99.8128 55.0275 100.61 52.8346C101.302 50.9293 97.8008 49.8524 96.5889 49.5618C95.8066 49.3742 94.8564 49.2151 93.827 49.0427C89.2704 48.2795 83.1625 47.2565 83.2068 42.3602C83.2337 39.3853 85.4273 36.8564 87.3406 34.6507C87.6544 34.289 87.9606 33.9359 88.2485 33.591C89.4173 32.191 90.9683 31.2543 92.5201 30.3173C93.4218 29.7728 94.3237 29.2282 95.151 28.5924C97.889 26.4884 98.9413 23.8019 98.845 21.0449C89.357 17.5882 78.9411 16.2301 68.2275 17.47C39.3285 20.8146 16.8609 42.0673 10.624 68.8622C12.7136 67.5909 14.1405 65.9756 15.7218 64.1854Z" fill="#9EF1D1"/>
<path d="M20.4806 59.4349L18.5844 57.1099L18.5844 57.1099L20.4806 59.4349ZM15.7218 64.1854L17.9704 66.1716L17.9704 66.1716L15.7218 64.1854ZM20.6624 59.2865L22.5592 61.6109L22.5593 61.6109L20.6624 59.2865ZM28.6197 56.3936L28.8278 53.4009L28.8278 53.4009L28.6197 56.3936ZM40.3944 61.5816L38.0381 63.4381L38.0381 63.4381L40.3944 61.5816ZM41.7142 64.4746L44.5749 63.5712L41.7142 64.4746ZM42.7565 66.9645L45.267 65.3223L45.267 65.3223L42.7565 66.9645ZM47.4495 66.4799L48.6786 69.2166L48.6787 69.2166L47.4495 66.4799ZM47.6241 66.4018L46.4101 63.6583L46.4101 63.6583L47.6241 66.4018ZM54.1338 59.3949L56.6953 60.957L56.6953 60.957L54.1338 59.3949ZM54.2404 59.2202L51.6793 57.6575L51.6793 57.6575L54.2404 59.2202ZM58.7564 56.4821L58.4116 53.502L58.4115 53.502L58.7564 56.4821ZM61.089 56.112L61.6208 59.0645L61.6208 59.0645L61.089 56.112ZM68.9239 56.944L67.0617 59.2958L67.0617 59.2959L68.9239 56.944ZM71.914 60.3194L74.4588 58.731L74.4588 58.731L71.914 60.3194ZM73.1948 61.7632L75.2564 59.5841L75.2564 59.5841L73.1948 61.7632ZM74.2284 62.8633L76.6439 61.0844L76.6438 61.0843L74.2284 62.8633ZM78.2663 64.2819L77.9328 67.2632L77.9328 67.2632L78.2663 64.2819ZM85.5292 61.8215L87.5055 64.0788L87.5055 64.0788L85.5292 61.8215ZM86.2104 61.2039L84.1796 58.9956L84.1796 58.9956L86.2104 61.2039ZM90.8126 58.1347L91.1574 61.1148L91.1574 61.1148L90.8126 58.1347ZM92.1791 58.0001L92.4487 60.988L92.4487 60.988L92.1791 58.0001ZM96.7405 57.1518L97.8492 59.9394L97.8492 59.9394L96.7405 57.1518ZM100.61 52.8346L97.7904 51.8094L97.7904 51.8094L100.61 52.8346ZM96.5889 49.5618L95.8897 52.4791L95.8897 52.4791L96.5889 49.5618ZM93.827 49.0427L93.3318 52.0014L93.3318 52.0014L93.827 49.0427ZM83.2068 42.3602L86.2067 42.3876L86.2067 42.3876L83.2068 42.3602ZM87.3406 34.6507L85.0742 32.6848L85.0742 32.6848L87.3406 34.6507ZM88.2485 33.591L90.5517 35.5136L90.5517 35.5136L88.2485 33.591ZM92.5201 30.3173L94.0712 32.8854L92.5201 30.3173ZM95.151 28.5924L93.3228 26.2136L93.3228 26.2136L95.151 28.5924ZM98.845 21.0449L101.843 20.9405C101.801 19.7186 101.021 18.6448 99.8717 18.2262L98.845 21.0449ZM68.2275 17.47L67.8823 14.49L68.2275 17.47ZM10.624 68.8622L7.70202 68.1818C7.4282 69.3582 7.88664 70.5842 8.86522 71.2924C9.8438 72.0006 11.1516 72.0529 12.1835 71.4251L10.624 68.8622ZM18.5844 57.1099C16.3631 58.9212 14.792 60.7063 13.4732 62.1992L17.9704 66.1716C19.2918 64.6757 20.5762 63.2281 22.3767 61.7598L18.5844 57.1099ZM18.7655 56.9621C18.7057 57.011 18.6454 57.0601 18.5844 57.1099L22.3767 61.7599C22.4386 61.7094 22.4995 61.6597 22.5592 61.6109L18.7655 56.9621ZM28.8278 53.4009C26.6006 53.2458 24.7952 53.3559 23.0527 54.0775C21.4407 54.745 20.1044 55.8696 18.7655 56.9621L22.5593 61.6109C24.1116 60.3442 24.7214 59.8808 25.3489 59.6209C25.846 59.4151 26.5736 59.2584 28.4116 59.3864L28.8278 53.4009ZM42.7507 59.725C39.2578 55.2922 33.4159 53.7205 28.8278 53.4009L28.4116 59.3864C32.3441 59.6602 36.0966 60.9743 38.0381 63.4381L42.7507 59.725ZM44.5749 63.5712C44.2815 62.6427 43.8221 61.0846 42.7507 59.725L38.0381 63.4381C38.3215 63.7978 38.5063 64.279 38.8535 65.3781L44.5749 63.5712ZM45.267 65.3223C45.0365 64.97 44.8718 64.5111 44.5749 63.5712L38.8535 65.3781C39.1058 66.1765 39.4875 67.4472 40.2461 68.6067L45.267 65.3223ZM46.2204 63.7431C45.645 64.0014 44.9336 64.3115 44.3257 64.4526C44.0146 64.5249 43.955 64.4963 44.0712 64.5115C44.1489 64.5216 44.3392 64.5568 44.5759 64.6848C44.8307 64.8225 45.0805 65.0372 45.267 65.3223L40.2461 68.6067C41.0759 69.875 42.3374 70.336 43.296 70.461C44.1998 70.5789 45.0591 70.442 45.6832 70.2971C46.9458 70.004 48.1707 69.4447 48.6786 69.2166L46.2204 63.7431ZM46.4101 63.6583C46.3493 63.6852 46.2827 63.7151 46.2203 63.7431L48.6787 69.2166C48.7453 69.1867 48.7956 69.1641 48.8381 69.1453L46.4101 63.6583ZM51.5724 57.8329C49.7933 60.7504 48.4697 62.7472 46.4101 63.6583L48.8381 69.1453C52.9051 67.3462 55.1198 63.5406 56.6953 60.957L51.5724 57.8329ZM51.6793 57.6575C51.6436 57.7161 51.6079 57.7746 51.5723 57.8329L56.6953 60.957C56.7308 60.8986 56.7662 60.8407 56.8014 60.7829L51.6793 57.6575ZM58.4115 53.502C57.2181 53.6399 55.7497 53.79 54.4826 54.5335C53.1359 55.3238 52.3443 56.5677 51.6793 57.6575L56.8014 60.783C57.5154 59.6128 57.6293 59.6441 57.5198 59.7084C57.4615 59.7425 57.4794 59.7116 57.7325 59.6574C58.015 59.5969 58.4137 59.5417 59.1013 59.4622L58.4115 53.502ZM60.5573 53.1595C59.7611 53.3028 59.0742 53.4253 58.4116 53.502L59.1013 59.4622C59.9839 59.3601 60.8584 59.2017 61.6208 59.0645L60.5573 53.1595ZM70.786 54.5921C67.2468 51.7898 63.0413 52.7123 60.5573 53.1595L61.6208 59.0645C64.6829 58.5133 65.9862 58.4443 67.0617 59.2958L70.786 54.5921ZM74.4588 58.731C73.3544 56.9617 72.5773 56.0104 70.786 54.5921L67.0617 59.2959C68.2448 60.2326 68.5793 60.6425 69.3692 61.9078L74.4588 58.731ZM75.2564 59.5841C74.7576 59.1122 74.5774 58.921 74.4588 58.731L69.3692 61.9078C69.9587 62.8521 70.7131 63.545 71.1331 63.9424L75.2564 59.5841ZM76.6438 61.0843C76.1609 60.4287 75.5926 59.9022 75.2564 59.5841L71.1331 63.9424C71.5388 64.3261 71.702 64.4916 71.8129 64.6422L76.6438 61.0843ZM78.5998 61.3005C78.2935 61.2662 77.6061 61.1484 76.9676 60.9617C76.6499 60.8688 76.4265 60.7824 76.2999 60.7206C76.2396 60.6911 76.244 60.6878 76.2892 60.7203C76.3264 60.7471 76.4785 60.8599 76.6439 61.0844L71.8129 64.6422C72.4 65.4393 73.2007 65.8839 73.6674 66.1119C74.2096 66.3767 74.7841 66.5742 75.2844 66.7205C76.2821 67.0122 77.3116 67.1936 77.9328 67.2632L78.5998 61.3005ZM83.5529 59.5643C82.1354 60.8053 80.2623 61.4867 78.5998 61.3005L77.9328 67.2632C81.584 67.672 85.0786 66.2034 87.5055 64.0788L83.5529 59.5643ZM84.1796 58.9956C83.9191 59.2351 83.719 59.4189 83.5529 59.5643L87.5055 64.0788C87.7383 63.875 87.9974 63.6365 88.2412 63.4123L84.1796 58.9956ZM90.4677 55.1546C88.9019 55.3356 87.5245 56.2424 86.6664 56.8773C85.7074 57.5869 84.8025 58.4228 84.1796 58.9956L88.2412 63.4123C88.9034 62.8033 89.5765 62.1883 90.2357 61.7005C90.5594 61.461 90.8239 61.2948 91.0265 61.1915C91.2451 61.0801 91.2774 61.101 91.1574 61.1148L90.4677 55.1546ZM91.9094 55.0123C91.4558 55.0532 90.9605 55.0976 90.4677 55.1546L91.1574 61.1148C91.5622 61.068 91.9814 61.0301 92.4487 60.988L91.9094 55.0123ZM95.6317 54.3641C94.6858 54.7402 93.5483 54.8646 91.9094 55.0123L92.4487 60.988C93.9127 60.856 95.9511 60.6942 97.8492 59.9394L95.6317 54.3641ZM97.7904 51.8094C97.4288 52.8043 97.1718 53.2591 96.9324 53.5426C96.7369 53.7742 96.4188 54.0511 95.6317 54.3641L97.8492 59.9394C99.3246 59.3528 100.543 58.5676 101.517 57.4137C102.447 56.3118 102.994 55.0578 103.43 53.8597L97.7904 51.8094ZM95.8897 52.4791C96.1115 52.5323 96.4567 52.6263 96.8307 52.7578C97.2146 52.8929 97.5577 53.0426 97.8121 53.1897C98.1073 53.3604 98.0684 53.404 97.9508 53.2282C97.8741 53.1136 97.7635 52.9016 97.7188 52.6033C97.6722 52.2925 97.7163 52.0132 97.7904 51.8094L103.43 53.8597C103.971 52.3691 103.647 50.9519 102.938 49.8924C102.32 48.9697 101.46 48.3687 100.815 47.9957C99.4994 47.235 97.9887 46.8125 97.288 46.6445L95.8897 52.4791ZM93.3318 52.0014C94.3939 52.1793 95.2302 52.3209 95.8897 52.4791L97.288 46.6445C96.3831 46.4276 95.319 46.2509 94.3223 46.0839L93.3318 52.0014ZM80.2068 42.3327C80.1896 44.2429 80.7924 45.8979 81.8648 47.2373C82.8914 48.5196 84.2371 49.3775 85.5366 49.9761C88.0622 51.1394 91.1551 51.6369 93.3318 52.0014L94.3223 46.0839C91.9423 45.6853 89.7029 45.2896 88.0465 44.5266C87.255 44.162 86.7972 43.7984 86.5486 43.4879C86.3458 43.2346 86.2018 42.9255 86.2067 42.3876L80.2068 42.3327ZM85.0742 32.6848C84.1466 33.7543 82.9541 35.1189 82.0142 36.6397C81.0609 38.1822 80.2271 40.0996 80.2068 42.3327L86.2067 42.3876C86.2134 41.6459 86.4898 40.8114 87.1184 39.7943C87.7603 38.7556 88.6213 37.7529 89.607 36.6166L85.0742 32.6848ZM85.9454 31.6684C85.6789 31.9876 85.3918 32.3188 85.0742 32.6848L89.607 36.6166C89.917 36.2591 90.2424 35.8842 90.5517 35.5136L85.9454 31.6684ZM90.9691 27.7492C89.4925 28.6408 87.4895 29.8186 85.9454 31.6684L90.5517 35.5136C91.345 34.5633 92.4441 33.8679 94.0712 32.8854L90.9691 27.7492ZM93.3228 26.2136C92.6513 26.7297 91.896 27.1895 90.9691 27.7492L94.0712 32.8854C94.9476 32.3561 95.9961 31.7267 96.9792 30.9712L93.3228 26.2136ZM95.8468 21.1493C95.9103 22.9656 95.2712 24.7164 93.3228 26.2136L96.9792 30.9712C100.507 28.2604 101.972 24.6381 101.843 20.9405L95.8468 21.1493ZM68.5728 20.4501C78.8124 19.265 88.7589 20.563 97.8183 23.8636L99.8717 18.2262C89.9551 14.6133 79.0699 13.1952 67.8823 14.49L68.5728 20.4501ZM13.5459 69.5426C19.5048 43.9423 40.9715 23.6445 68.5728 20.4501L67.8823 14.49C37.6855 17.9848 14.217 40.1923 7.70202 68.1818L13.5459 69.5426ZM13.4732 62.1992C11.8594 64.0262 10.7103 65.2979 9.06442 66.2993L12.1835 71.4251C14.7169 69.8838 16.4215 67.925 17.9704 66.1716L13.4732 62.1992Z" fill="#0DDD8B" mask="url(#path-5-outside-2)"/>
<path fill-rule="evenodd" clip-rule="evenodd" d="M133.825 120.144C141.752 107.636 145.607 92.434 143.771 76.5792C142.348 64.2891 137.685 53.1621 130.734 43.9521C130.037 43.9763 129.342 44.0228 128.652 44.1028C127.578 44.2272 126.743 44.904 125.92 45.5713C125.756 45.7047 125.592 45.8377 125.427 45.9658C125.361 46.017 125.295 46.0679 125.229 46.1186C124.007 47.063 122.851 47.9568 122.11 49.3288C121.636 50.2069 120.944 50.9073 120.126 51.4783C118.055 52.9239 113.499 52.9419 111.156 52.451C110.71 52.3575 109.581 53.1505 108.843 53.6685C108.611 53.8318 108.417 53.9678 108.296 54.04C108.144 54.131 107.936 54.2449 107.696 54.3772C106.472 55.049 104.388 56.1938 104.295 57.201C104.182 58.4226 104.566 59.7846 104.897 60.9605C104.915 61.0231 104.933 61.0851 104.95 61.1466C105.361 62.6114 104.762 62.8187 103.985 63.0875C103.502 63.2544 102.951 63.445 102.531 63.9753C100.444 66.6105 108.946 67.7392 110.291 67.8426C111.235 67.9153 112.174 67.928 113.115 67.9408C113.827 67.9505 114.54 67.9601 115.255 67.9958C116.284 68.0472 116.328 68.5549 116.402 69.4136C116.409 69.4992 116.417 69.5882 116.426 69.6806C116.623 71.7151 115.849 73.1951 114.388 74.5172C113.99 74.8782 113.503 75.1366 113.028 75.3892C112.149 75.8566 111.307 76.3041 111.126 77.3444C111.049 77.7838 111.312 78.3689 111.572 78.9454C111.887 79.6465 112.197 80.3348 111.882 80.7321C111.592 81.0973 110.61 81.2721 110.026 81.3759C109.923 81.3941 109.834 81.4101 109.762 81.4245C109.684 81.4402 109.609 81.4549 109.538 81.4691C108.504 81.674 108.102 81.7537 107.27 82.6233C106.104 83.8428 106.307 85.3991 106.505 86.9211C106.53 87.1158 106.555 87.31 106.578 87.5028C106.931 90.5531 108.8 92.9573 111.538 94.3422C112.239 94.6968 113.019 94.9161 113.8 95.1353C115.244 95.5412 116.689 95.947 117.627 97.2116C118.528 98.4263 118.212 100.14 117.892 101.869C117.52 103.885 117.144 105.922 118.686 107.217C120.223 108.509 121.869 109.541 123.685 110.395C125.24 111.125 125.684 113.238 126.094 115.189C126.301 116.176 126.499 117.121 126.828 117.825C127.551 119.373 128.936 119.532 130.516 119.712C130.727 119.737 130.942 119.761 131.158 119.789C131.527 119.838 131.892 119.887 132.254 119.936C132.783 120.008 133.305 120.079 133.825 120.144Z" fill="#9EF1D1"/>
<path d="M143.771 76.5792L142.281 76.7517L143.771 76.5792ZM133.825 120.144L133.641 121.632C134.216 121.704 134.781 121.437 135.092 120.947L133.825 120.144ZM130.734 43.9521L131.931 43.0485C131.637 42.6582 131.17 42.436 130.682 42.453L130.734 43.9521ZM128.652 44.1028L128.824 45.5928L128.652 44.1028ZM125.92 45.5713L124.976 44.4063L124.976 44.4063L125.92 45.5713ZM125.427 45.9658L124.508 44.7802L124.508 44.7802L125.427 45.9658ZM125.229 46.1186L126.146 47.3054L126.146 47.3054L125.229 46.1186ZM122.11 49.3288L123.43 50.0417L123.43 50.0417L122.11 49.3288ZM120.126 51.4783L119.267 50.2483L119.267 50.2483L120.126 51.4783ZM111.156 52.451L111.464 50.9829L111.464 50.9829L111.156 52.451ZM108.843 53.6685L107.981 52.4411L107.981 52.4411L108.843 53.6685ZM108.296 54.04L109.065 55.3279L109.065 55.3279L108.296 54.04ZM107.696 54.3772L108.418 55.6919L108.418 55.6919L107.696 54.3772ZM104.295 57.201L105.788 57.3391L105.788 57.3391L104.295 57.201ZM104.897 60.9605L103.454 61.3677L103.454 61.3677L104.897 60.9605ZM104.95 61.1466L106.394 60.7409L106.394 60.7409L104.95 61.1466ZM103.985 63.0875L104.475 64.5051L104.475 64.5051L103.985 63.0875ZM102.531 63.9753L101.355 63.0439L101.355 63.0439L102.531 63.9753ZM110.291 67.8426L110.406 66.3471L110.406 66.3471L110.291 67.8426ZM113.115 67.9408L113.135 66.4409L113.135 66.4409L113.115 67.9408ZM115.255 67.9958L115.18 69.494L115.18 69.494L115.255 67.9958ZM116.402 69.4136L114.907 69.5422L116.402 69.4136ZM116.426 69.6806L117.919 69.5357L117.919 69.5357L116.426 69.6806ZM114.388 74.5172L113.382 73.4052L113.382 73.4052L114.388 74.5172ZM113.028 75.3892L112.324 74.0647L112.324 74.0647L113.028 75.3892ZM111.126 77.3444L112.603 77.6022L112.603 77.6022L111.126 77.3444ZM111.572 78.9454L112.94 78.33L111.572 78.9454ZM111.882 80.7321L110.706 79.8007L110.706 79.8007L111.882 80.7321ZM110.026 81.3759L109.763 79.8991L109.763 79.8991L110.026 81.3759ZM109.762 81.4245L110.057 82.8951L110.057 82.8951L109.762 81.4245ZM109.538 81.4691L109.247 79.9977L109.246 79.9977L109.538 81.4691ZM107.27 82.6233L108.354 83.66L108.354 83.66L107.27 82.6233ZM106.505 86.9211L107.992 86.7276L106.505 86.9211ZM106.578 87.5028L108.068 87.3303L106.578 87.5028ZM111.538 94.3422L110.861 95.6808L110.861 95.6808L111.538 94.3422ZM113.8 95.1353L114.205 93.6912L114.205 93.6912L113.8 95.1353ZM117.627 97.2116L116.422 98.1054L116.422 98.1054L117.627 97.2116ZM117.892 101.869L116.417 101.597L117.892 101.869ZM118.686 107.217L119.651 106.069L119.651 106.069L118.686 107.217ZM123.685 110.395L123.048 111.752L123.048 111.752L123.685 110.395ZM126.094 115.189L127.562 114.881L126.094 115.189ZM126.828 117.825L125.469 118.46L125.469 118.46L126.828 117.825ZM130.516 119.712L130.346 121.203L130.346 121.203L130.516 119.712ZM131.158 119.789L130.964 121.277L130.964 121.277L131.158 119.789ZM132.254 119.936L132.052 121.423L132.052 121.423L132.254 119.936ZM142.281 76.7517C144.076 92.2532 140.308 107.113 132.558 119.341L135.092 120.947C143.196 108.16 147.138 92.6148 145.261 76.4066L142.281 76.7517ZM129.537 44.8557C136.331 53.8583 140.889 64.7343 142.281 76.7517L145.261 76.4066C143.806 63.844 139.039 52.4659 131.931 43.0485L129.537 44.8557ZM128.824 45.5928C129.467 45.5184 130.121 45.4743 130.786 45.4512L130.682 42.453C129.953 42.4783 129.218 42.5273 128.479 42.6128L128.824 45.5928ZM126.865 46.7363C127.755 46.0151 128.256 45.6587 128.824 45.5928L128.479 42.6128C126.899 42.7958 125.732 43.7929 124.976 44.4063L126.865 46.7363ZM126.345 47.1514C126.526 47.0114 126.703 46.8678 126.865 46.7363L124.976 44.4063C124.809 44.5415 124.658 44.6639 124.508 44.7802L126.345 47.1514ZM126.146 47.3054C126.212 47.2547 126.279 47.2032 126.345 47.1514L124.508 44.7802C124.443 44.8307 124.377 44.8811 124.312 44.9319L126.146 47.3054ZM123.43 50.0417C123.997 48.9928 124.887 48.2793 126.146 47.3054L124.312 44.9319C123.128 45.8467 121.706 46.9207 120.79 48.6158L123.43 50.0417ZM120.984 52.7083C121.949 52.0351 122.821 51.1698 123.43 50.0417L120.79 48.6158C120.451 49.2441 119.939 49.7794 119.267 50.2483L120.984 52.7083ZM110.849 53.9192C112.176 54.1973 114.043 54.3194 115.852 54.1868C117.607 54.0583 119.605 53.6712 120.984 52.7083L119.267 50.2483C118.576 50.731 117.259 51.0758 115.633 51.1949C114.061 51.31 112.479 51.1956 111.464 50.9829L110.849 53.9192ZM109.705 54.896C110.085 54.6292 110.499 54.3395 110.865 54.1257C111.05 54.0179 111.177 53.9566 111.249 53.929C111.283 53.9157 111.274 53.9225 111.229 53.9307C111.194 53.9372 111.05 53.9613 110.849 53.9192L111.464 50.9829C110.899 50.8646 110.392 51.0442 110.172 51.1289C109.883 51.2399 109.598 51.3916 109.352 51.5352C108.858 51.824 108.339 52.1898 107.981 52.4411L109.705 54.896ZM109.065 55.3279C109.247 55.2195 109.499 55.0413 109.705 54.896L107.981 52.4411C107.723 52.6224 107.588 52.716 107.527 52.7521L109.065 55.3279ZM108.418 55.6919C108.649 55.565 108.884 55.436 109.065 55.3279L107.527 52.7521C107.404 52.826 107.224 52.9248 106.974 53.0624L108.418 55.6919ZM105.788 57.3391C105.769 57.5504 105.676 57.5834 105.821 57.4186C105.944 57.2781 106.152 57.0948 106.451 56.8786C107.048 56.4465 107.791 56.036 108.418 55.6919L106.974 53.0624C106.377 53.3902 105.466 53.888 104.692 54.4481C104.305 54.728 103.898 55.0617 103.566 55.4401C103.255 55.7942 102.867 56.348 102.801 57.0629L105.788 57.3391ZM106.341 60.5534C105.99 59.3094 105.706 58.2306 105.788 57.3391L102.801 57.0629C102.658 58.6145 103.141 60.2598 103.454 61.3677L106.341 60.5534ZM106.394 60.7409C106.376 60.6786 106.359 60.6158 106.341 60.5534L103.454 61.3677C103.471 61.4303 103.489 61.4916 103.506 61.5522L106.394 60.7409ZM104.475 64.5051C104.646 64.446 104.93 64.3504 105.196 64.2165C105.479 64.0742 105.838 63.8431 106.126 63.4485C106.741 62.604 106.634 61.595 106.394 60.7409L103.506 61.5522C103.544 61.6867 103.564 61.7865 103.574 61.8572C103.585 61.9282 103.584 61.9601 103.584 61.9617C103.584 61.9618 103.585 61.9272 103.604 61.8706C103.623 61.8113 103.655 61.7456 103.701 61.6826C103.792 61.5566 103.882 61.5192 103.847 61.5372C103.829 61.5459 103.795 61.5613 103.733 61.5852C103.702 61.5968 103.668 61.6093 103.628 61.6236C103.587 61.638 103.544 61.6527 103.495 61.6699L104.475 64.5051ZM103.707 64.9067C103.824 64.7589 103.969 64.6801 104.475 64.5051L103.495 61.6699C103.036 61.8286 102.079 62.131 101.355 63.0439L103.707 64.9067ZM110.406 66.3471C109.801 66.3005 107.457 66.0059 105.564 65.4245C104.573 65.1201 103.945 64.8058 103.684 64.568C103.575 64.4682 103.674 64.5111 103.699 64.7082C103.727 64.9347 103.617 65.0203 103.707 64.9067L101.355 63.0439C100.923 63.589 100.623 64.2864 100.722 65.0795C100.817 65.8431 101.248 66.4072 101.663 66.7854C102.452 67.5037 103.641 67.9721 104.683 68.2922C106.856 68.9598 109.436 69.2813 110.176 69.3382L110.406 66.3471ZM113.135 66.4409C112.187 66.4281 111.295 66.4155 110.406 66.3471L110.176 69.3382C111.175 69.4151 112.162 69.428 113.094 69.4407L113.135 66.4409ZM115.33 66.4977C114.583 66.4604 113.843 66.4505 113.135 66.4409L113.094 69.4407C113.811 69.4504 114.496 69.4598 115.18 69.494L115.33 66.4977ZM117.896 69.285C117.879 69.0899 117.858 68.8219 117.812 68.5702C117.766 68.3136 117.677 67.9602 117.462 67.613C116.941 66.7694 116.073 66.5348 115.33 66.4977L115.18 69.494C115.249 69.4974 115.285 69.5036 115.295 69.5057C115.305 69.5077 115.281 69.5039 115.237 69.4837C115.19 69.4623 115.128 69.4262 115.063 69.3696C114.998 69.3125 114.947 69.2497 114.911 69.1909C114.876 69.1347 114.86 69.0919 114.855 69.0768C114.851 69.063 114.854 69.0683 114.86 69.1038C114.866 69.1394 114.874 69.1908 114.882 69.2677C114.89 69.3456 114.898 69.4315 114.907 69.5422L117.896 69.285ZM117.919 69.5357C117.911 69.4527 117.904 69.3716 117.896 69.285L114.907 69.5422C114.915 69.6267 114.923 69.7237 114.933 69.8255L117.919 69.5357ZM115.395 75.6293C117.121 74.0669 118.172 72.1476 117.919 69.5357L114.933 69.8255C115.074 71.2826 114.577 72.3234 113.382 73.4052L115.395 75.6293ZM113.732 76.7137C114.177 76.4773 114.835 76.1366 115.395 75.6293L113.382 73.4052C113.145 73.6197 112.83 73.7958 112.324 74.0647L113.732 76.7137ZM112.603 77.6022C112.624 77.4824 112.666 77.4009 112.803 77.2805C112.992 77.1157 113.258 76.9659 113.732 76.7137L112.324 74.0647C111.574 74.4634 109.975 75.2151 109.648 77.0866L112.603 77.6022ZM112.94 78.33C112.802 78.0237 112.708 77.8112 112.649 77.6307C112.622 77.5471 112.614 77.5019 112.611 77.4867C112.609 77.4708 112.618 77.5165 112.603 77.6022L109.648 77.0866C109.546 77.6711 109.684 78.2106 109.796 78.5563C109.915 78.9223 110.082 79.2906 110.204 79.5607L112.94 78.33ZM113.057 81.6636C113.664 80.8982 113.526 80.0215 113.418 79.5883C113.301 79.1228 113.081 78.6438 112.94 78.33L110.204 79.5607C110.285 79.7413 110.351 79.8889 110.407 80.0267C110.463 80.1649 110.493 80.2573 110.508 80.317C110.524 80.3819 110.508 80.3541 110.515 80.2665C110.523 80.1602 110.566 79.9777 110.706 79.8007L113.057 81.6636ZM110.288 82.8528C110.568 82.803 111.037 82.721 111.48 82.5933C111.703 82.529 111.961 82.4416 112.21 82.3199C112.438 82.2085 112.784 82.0091 113.057 81.6636L110.706 79.8007C110.835 79.6378 110.949 79.5972 110.893 79.6244C110.858 79.6415 110.781 79.6727 110.649 79.7107C110.382 79.7877 110.067 79.845 109.763 79.8991L110.288 82.8528ZM110.057 82.8951C110.109 82.8847 110.18 82.872 110.288 82.8528L109.763 79.8991C109.667 79.9162 109.558 79.9355 109.466 79.954L110.057 82.8951ZM109.83 82.9405C109.901 82.9264 109.977 82.9112 110.057 82.8951L109.466 79.954C109.391 79.9691 109.318 79.9835 109.247 79.9977L109.83 82.9405ZM108.354 83.66C108.704 83.2939 108.862 83.2026 108.957 83.1586C109.097 83.0942 109.265 83.0524 109.83 82.9405L109.246 79.9977C108.777 80.0907 108.227 80.1913 107.699 80.4353C107.127 80.6998 106.667 81.0831 106.186 81.5867L108.354 83.66ZM107.992 86.7276C107.775 85.062 107.76 84.2817 108.354 83.66L106.186 81.5867C104.448 83.4038 104.838 85.7362 105.017 87.1147L107.992 86.7276ZM108.068 87.3303C108.044 87.1252 108.017 86.9204 107.992 86.7276L105.017 87.1147C105.043 87.3112 105.067 87.4948 105.087 87.6753L108.068 87.3303ZM112.215 93.0037C109.869 91.8174 108.356 89.8197 108.068 87.3303L105.087 87.6753C105.505 91.2865 107.73 94.0973 110.861 95.6808L112.215 93.0037ZM114.205 93.6912C113.398 93.4643 112.763 93.2807 112.215 93.0037L110.861 95.6808C111.715 96.1129 112.641 96.3679 113.394 96.5794L114.205 93.6912ZM118.832 96.3177C117.54 94.5766 115.561 94.072 114.205 93.6912L113.394 96.5794C114.928 97.0105 115.838 97.3174 116.422 98.1054L118.832 96.3177ZM119.368 102.142C119.521 101.308 119.71 100.312 119.717 99.3593C119.725 98.384 119.549 97.2845 118.832 96.3177L116.422 98.1054C116.606 98.3534 116.722 98.7179 116.718 99.3354C116.712 99.9756 116.583 100.701 116.417 101.597L119.368 102.142ZM119.651 106.069C119.282 105.759 119.105 105.365 119.069 104.728C119.029 104.02 119.173 103.194 119.368 102.142L116.417 101.597C116.24 102.56 116.01 103.76 116.074 104.898C116.142 106.108 116.548 107.38 117.721 108.365L119.651 106.069ZM124.323 109.037C122.616 108.235 121.082 107.271 119.651 106.069L117.721 108.365C119.364 109.746 121.121 110.847 123.048 111.752L124.323 109.037ZM127.562 114.881C127.364 113.938 127.125 112.778 126.705 111.762C126.282 110.736 125.584 109.629 124.323 109.037L123.048 111.752C123.341 111.89 123.643 112.205 123.932 112.906C124.226 113.617 124.414 114.49 124.626 115.498L127.562 114.881ZM128.187 117.19C127.948 116.677 127.781 115.925 127.562 114.881L124.626 115.498C124.821 116.426 125.051 117.565 125.469 118.46L128.187 117.19ZM130.687 118.222C129.845 118.126 129.321 118.055 128.912 117.89C128.598 117.764 128.374 117.591 128.187 117.19L125.469 118.46C126.005 119.608 126.835 120.288 127.79 120.673C128.649 121.019 129.607 121.118 130.346 121.203L130.687 118.222ZM131.352 118.302C131.122 118.272 130.896 118.246 130.687 118.222L130.346 121.203C130.558 121.227 130.761 121.25 130.964 121.277L131.352 118.302ZM132.457 118.45C132.095 118.401 131.726 118.351 131.352 118.302L130.964 121.277C131.329 121.324 131.689 121.373 132.052 121.423L132.457 118.45ZM134.009 118.655C133.5 118.592 132.987 118.522 132.457 118.45L132.052 121.423C132.579 121.494 133.111 121.567 133.641 121.632L134.009 118.655Z" fill="#0DDD8B"/>
<mask id="path-9-inside-3" fill="white">
<path fill-rule="evenodd" clip-rule="evenodd" d="M37 73.9907C25.9557 73.9907 17 82.9439 17 93.9882C17 102.702 22.5751 110.114 30.3525 112.854L34.1242 120.903C35.2032 123.205 38.4781 123.205 39.5572 120.903L43.2683 112.984C51.243 110.354 57 102.843 57 93.9882C57 82.9439 48.0443 73.9907 37 73.9907Z"/>
</mask>
<path fill-rule="evenodd" clip-rule="evenodd" d="M37 73.9907C25.9557 73.9907 17 82.9439 17 93.9882C17 102.702 22.5751 110.114 30.3525 112.854L34.1242 120.903C35.2032 123.205 38.4781 123.205 39.5572 120.903L43.2683 112.984C51.243 110.354 57 102.843 57 93.9882C57 82.9439 48.0443 73.9907 37 73.9907Z" fill="white"/>
<path d="M30.3525 112.854L32.1635 112.006L31.8077 111.246L31.017 110.968L30.3525 112.854ZM34.1242 120.903L35.9352 120.054L34.1242 120.903ZM39.5572 120.903L41.3682 121.751L39.5572 120.903ZM43.2683 112.984L42.6419 111.084L41.8231 111.354L41.4573 112.135L43.2683 112.984ZM19 93.9882C19 84.0488 27.06 75.9907 37 75.9907V71.9907C24.8515 71.9907 15 81.839 15 93.9882H19ZM31.017 110.968C24.0146 108.501 19 101.827 19 93.9882H15C15 103.577 21.1357 111.728 29.6879 114.741L31.017 110.968ZM35.9352 120.054L32.1635 112.006L28.5415 113.703L32.3132 121.751L35.9352 120.054ZM37.7462 120.054C37.3865 120.821 36.2949 120.821 35.9352 120.054L32.3132 121.751C34.1116 125.589 39.5697 125.589 41.3682 121.751L37.7462 120.054ZM41.4573 112.135L37.7462 120.054L41.3682 121.751L45.0793 113.832L41.4573 112.135ZM55 93.9882C55 101.954 49.8215 108.717 42.6419 111.084L43.8946 114.883C52.6644 111.991 59 103.732 59 93.9882H55ZM37 75.9907C46.94 75.9907 55 84.0488 55 93.9882H59C59 81.839 49.1485 71.9907 37 71.9907V75.9907Z" fill="#E2E8F0" mask="url(#path-9-inside-3)"/>
<mask id="path-11-inside-4" fill="white">
<path fill-rule="evenodd" clip-rule="evenodd" d="M41 0C29.9557 0 21 8.95316 21 19.9974C21 28.7114 26.5751 36.1236 34.3525 38.8635L38.1242 46.9118C39.2032 49.2145 42.4781 49.2145 43.5572 46.9119L47.2683 38.9929C55.243 36.3631 61 28.8524 61 19.9974C61 8.95316 52.0443 0 41 0Z"/>
</mask>
<path fill-rule="evenodd" clip-rule="evenodd" d="M41 0C29.9557 0 21 8.95316 21 19.9974C21 28.7114 26.5751 36.1236 34.3525 38.8635L38.1242 46.9118C39.2032 49.2145 42.4781 49.2145 43.5572 46.9119L47.2683 38.9929C55.243 36.3631 61 28.8524 61 19.9974C61 8.95316 52.0443 0 41 0Z" fill="white"/>
<path d="M34.3525 38.8635L36.1635 38.0148L35.8077 37.2557L35.017 36.9772L34.3525 38.8635ZM38.1242 46.9118L39.9352 46.0632L38.1242 46.9118ZM43.5572 46.9119L45.3682 47.7605L43.5572 46.9119ZM47.2683 38.9929L46.6419 37.0935L45.8231 37.3635L45.4573 38.1442L47.2683 38.9929ZM23 19.9974C23 10.0581 31.06 2 41 2V-2C28.8515 -2 19 7.84825 19 19.9974H23ZM35.017 36.9772C28.0146 34.5102 23 27.8365 23 19.9974H19C19 29.5863 25.1357 37.7369 33.6879 40.7499L35.017 36.9772ZM39.9352 46.0632L36.1635 38.0148L32.5415 39.7122L36.3132 47.7605L39.9352 46.0632ZM41.7462 46.0632C41.3865 46.8307 40.2949 46.8307 39.9352 46.0632L36.3132 47.7605C38.1116 51.5982 43.5697 51.5982 45.3682 47.7605L41.7462 46.0632ZM45.4573 38.1442L41.7462 46.0632L45.3682 47.7605L49.0793 39.8416L45.4573 38.1442ZM59 19.9974C59 27.9634 53.8215 34.7259 46.6419 37.0935L47.8946 40.8923C56.6644 38.0003 63 29.7414 63 19.9974H59ZM41 2C50.94 2 59 10.0581 59 19.9974H63C63 7.84825 53.1485 -2 41 -2V2Z" fill="#E2E8F0" mask="url(#path-11-inside-4)"/>
<mask id="path-13-inside-5" fill="white">
<path fill-rule="evenodd" clip-rule="evenodd" d="M120 40.9946C108.956 40.9946 100 49.9478 100 60.9921C100 69.7061 105.575 77.1183 113.352 79.8583L117.124 87.9066C118.203 90.2092 121.478 90.2092 122.557 87.9066L126.268 79.9876C134.243 77.3579 140 69.8471 140 60.9921C140 49.9478 131.044 40.9946 120 40.9946Z"/>
</mask>
<path fill-rule="evenodd" clip-rule="evenodd" d="M120 40.9946C108.956 40.9946 100 49.9478 100 60.9921C100 69.7061 105.575 77.1183 113.352 79.8583L117.124 87.9066C118.203 90.2092 121.478 90.2092 122.557 87.9066L126.268 79.9876C134.243 77.3579 140 69.8471 140 60.9921C140 49.9478 131.044 40.9946 120 40.9946Z" fill="white"/>
<path d="M113.352 79.8583L115.163 79.0096L114.808 78.2505L114.017 77.9719L113.352 79.8583ZM117.124 87.9066L118.935 87.0579L117.124 87.9066ZM122.557 87.9066L124.368 88.7553L122.557 87.9066ZM126.268 79.9876L125.642 78.0882L124.823 78.3582L124.457 79.1389L126.268 79.9876ZM102 60.9921C102 51.0527 110.06 42.9946 120 42.9946V38.9946C107.851 38.9946 98 48.8429 98 60.9921H102ZM114.017 77.9719C107.015 75.5049 102 68.8312 102 60.9921H98C98 70.581 104.136 78.7317 112.688 81.7446L114.017 77.9719ZM118.935 87.0579L115.163 79.0096L111.541 80.707L115.313 88.7553L118.935 87.0579ZM120.746 87.0579C120.386 87.8254 119.295 87.8255 118.935 87.0579L115.313 88.7553C117.112 92.593 122.57 92.593 124.368 88.7553L120.746 87.0579ZM124.457 79.1389L120.746 87.0579L124.368 88.7553L128.079 80.8363L124.457 79.1389ZM138 60.9921C138 68.9581 132.822 75.7207 125.642 78.0882L126.895 81.887C135.664 78.9951 142 70.7361 142 60.9921H138ZM120 42.9946C129.94 42.9946 138 51.0527 138 60.9921H142C142 48.8429 132.149 38.9946 120 38.9946V42.9946Z" fill="#E2E8F0" mask="url(#path-13-inside-5)"/>
<mask id="mask0" mask-type="alpha" maskUnits="userSpaceOnUse" x="102" y="43" width="36" height="37">
<circle cx="120" cy="61.2366" r="18" fill="#C4C4C4"/>
</mask>
<g mask="url(#mask0)">
<path d="M117.518 47.0595C107.631 45.3766 107.07 64.1686 108.893 73.5646C116.116 75.598 130.813 78.6973 131.822 74.8267C133.084 69.9885 131.822 53.5806 128.667 49.163C126.143 45.629 119.201 45.7973 117.518 47.0595Z" fill="#B87C4E"/>
<rect x="117.098" y="66.4126" width="6.73145" height="5.04858" fill="#EDBC89"/>
<path fill-rule="evenodd" clip-rule="evenodd" d="M120.463 68.9368C126.272 68.9368 130.139 64.322 130.139 58.6293C130.139 52.9366 126.272 48.3218 120.463 48.3218C114.654 48.3218 110.786 52.9366 110.786 58.6293C110.786 64.322 114.654 68.9368 120.463 68.9368ZM107.131 78.1688C107.477 75.7289 107.913 72.6635 112.129 71.6803C116.676 70.6197 127.515 71.0501 128.583 71.6804C128.699 71.7487 128.845 71.8245 129.014 71.9123C130.405 72.6336 133.354 74.164 133.926 79.0341H107C107.047 78.7584 107.088 78.4683 107.131 78.1688Z" fill="#EDBC89"/>
<path d="M112.89 74.6167L107.841 79.0342H132.874L128.246 74.6167V71.4613L125.722 71.251V74.6167H115.204V71.251L112.89 71.4613V74.6167Z" fill="#1E66CC"/>
<path d="M115.204 53.1601L108.893 58.6294C108.893 56.9465 109.104 52.7394 115.204 48.1115C116.513 47.1185 124.039 48.1115 125.932 48.1115C127.447 48.1115 129.368 51.6175 130.139 53.3704C130.28 54.5625 130.812 57.5776 130.139 57.5776C129.466 57.5776 126.914 54.4222 125.932 53.1601C125.932 54.4222 126.185 56.9465 125.511 56.9465C124.838 56.9465 122.707 54.4222 121.935 53.1601C121.935 54.0716 122.356 56.1051 121.935 56.9465C121.465 57.8873 118.78 53.1601 118.57 53.1601C118.359 53.1601 115.52 57.5776 114.573 56.9465C114.068 56.6099 114.363 54.2119 115.204 53.1601Z" fill="#B87C4E"/>
</g>
<mask id="mask1" mask-type="alpha" maskUnits="userSpaceOnUse" x="23" y="2" width="36" height="37">
<circle cx="41" cy="20.2366" r="18" fill="#C4C4C4"/>
</mask>
<g mask="url(#mask1)">
<path fill-rule="evenodd" clip-rule="evenodd" d="M44.3672 27.0035C48.7628 25.8532 50.6953 22.2084 50.6953 17.8899C50.6953 12.6479 46.4458 8.39844 41.2038 8.39844C35.9618 8.39844 31.7123 12.6479 31.7123 17.8899C31.7123 22.162 33.8556 25.7748 38.0395 26.9656V32.8051H44.3672V27.0035Z" fill="#784F39"/>
<path d="M44.7023 30.7162C42.5611 31.6563 39.4847 31.2018 38.132 30.7162C33.8033 29.5507 31.1501 35.5653 30.1905 38.7291L52.8096 38.7291C52.8096 37.0417 52.3572 35.677 51.0001 33.7585C49.6429 31.84 47.381 29.54 44.7023 30.7162Z" fill="#FF9892"/>
<path fill-rule="evenodd" clip-rule="evenodd" d="M37.5577 6.67339C37.7308 6.41027 38.0287 6.23657 38.3672 6.23657C38.684 6.23657 38.9652 6.38865 39.1418 6.62376C39.3185 6.38865 39.5997 6.23657 39.9164 6.23657C40.2331 6.23657 40.5143 6.38865 40.6909 6.62376C40.8676 6.38865 41.1488 6.23657 41.4655 6.23657C41.7819 6.23657 42.0628 6.38831 42.2395 6.62298C42.4162 6.38831 42.6971 6.23657 43.0135 6.23657C43.3304 6.23657 43.6117 6.38881 43.7883 6.62414C43.965 6.38881 44.2463 6.23657 44.5632 6.23657C44.8799 6.23657 45.1611 6.38864 45.3378 6.62376C45.5144 6.38864 45.7956 6.23657 46.1123 6.23657C46.4722 6.23657 46.7862 6.43288 46.9531 6.72424C47.2219 6.53322 47.5816 6.48445 47.9053 6.62716C48.195 6.75487 48.3909 7.00728 48.4577 7.29352C48.7142 7.14976 49.0327 7.12409 49.3225 7.25182C49.6722 7.40603 49.8853 7.74207 49.8996 8.09991C50.0639 8.08147 50.2351 8.1049 50.3973 8.1764C50.8084 8.35765 51.0307 8.79012 50.9632 9.21393C51.4389 9.05069 51.967 9.28053 52.1672 9.75051C52.2914 10.0418 52.2618 10.36 52.1148 10.6147C52.4006 10.6849 52.651 10.884 52.7753 11.1756C52.8994 11.467 52.8698 11.7854 52.7227 12.0401C53.0081 12.1105 53.258 12.3095 53.3821 12.6007C53.5918 13.0927 53.3629 13.6614 52.871 13.871L52.835 13.8864L53.1144 13.9104C53.6472 13.9562 54.042 14.4252 53.9961 14.958C53.969 15.2736 53.7933 15.5409 53.5438 15.6967C53.7628 15.8928 53.8902 16.186 53.863 16.5015C53.8359 16.817 53.6603 17.0841 53.411 17.24C53.6302 17.4361 53.7576 17.7293 53.7305 18.0449C53.6847 18.5777 53.2157 18.9725 52.6829 18.9267L49.9818 18.6944C49.4491 18.6486 49.0543 18.1796 49.1001 17.6468C49.1273 17.3313 49.3028 17.0642 49.5522 16.9083C49.333 16.7122 49.2055 16.4189 49.2327 16.1033C49.2598 15.7876 49.4355 15.5204 49.685 15.3646C49.5187 15.2157 49.4052 15.0108 49.3722 14.7827C49.2602 14.6882 49.1681 14.5667 49.1067 14.4227C48.9825 14.1313 49.0122 13.813 49.1593 13.5583C48.8739 13.4879 48.624 13.2888 48.4998 12.9976C48.4786 12.9476 48.4618 12.8969 48.4494 12.8458C48.4175 12.8355 48.3859 12.8235 48.3546 12.8097C47.8831 12.6019 47.66 12.0636 47.8374 11.5869C47.7071 11.5868 47.5746 11.5603 47.4477 11.5044C47.158 11.3766 46.9621 11.1242 46.8952 10.838C46.6395 10.9813 46.3221 11.0073 46.0331 10.8808C45.749 10.8578 45.4995 10.7122 45.3378 10.4968C45.1611 10.732 44.8799 10.884 44.5632 10.884C44.2463 10.884 43.965 10.7318 43.7883 10.4965C43.6117 10.7318 43.3304 10.884 43.0135 10.884C42.6971 10.884 42.4162 10.7323 42.2395 10.4976C42.0628 10.7323 41.7819 10.884 41.4655 10.884C41.1488 10.884 40.8676 10.732 40.6909 10.4968C40.5143 10.732 40.2331 10.884 39.9164 10.884C39.5997 10.884 39.3185 10.732 39.1418 10.4968C39.0347 10.6394 38.8892 10.7514 38.7206 10.8175C38.6939 10.8331 38.6663 10.8476 38.6377 10.8608C38.3503 10.9939 38.0313 10.9741 37.7722 10.835C37.7107 11.1225 37.5194 11.3785 37.2321 11.5115C36.9448 11.6445 36.6258 11.6247 36.3667 11.4857C36.3052 11.7733 36.114 12.0294 35.8266 12.1625C35.6531 12.2428 35.4681 12.2674 35.2917 12.2437C35.2881 12.4275 35.2323 12.6122 35.1199 12.7747C34.996 12.954 34.8223 13.0784 34.6304 13.1424C34.6217 13.1958 34.6085 13.2492 34.5905 13.3021C34.4881 13.6018 34.2533 13.8188 33.9737 13.91C34.1392 14.1532 34.1923 14.4686 34.09 14.7684C33.9876 15.068 33.7529 15.285 33.4734 15.3762C33.6388 15.6193 33.6918 15.9346 33.5895 16.2343C33.5824 16.2551 33.5746 16.2755 33.5663 16.2954C33.5884 16.3575 33.6045 16.4228 33.6138 16.4907C33.6566 16.8043 33.5441 17.1033 33.3353 17.3101C33.5924 17.4533 33.7814 17.7115 33.8242 18.0255C33.8965 18.5553 33.5256 19.0434 32.9958 19.1158L30.3097 19.4823C29.7799 19.5546 29.2917 19.1837 29.2194 18.6539C29.1766 18.3403 29.2891 18.0413 29.4979 17.8345C29.2408 17.6913 29.0519 17.4331 29.009 17.1191C28.9367 16.5893 29.3076 16.1012 29.8374 16.0289L29.9478 16.0138L29.7948 15.9616C29.2887 15.7888 29.0186 15.2384 29.1914 14.7324C29.2937 14.4327 29.5284 14.2158 29.8079 14.1246C29.6425 13.8814 29.5895 13.5662 29.6919 13.2665C29.7942 12.9668 30.029 12.7498 30.3086 12.6586C30.1431 12.4154 30.09 12.1001 30.1924 11.8002C30.3456 11.3514 30.7958 11.0882 31.2487 11.1549C31.0743 10.8426 31.0803 10.4454 31.2975 10.1313C31.4534 9.90582 31.6879 9.76703 31.9387 9.7263C31.818 9.27942 32.0328 8.79734 32.4671 8.59626C32.7548 8.46303 33.0742 8.48306 33.3335 8.6226C33.3948 8.33478 33.5862 8.07837 33.8738 7.9452C34.1611 7.81215 34.4801 7.83195 34.7392 7.97098C34.8007 7.68342 34.9919 7.42728 35.2793 7.29421C35.5667 7.16115 35.8857 7.18096 36.1448 7.32003C36.2064 7.03259 36.3976 6.77658 36.6849 6.64355C36.975 6.50921 37.2974 6.53069 37.5577 6.67339Z" fill="#1A202C"/>
</g>
<mask id="mask2" mask-type="alpha" maskUnits="userSpaceOnUse" x="19" y="76" width="36" height="37">
<circle cx="37" cy="94.2366" r="18" fill="#C4C4C4"/>
</mask>
<g mask="url(#mask2)">
<ellipse cx="36.7368" cy="92.5392" rx="12.2105" ry="10.3026" fill="#1A202C"/>
<path d="M47.4211 93.684C47.4211 100.412 42.3416 102.842 37.0256 102.842C31.7096 102.842 26.0526 100.038 26.0526 93.684C26.0526 88.6263 31.7096 84.5261 37.0256 84.5261C42.3416 84.5261 47.4211 88.6263 47.4211 93.684Z" fill="#F9DCB9"/>
<rect x="33.6842" y="100.552" width="6.10526" height="5.34211" fill="#F9DCB9"/>
<path d="M40.3253 103.669C38.5949 103.846 38.08 104.584 33.7067 103.669C25.7067 104.584 24.752 109.18 23 112.763H52C52 112.212 51.8173 111.054 50.26 108.574C48.3133 105.474 45.04 103.188 40.3253 103.669Z" fill="#FFE866"/>
<path d="M45.9263 87.9369C49.5741 92.7072 46.5104 92.111 37.1183 92.111C27.1712 92.111 23.1404 92.906 28.3104 87.9369C28.3104 85.6317 32.2538 83.7629 37.1183 83.7629C41.9829 83.7629 45.9263 85.6317 45.9263 87.9369Z" fill="#1A202C"/>
</g>
</svg>
