<svg width="389" height="245" viewBox="0 0 389 245" fill="none" xmlns="http://www.w3.org/2000/svg">
<rect x="1.21063" y="1.21063" width="344.579" height="198.579" rx="2.01772" fill="white" stroke="#CBD5E0" stroke-width="2.42126"/>
<path d="M19.6799 38.9999H21.9399C22.1199 38.9999 22.2399 38.8799 22.2399 38.6999V30.3599L22.4999 31.2199L25.4599 38.7599C25.5199 38.9199 25.6599 38.9999 25.8199 38.9999H27.8199C27.9799 38.9999 28.1199 38.9199 28.1799 38.7599L31.1399 31.2199L31.3999 30.3599V38.6999C31.3999 38.8799 31.5199 38.9999 31.6999 38.9999H33.9599C34.1399 38.9999 34.2599 38.8799 34.2599 38.6999V25.2999C34.2599 25.1199 34.1399 24.9999 33.9599 24.9999H31.3399C31.1799 24.9999 31.0599 25.0599 30.9999 25.1999L26.8199 35.6999L22.6399 25.1999C22.5799 25.0599 22.4599 24.9999 22.2999 24.9999H19.6799C19.4999 24.9999 19.3799 25.1199 19.3799 25.2999V38.6999C19.3799 38.8799 19.4999 38.9999 19.6799 38.9999Z" fill="#171923"/>
<path d="M38.8366 42.7999H40.9566C41.1166 42.7999 41.2566 42.7199 41.3166 42.5599L46.4966 29.5399C46.5766 29.3199 46.4766 29.1999 46.2566 29.1999H44.0566C43.8966 29.1999 43.7566 29.2799 43.6966 29.4399L41.3766 35.7999L39.0366 29.4399C38.9766 29.2799 38.8366 29.1999 38.6766 29.1999H36.4766C36.2566 29.1999 36.1566 29.3199 36.2366 29.5399L40.0166 39.0199L38.5966 42.4599C38.4966 42.6799 38.6166 42.7999 38.8366 42.7999Z" fill="#171923"/>
<path d="M55.3277 38.9999H57.5877C57.7677 38.9999 57.8877 38.8799 57.8877 38.6999V27.5399H60.6077C60.7877 27.5399 60.9077 27.4199 60.9077 27.2399V25.2999C60.9077 25.1199 60.7877 24.9999 60.6077 24.9999H52.2877C52.1077 24.9999 51.9877 25.1199 51.9877 25.2999V27.2399C51.9877 27.4199 52.1077 27.5399 52.2877 27.5399H55.0277V38.6999C55.0277 38.8799 55.1477 38.9999 55.3277 38.9999Z" fill="#171923"/>
<path d="M64.8293 39.2399C66.2893 39.2399 67.2293 38.5199 67.7893 37.5199L67.8693 38.6799C67.8893 38.9199 67.9893 38.9999 68.1693 38.9999H70.2293C70.4093 38.9999 70.5493 38.8799 70.5493 38.6999V29.4999C70.5493 29.3199 70.4093 29.1999 70.2293 29.1999H68.0893C67.9093 29.1999 67.7893 29.3199 67.7893 29.4999V34.5799C67.7893 35.9599 67.0293 36.6999 65.8693 36.6999C64.6893 36.6999 64.0493 35.9599 64.0493 34.5799V29.4999C64.0493 29.3199 63.9293 29.1999 63.7493 29.1999H61.5893C61.4093 29.1999 61.2893 29.3199 61.2893 29.4999V35.1999C61.2893 37.7599 62.7693 39.2399 64.8293 39.2399Z" fill="#171923"/>
<path d="M76.8104 39.1199C77.4704 39.1199 78.4704 38.9999 78.4704 38.5399V37.0799C78.4704 36.8799 78.3304 36.7799 78.1104 36.7999C77.8703 36.8199 77.6704 36.8199 77.4904 36.8199C76.9704 36.8199 76.6304 36.5399 76.6304 35.9599V31.3399H78.1704C78.3504 31.3399 78.4704 31.2199 78.4704 31.0399V29.4999C78.4704 29.3199 78.3504 29.1999 78.1704 29.1999H76.6304V26.8999C76.6304 26.7199 76.5103 26.5999 76.3303 26.5999H74.1504C73.9704 26.5999 73.8503 26.7199 73.8503 26.8999V29.1999H72.6104C72.4304 29.1999 72.3104 29.3199 72.3104 29.4999V31.0399C72.3104 31.2199 72.4304 31.3399 72.6104 31.3399H73.8503V36.2599C73.8503 38.3999 75.2504 39.1199 76.8104 39.1199Z" fill="#171923"/>
<path d="M84.7769 39.2399C87.7169 39.2399 89.8969 36.9999 89.8969 34.0999C89.8969 31.1999 87.7169 28.9599 84.7769 28.9599C81.8169 28.9599 79.6369 31.1999 79.6369 34.0999C79.6369 36.9999 81.8169 39.2399 84.7769 39.2399ZM82.2969 34.0999C82.2969 32.4999 83.3769 31.4999 84.7769 31.4999C86.1569 31.4999 87.2369 32.4999 87.2369 34.0999C87.2369 35.6999 86.1569 36.6999 84.7769 36.6999C83.3769 36.6999 82.2969 35.6999 82.2969 34.0999Z" fill="#171923"/>
<path d="M92.058 38.9999H94.218C94.398 38.9999 94.518 38.8799 94.518 38.6999V33.7999C94.518 32.3999 95.238 31.4999 96.598 31.4999C96.878 31.4999 97.098 31.5399 97.318 31.5999C97.578 31.6599 97.718 31.5999 97.718 31.3599V29.5999C97.718 29.4199 97.678 29.2999 97.538 29.1999C97.378 29.0799 97.098 28.9599 96.638 28.9599C95.478 28.9599 94.858 29.7399 94.518 30.7799L94.438 29.5199C94.418 29.2799 94.318 29.1999 94.138 29.1999H92.058C91.878 29.1999 91.758 29.3199 91.758 29.4999V38.6999C91.758 38.8799 91.878 38.9999 92.058 38.9999Z" fill="#171923"/>
<path d="M100.912 27.4599C101.792 27.4599 102.432 26.7799 102.432 25.9199C102.432 25.0799 101.792 24.3999 100.912 24.3999C100.032 24.3999 99.3724 25.0799 99.3724 25.9199C99.3724 26.7799 100.032 27.4599 100.912 27.4599ZM99.5124 38.6999C99.5124 38.8799 99.6324 38.9999 99.8124 38.9999H101.992C102.172 38.9999 102.292 38.8799 102.292 38.6999V29.4999C102.292 29.3199 102.172 29.1999 101.992 29.1999H99.8124C99.6324 29.1999 99.5124 29.3199 99.5124 29.4999V38.6999Z" fill="#171923"/>
<path d="M104.988 38.9999H107.148C107.328 38.9999 107.448 38.8799 107.448 38.6999V33.6199C107.448 32.2399 108.208 31.4999 109.368 31.4999C110.548 31.4999 111.188 32.2399 111.188 33.6199V38.6999C111.188 38.8799 111.308 38.9999 111.488 38.9999H113.628C113.808 38.9999 113.948 38.8799 113.948 38.6999V32.9999C113.948 30.4399 112.448 28.9599 110.408 28.9599C108.948 28.9599 108.008 29.6799 107.448 30.6799L107.368 29.5199C107.368 29.2799 107.248 29.1999 107.068 29.1999H104.988C104.808 29.1999 104.688 29.3199 104.688 29.4999V38.6999C104.688 38.8799 104.808 38.9999 104.988 38.9999Z" fill="#171923"/>
<path d="M120.929 43.0999C123.349 43.0999 126.109 41.9799 126.109 38.4599V29.4999C126.109 29.3199 125.989 29.1999 125.809 29.1999H123.849C123.669 29.1999 123.529 29.3199 123.529 29.4999L123.489 30.3999C122.869 29.4799 121.869 28.9599 120.429 28.9599C117.669 28.9599 115.809 30.9999 115.809 33.8799C115.809 36.7799 117.669 38.7999 120.429 38.7999C121.829 38.7999 122.849 38.2599 123.469 37.3799V38.4399C123.469 40.2599 122.049 40.8599 120.669 40.8599C119.809 40.8599 118.929 40.6199 118.069 40.1399C117.849 40.0199 117.669 40.0999 117.569 40.2999L116.989 41.3999C116.889 41.5799 116.909 41.8399 117.109 41.9799C118.069 42.6999 119.469 43.0999 120.929 43.0999ZM118.509 33.8799C118.509 32.3999 119.549 31.4399 120.969 31.4399C122.369 31.4399 123.369 32.3799 123.369 33.8799C123.369 35.3799 122.369 36.3199 120.969 36.3199C119.549 36.3199 118.509 35.3799 118.509 33.8799Z" fill="#171923"/>
<rect x="18" y="56" width="310" height="53" rx="4" fill="#FFF299"/>
<path d="M67.8332 88.1768C69.7227 88.1768 71.2044 86.7767 71.2044 84.9143C71.2044 83.0656 69.7635 81.6654 68.3769 81.6654C68.2546 81.6654 68.1594 81.679 68.105 81.679L70.0082 79.436C70.1033 79.3273 70.0761 79.2457 69.9674 79.1506L68.9614 78.267C68.8527 78.1718 68.7575 78.2126 68.676 78.3078L65.631 82.114C64.8018 83.1471 64.4619 84.0171 64.4619 84.9007C64.4619 86.7631 65.9572 88.1768 67.8332 88.1768ZM66.2835 84.8463C66.2835 83.9356 66.936 83.2423 67.8332 83.2423C68.7304 83.2423 69.3829 83.9356 69.3829 84.8463C69.3829 85.7707 68.7439 86.4504 67.8332 86.4504C66.936 86.4504 66.2835 85.7707 66.2835 84.8463Z" fill="#171923"/>
<path d="M75.4697 88.0001H80.1187C80.2411 88.0001 80.3226 87.9185 80.3226 87.7962V86.4776C80.3226 86.3553 80.2411 86.2737 80.1187 86.2737H77.2097V78.6884C77.2097 78.566 77.1281 78.4845 77.0058 78.4845H75.4697C75.3473 78.4845 75.2658 78.566 75.2658 78.6884V87.7962C75.2658 87.9185 75.3473 88.0001 75.4697 88.0001Z" fill="#171923"/>
<path d="M84.6329 88.1632C85.5709 88.1632 86.4273 87.8913 86.9982 87.3204C87.1206 87.2117 87.1342 87.1165 87.0662 87.0213L86.5632 86.3281C86.4953 86.2329 86.4273 86.2193 86.3321 86.2737C85.7884 86.5863 85.299 86.6815 84.7824 86.6815C83.7085 86.6815 83.0153 86.2193 82.8114 85.3765H86.8623C87.4468 85.3765 87.5964 85.0095 87.5964 84.357C87.5964 82.6713 86.4273 81.176 84.4018 81.176C82.3492 81.176 80.9762 82.6849 80.9762 84.6424C80.9762 86.6543 82.4443 88.1632 84.6329 88.1632ZM82.7842 84.0579C82.9473 83.1743 83.5862 82.7257 84.4154 82.7257C85.2174 82.7257 85.8156 83.1743 85.9243 84.0579H82.7842Z" fill="#171923"/>
<path d="M91.6838 88.1632C92.6762 88.1632 93.3966 87.7418 93.8588 87.0621L93.886 87.7962C93.886 87.9185 93.9676 88.0001 94.0899 88.0001H95.4085C95.5309 88.0001 95.626 87.9185 95.626 87.7962V81.5431C95.626 81.4207 95.5444 81.3392 95.4221 81.3392H94.0899C93.9676 81.3392 93.886 81.4207 93.886 81.5431L93.8588 82.2771C93.4102 81.5838 92.6898 81.176 91.6838 81.176C89.8079 81.176 88.5165 82.6985 88.5165 84.6696C88.5165 86.6543 89.8079 88.1632 91.6838 88.1632ZM90.3516 84.6696C90.3516 83.6093 91.0857 82.8888 92.078 82.8888C93.0704 82.8888 93.7637 83.5957 93.7637 84.6696C93.7637 85.7435 93.0704 86.4504 92.078 86.4504C91.0857 86.4504 90.3516 85.7435 90.3516 84.6696Z" fill="#171923"/>
<path d="M97.4501 88.0001H98.9182C99.0406 88.0001 99.1221 87.9185 99.1221 87.7962V84.4657C99.1221 83.5142 99.6115 82.9024 100.536 82.9024C100.726 82.9024 100.876 82.9296 101.025 82.9704C101.202 83.0112 101.297 82.9704 101.297 82.8073V81.611C101.297 81.4887 101.27 81.4071 101.175 81.3392C101.066 81.2576 100.876 81.176 100.563 81.176C99.7746 81.176 99.3532 81.7062 99.1221 82.4131L99.0678 81.5567C99.0542 81.3935 98.9862 81.3392 98.8639 81.3392H97.4501C97.3278 81.3392 97.2462 81.4207 97.2462 81.5431V87.7962C97.2462 87.9185 97.3278 88.0001 97.4501 88.0001Z" fill="#171923"/>
<path d="M102.707 88.0001H104.175C104.298 88.0001 104.379 87.9185 104.379 87.7962V84.3434C104.379 83.4054 104.896 82.9024 105.684 82.9024C106.486 82.9024 106.921 83.4054 106.921 84.3434V87.7962C106.921 87.9185 107.003 88.0001 107.125 88.0001H108.58C108.702 88.0001 108.797 87.9185 108.797 87.7962V83.922C108.797 82.182 107.778 81.176 106.391 81.176C105.399 81.176 104.76 81.6654 104.379 82.3451L104.325 81.5567C104.325 81.3935 104.243 81.3392 104.121 81.3392H102.707C102.585 81.3392 102.503 81.4207 102.503 81.5431V87.7962C102.503 87.9185 102.585 88.0001 102.707 88.0001Z" fill="#171923"/>
<path d="M113.719 88.1632C114.657 88.1632 115.513 87.8913 116.084 87.3204C116.206 87.2117 116.22 87.1165 116.152 87.0213L115.649 86.3281C115.581 86.2329 115.513 86.2193 115.418 86.2737C114.874 86.5863 114.385 86.6815 113.868 86.6815C112.794 86.6815 112.101 86.2193 111.897 85.3765H115.948C116.533 85.3765 116.682 85.0095 116.682 84.357C116.682 82.6713 115.513 81.176 113.488 81.176C111.435 81.176 110.062 82.6849 110.062 84.6424C110.062 86.6543 111.53 88.1632 113.719 88.1632ZM111.87 84.0579C112.033 83.1743 112.672 82.7257 113.501 82.7257C114.303 82.7257 114.901 83.1743 115.01 84.0579H111.87Z" fill="#171923"/>
<path d="M118.146 88.0001H119.614C119.737 88.0001 119.818 87.9185 119.818 87.7962V84.4657C119.818 83.5142 120.307 82.9024 121.232 82.9024C121.422 82.9024 121.572 82.9296 121.721 82.9704C121.898 83.0112 121.993 82.9704 121.993 82.8073V81.611C121.993 81.4887 121.966 81.4071 121.871 81.3392C121.762 81.2576 121.572 81.176 121.259 81.176C120.471 81.176 120.049 81.7062 119.818 82.4131L119.764 81.5567C119.75 81.3935 119.682 81.3392 119.56 81.3392H118.146C118.024 81.3392 117.942 81.4207 117.942 81.5431V87.7962C117.942 87.9185 118.024 88.0001 118.146 88.0001Z" fill="#171923"/>
<path d="M125.337 88.1632C126.669 88.1632 127.824 87.4699 127.838 86.1242C127.851 85.1046 127.185 84.5201 126.342 84.1803L125.404 83.8132C125.037 83.6773 124.766 83.5006 124.766 83.1743C124.766 82.8888 124.969 82.6442 125.404 82.6442C125.799 82.6442 126.179 82.8345 126.614 83.2015C126.737 83.2967 126.832 83.3103 126.927 83.2015L127.525 82.481C127.593 82.3995 127.62 82.2907 127.539 82.1956C126.981 81.5295 126.179 81.176 125.309 81.176C124.072 81.176 122.985 81.9101 122.985 83.1879C122.985 84.1123 123.583 84.6832 124.439 85.0231L125.282 85.3629C125.772 85.5668 125.975 85.7163 125.975 86.0426C125.975 86.4232 125.676 86.5999 125.228 86.5999C124.711 86.5999 124.249 86.3688 123.692 85.9474C123.583 85.8659 123.461 85.8387 123.352 86.0018L122.876 86.6679C122.781 86.8174 122.767 86.967 122.849 87.0621C123.379 87.6874 124.222 88.1632 125.337 88.1632Z" fill="#171923"/>
<path d="M132.032 88.0001H133.5C133.622 88.0001 133.704 87.9185 133.704 87.7962V84.3434C133.704 83.4054 134.22 82.9024 135.009 82.9024C135.811 82.9024 136.246 83.4054 136.246 84.3434V87.7962C136.246 87.9185 136.327 88.0001 136.45 88.0001H137.904C138.027 88.0001 138.122 87.9185 138.122 87.7962V83.922C138.122 82.182 137.102 81.176 135.716 81.176C134.723 81.176 134.085 81.6654 133.704 82.3451L133.65 81.5567C133.65 81.3935 133.568 81.3392 133.446 81.3392H132.032C131.91 81.3392 131.828 81.4207 131.828 81.5431V87.7962C131.828 87.9185 131.91 88.0001 132.032 88.0001Z" fill="#171923"/>
<path d="M143.044 88.1632C143.982 88.1632 144.838 87.8913 145.409 87.3204C145.531 87.2117 145.545 87.1165 145.477 87.0213L144.974 86.3281C144.906 86.2329 144.838 86.2193 144.743 86.2737C144.199 86.5863 143.71 86.6815 143.193 86.6815C142.119 86.6815 141.426 86.2193 141.222 85.3765H145.273C145.857 85.3765 146.007 85.0095 146.007 84.357C146.007 82.6713 144.838 81.176 142.812 81.176C140.76 81.176 139.387 82.6849 139.387 84.6424C139.387 86.6543 140.855 88.1632 143.044 88.1632ZM141.195 84.0579C141.358 83.1743 141.997 82.7257 142.826 82.7257C143.628 82.7257 144.226 83.1743 144.335 84.0579H141.195Z" fill="#171923"/>
<path d="M150.584 88.1632C151.522 88.1632 152.378 87.8913 152.949 87.3204C153.071 87.2117 153.085 87.1165 153.017 87.0213L152.514 86.3281C152.446 86.2329 152.378 86.2193 152.283 86.2737C151.739 86.5863 151.25 86.6815 150.733 86.6815C149.659 86.6815 148.966 86.2193 148.762 85.3765H152.813C153.398 85.3765 153.547 85.0095 153.547 84.357C153.547 82.6713 152.378 81.176 150.353 81.176C148.3 81.176 146.927 82.6849 146.927 84.6424C146.927 86.6543 148.395 88.1632 150.584 88.1632ZM148.735 84.0579C148.898 83.1743 149.537 82.7257 150.366 82.7257C151.168 82.7257 151.766 83.1743 151.875 84.0579H148.735Z" fill="#171923"/>
<path d="M157.635 88.1632C158.627 88.1632 159.348 87.7418 159.81 87.0621L159.837 87.7962C159.837 87.9185 159.918 88.0001 160.041 88.0001H161.359C161.482 88.0001 161.577 87.9185 161.577 87.7962V78.4845C161.577 78.3621 161.495 78.2806 161.373 78.2806H159.891C159.769 78.2806 159.687 78.3621 159.687 78.4845V82.114C159.239 81.5159 158.559 81.176 157.635 81.176C155.759 81.176 154.467 82.6985 154.467 84.6696C154.467 86.6543 155.759 88.1632 157.635 88.1632ZM156.303 84.6696C156.303 83.6093 157.037 82.8888 158.029 82.8888C159.021 82.8888 159.715 83.5957 159.715 84.6696C159.715 85.7435 159.021 86.4504 158.029 86.4504C157.037 86.4504 156.303 85.7435 156.303 84.6696Z" fill="#171923"/>
<path d="M166.056 88.0001H167.524C167.647 88.0001 167.728 87.9185 167.728 87.7962V84.3434C167.728 83.4054 168.245 82.9024 169.033 82.9024C169.835 82.9024 170.27 83.4054 170.27 84.3434V87.7962C170.27 87.9185 170.352 88.0001 170.474 88.0001H171.929C172.051 88.0001 172.146 87.9185 172.146 87.7962V83.922C172.146 82.182 171.127 81.176 169.74 81.176C168.748 81.176 168.109 81.6654 167.728 82.3451V78.4845C167.728 78.3621 167.647 78.2806 167.524 78.2806H166.056C165.934 78.2806 165.852 78.3621 165.852 78.4845V87.7962C165.852 87.9185 165.934 88.0001 166.056 88.0001Z" fill="#171923"/>
<path d="M177.068 88.1632C178.006 88.1632 178.862 87.8913 179.433 87.3204C179.555 87.2117 179.569 87.1165 179.501 87.0213L178.998 86.3281C178.93 86.2329 178.862 86.2193 178.767 86.2737C178.223 86.5863 177.734 86.6815 177.217 86.6815C176.143 86.6815 175.45 86.2193 175.246 85.3765H179.297C179.882 85.3765 180.031 85.0095 180.031 84.357C180.031 82.6713 178.862 81.176 176.837 81.176C174.784 81.176 173.411 82.6849 173.411 84.6424C173.411 86.6543 174.879 88.1632 177.068 88.1632ZM175.219 84.0579C175.382 83.1743 176.021 82.7257 176.85 82.7257C177.652 82.7257 178.25 83.1743 178.359 84.0579H175.219Z" fill="#171923"/>
<path d="M181.495 88.0001H182.977C183.099 88.0001 183.181 87.9185 183.181 87.7962V78.4845C183.181 78.3621 183.099 78.2806 182.977 78.2806H181.495C181.373 78.2806 181.291 78.3621 181.291 78.4845V87.7962C181.291 87.9185 181.373 88.0001 181.495 88.0001Z" fill="#171923"/>
<path d="M185 90.5829H186.481C186.604 90.5829 186.685 90.5013 186.685 90.379V87.2117C187.148 87.8098 187.841 88.1632 188.752 88.1632C190.614 88.1632 191.905 86.6543 191.905 84.6696C191.905 82.6985 190.614 81.176 188.752 81.176C187.732 81.176 187.025 81.5838 186.577 82.2771L186.549 81.5431C186.549 81.4207 186.468 81.3392 186.345 81.3392H185C184.877 81.3392 184.796 81.4207 184.796 81.5431V90.379C184.796 90.5013 184.877 90.5829 185 90.5829ZM186.658 84.6696C186.658 83.5957 187.351 82.8888 188.357 82.8888C189.336 82.8888 190.07 83.6093 190.07 84.6696C190.07 85.7435 189.336 86.4504 188.357 86.4504C187.351 86.4504 186.658 85.7435 186.658 84.6696Z" fill="#171923"/>
<path d="M197.785 88.0001H199.294C199.402 88.0001 199.497 87.9457 199.538 87.837L201.02 83.5142L202.515 87.837C202.556 87.9457 202.651 88.0001 202.76 88.0001H204.269C204.378 88.0001 204.473 87.9457 204.514 87.837L206.593 81.5703C206.648 81.4207 206.58 81.3392 206.43 81.3392H205.016C204.908 81.3392 204.799 81.3935 204.758 81.5023L203.426 85.8251L201.985 81.5023C201.944 81.3935 201.849 81.3392 201.74 81.3392H200.313C200.204 81.3392 200.109 81.3935 200.068 81.5023L198.614 85.8251L197.282 81.5023C197.241 81.3935 197.146 81.3392 197.037 81.3392H195.61C195.46 81.3392 195.392 81.4207 195.446 81.5703L197.54 87.837C197.581 87.9457 197.676 88.0001 197.785 88.0001Z" fill="#171923"/>
<path d="M208.78 80.1565C209.378 80.1565 209.813 79.6943 209.813 79.1098C209.813 78.5388 209.378 78.0767 208.78 78.0767C208.182 78.0767 207.733 78.5388 207.733 79.1098C207.733 79.6943 208.182 80.1565 208.78 80.1565ZM207.828 87.7962C207.828 87.9185 207.91 88.0001 208.032 88.0001H209.514C209.636 88.0001 209.718 87.9185 209.718 87.7962V81.5431C209.718 81.4207 209.636 81.3392 209.514 81.3392H208.032C207.91 81.3392 207.828 81.4207 207.828 81.5431V87.7962Z" fill="#171923"/>
<path d="M213.864 88.0817C214.313 88.0817 214.992 88.0001 214.992 87.6874V86.6951C214.992 86.5592 214.897 86.4912 214.748 86.5048C214.585 86.5184 214.449 86.5184 214.326 86.5184C213.973 86.5184 213.742 86.3281 213.742 85.9338V82.7937H214.788C214.911 82.7937 214.992 82.7121 214.992 82.5898V81.5431C214.992 81.4207 214.911 81.3392 214.788 81.3392H213.742V79.7759C213.742 79.6535 213.66 79.572 213.538 79.572H212.056C211.934 79.572 211.852 79.6535 211.852 79.7759V81.3392H211.009C210.887 81.3392 210.806 81.4207 210.806 81.5431V82.5898C210.806 82.7121 210.887 82.7937 211.009 82.7937H211.852V86.1378C211.852 87.5923 212.804 88.0817 213.864 88.0817Z" fill="#171923"/>
<path d="M216.395 88.0001H217.864C217.986 88.0001 218.067 87.9185 218.067 87.7962V84.3434C218.067 83.4054 218.584 82.9024 219.372 82.9024C220.174 82.9024 220.609 83.4054 220.609 84.3434V87.7962C220.609 87.9185 220.691 88.0001 220.813 88.0001H222.268C222.39 88.0001 222.485 87.9185 222.485 87.7962V83.922C222.485 82.182 221.466 81.176 220.079 81.176C219.087 81.176 218.448 81.6654 218.067 82.3451V78.4845C218.067 78.3621 217.986 78.2806 217.864 78.2806H216.395C216.273 78.2806 216.192 78.3621 216.192 78.4845V87.7962C216.192 87.9185 216.273 88.0001 216.395 88.0001Z" fill="#171923"/>
<path d="M226.582 88.0001H228.186C228.295 88.0001 228.376 87.9593 228.417 87.837L228.879 86.4368H232.468L232.93 87.837C232.971 87.9593 233.053 88.0001 233.161 88.0001H234.766C234.915 88.0001 234.997 87.9049 234.942 87.769L231.761 78.6476C231.721 78.5388 231.612 78.4845 231.503 78.4845H229.858C229.749 78.4845 229.641 78.5388 229.6 78.6476L226.419 87.769C226.365 87.9049 226.433 88.0001 226.582 88.0001ZM229.437 84.7104L230.674 80.9313L231.911 84.7104H229.437Z" fill="#171923"/>
<path d="M236.428 88.0001H237.909C238.032 88.0001 238.113 87.9185 238.113 87.7962V78.4845C238.113 78.3621 238.032 78.2806 237.909 78.2806H236.428C236.305 78.2806 236.224 78.3621 236.224 78.4845V87.7962C236.224 87.9185 236.305 88.0001 236.428 88.0001Z" fill="#171923"/>
<path d="M242.868 90.7868C244.513 90.7868 246.389 90.0256 246.389 87.6331V81.5431C246.389 81.4207 246.308 81.3392 246.185 81.3392H244.853C244.731 81.3392 244.636 81.4207 244.636 81.5431L244.609 82.1548C244.187 81.5295 243.507 81.176 242.529 81.176C240.653 81.176 239.389 82.5626 239.389 84.5201C239.389 86.4912 240.653 87.8642 242.529 87.8642C243.48 87.8642 244.174 87.4971 244.595 86.899V87.6195C244.595 88.8565 243.63 89.2643 242.692 89.2643C242.107 89.2643 241.509 89.1012 240.925 88.7749C240.775 88.6934 240.653 88.7478 240.585 88.8837L240.191 89.6313C240.123 89.7537 240.136 89.9304 240.272 90.0256C240.925 90.5149 241.876 90.7868 242.868 90.7868ZM241.224 84.5201C241.224 83.5142 241.931 82.8617 242.896 82.8617C243.847 82.8617 244.527 83.5006 244.527 84.5201C244.527 85.5396 243.847 86.1785 242.896 86.1785C241.931 86.1785 241.224 85.5396 241.224 84.5201Z" fill="#171923"/>
<path d="M251.316 88.1632C252.254 88.1632 253.11 87.8913 253.681 87.3204C253.803 87.2117 253.817 87.1165 253.749 87.0213L253.246 86.3281C253.178 86.2329 253.11 86.2193 253.015 86.2737C252.471 86.5863 251.982 86.6815 251.465 86.6815C250.391 86.6815 249.698 86.2193 249.494 85.3765H253.545C254.13 85.3765 254.279 85.0095 254.279 84.357C254.279 82.6713 253.11 81.176 251.085 81.176C249.032 81.176 247.659 82.6849 247.659 84.6424C247.659 86.6543 249.127 88.1632 251.316 88.1632ZM249.467 84.0579C249.63 83.1743 250.269 82.7257 251.098 82.7257C251.9 82.7257 252.498 83.1743 252.607 84.0579H249.467Z" fill="#171923"/>
<path d="M259.495 88.1632C261.357 88.1632 262.649 86.6543 262.649 84.6696C262.649 82.6985 261.357 81.176 259.495 81.176C258.57 81.176 257.877 81.5159 257.429 82.114V78.4845C257.429 78.3621 257.347 78.2806 257.225 78.2806H255.743C255.621 78.2806 255.539 78.3621 255.539 78.4845V87.7962C255.539 87.9185 255.634 88.0001 255.757 88.0001H257.089C257.211 88.0001 257.293 87.9185 257.293 87.7962L257.32 87.0621C257.782 87.7418 258.489 88.1632 259.495 88.1632ZM257.401 84.6696C257.401 83.5957 258.095 82.8888 259.101 82.8888C260.079 82.8888 260.813 83.6093 260.813 84.6696C260.813 85.7435 260.079 86.4504 259.101 86.4504C258.095 86.4504 257.401 85.7435 257.401 84.6696Z" fill="#171923"/>
<path d="M264.133 88.0001H265.601C265.723 88.0001 265.805 87.9185 265.805 87.7962V84.4657C265.805 83.5142 266.294 82.9024 267.219 82.9024C267.409 82.9024 267.558 82.9296 267.708 82.9704C267.885 83.0112 267.98 82.9704 267.98 82.8073V81.611C267.98 81.4887 267.953 81.4071 267.858 81.3392C267.749 81.2576 267.558 81.176 267.246 81.176C266.457 81.176 266.036 81.7062 265.805 82.4131L265.751 81.5567C265.737 81.3935 265.669 81.3392 265.547 81.3392H264.133C264.01 81.3392 263.929 81.4207 263.929 81.5431V87.7962C263.929 87.9185 264.01 88.0001 264.133 88.0001Z" fill="#171923"/>
<path d="M271.828 88.1632C272.82 88.1632 273.54 87.7418 274.003 87.0621L274.03 87.7962C274.03 87.9185 274.111 88.0001 274.234 88.0001H275.552C275.675 88.0001 275.77 87.9185 275.77 87.7962V81.5431C275.77 81.4207 275.688 81.3392 275.566 81.3392H274.234C274.111 81.3392 274.03 81.4207 274.03 81.5431L274.003 82.2771C273.554 81.5838 272.833 81.176 271.828 81.176C269.952 81.176 268.66 82.6985 268.66 84.6696C268.66 86.6543 269.952 88.1632 271.828 88.1632ZM270.495 84.6696C270.495 83.6093 271.229 82.8888 272.222 82.8888C273.214 82.8888 273.907 83.5957 273.907 84.6696C273.907 85.7435 273.214 86.4504 272.222 86.4504C271.229 86.4504 270.495 85.7435 270.495 84.6696Z" fill="#171923"/>
<path d="M280.249 88.0001H281.717C281.839 88.0001 281.921 87.9185 281.921 87.7962V84.3434C281.921 83.4054 282.437 82.9024 283.226 82.9024C284.028 82.9024 284.463 83.4054 284.463 84.3434V87.7962C284.463 87.9185 284.544 88.0001 284.667 88.0001H286.121C286.244 88.0001 286.339 87.9185 286.339 87.7962V83.922C286.339 82.182 285.319 81.176 283.933 81.176C282.94 81.176 282.302 81.6654 281.921 82.3451L281.867 81.5567C281.867 81.3935 281.785 81.3392 281.663 81.3392H280.249C280.127 81.3392 280.045 81.4207 280.045 81.5431V87.7962C280.045 87.9185 280.127 88.0001 280.249 88.0001Z" fill="#171923"/>
<path d="M291.097 88.1632C293.096 88.1632 294.577 86.6407 294.577 84.6696C294.577 82.6985 293.096 81.176 291.097 81.176C289.086 81.176 287.604 82.6985 287.604 84.6696C287.604 86.6407 289.086 88.1632 291.097 88.1632ZM289.412 84.6696C289.412 83.5821 290.146 82.9024 291.097 82.9024C292.035 82.9024 292.769 83.5821 292.769 84.6696C292.769 85.7571 292.035 86.4368 291.097 86.4368C290.146 86.4368 289.412 85.7571 289.412 84.6696Z" fill="#171923"/>
<path d="M297.308 88.0001H298.817C298.926 88.0001 299.021 87.9457 299.062 87.837L300.544 83.5142L302.039 87.837C302.08 87.9457 302.175 88.0001 302.284 88.0001H303.793C303.901 88.0001 303.997 87.9457 304.037 87.837L306.117 81.5703C306.172 81.4207 306.104 81.3392 305.954 81.3392H304.54C304.432 81.3392 304.323 81.3935 304.282 81.5023L302.95 85.8251L301.509 81.5023C301.468 81.3935 301.373 81.3392 301.264 81.3392H299.837C299.728 81.3392 299.633 81.3935 299.592 81.5023L298.138 85.8251L296.805 81.5023C296.765 81.3935 296.669 81.3392 296.561 81.3392H295.133C294.984 81.3392 294.916 81.4207 294.97 81.5703L297.064 87.837C297.104 87.9457 297.2 88.0001 297.308 88.0001Z" fill="#171923"/>
<path d="M307.855 85.0774H308.943C309.092 85.0774 309.147 84.9959 309.147 84.8735L309.364 78.6884C309.364 78.566 309.283 78.4845 309.16 78.4845H307.651C307.529 78.4845 307.447 78.566 307.447 78.6884L307.651 84.8735C307.651 84.9959 307.733 85.0774 307.855 85.0774ZM307.284 87.0621C307.284 87.6738 307.774 88.1768 308.399 88.1768C309.024 88.1768 309.527 87.6738 309.527 87.0621C309.527 86.4368 309.024 85.9203 308.399 85.9203C307.774 85.9203 307.284 86.4368 307.284 87.0621Z" fill="#171923"/>
<path d="M42.4348 68.6522C36.2935 74.1957 32 80.663 32 85.0109C32 91.8043 36.2391 96.4783 42.4348 96.4783C48.5761 96.4783 52.8696 91.8043 52.8696 85.0109C52.8696 80.663 48.4674 74.1413 42.4348 68.6522ZM42.4348 93C38.5761 93 35.4783 90.1739 35.4783 86.6413C35.4783 84.1957 36.837 82.7283 37.3261 82.2935C37.4891 82.1304 37.7609 82.1304 37.9239 82.2935C38.0326 82.3478 38.0326 82.4565 38.0326 82.5652V82.6196V84.7935C38.0326 86.4239 39.4457 87.837 41.0761 87.837C42.7609 87.837 44.1196 86.4239 44.1196 84.7935C44.1196 80.8804 38.0326 81.2609 42 75.8261C42.163 75.6087 42.4348 75.6087 42.5978 75.663C42.6522 75.7174 42.8696 75.7717 42.8696 76.0435C42.8696 77.837 44.2283 79.0326 45.6957 80.2283C47.4891 81.8043 49.337 83.3804 49.337 86.6413C49.3913 90.1739 46.2391 93 42.4348 93Z" fill="#FFA800"/>
<rect x="24" y="163.304" width="16" height="16.6957" rx="4" fill="#EDF2F7"/>
<rect x="48" y="131" width="16" height="49" rx="4" fill="#EDF2F7"/>
<rect x="72" y="150" width="16" height="30" rx="4" fill="#EDF2F7"/>
<rect x="201" y="136" width="124" height="16" rx="4" fill="#EDF2F7"/>
<rect x="201" y="160" width="124" height="16" rx="4" fill="#EDF2F7"/>
<path d="M165.315 156.987H144.483C142.274 156.987 140.483 155.196 140.483 152.987V132.652C140.483 131.727 139.54 130.906 138.597 131.009C126.129 132.754 116.594 143.433 117.013 156.268C117.432 169 128.224 179.576 141.216 179.987C154.313 180.398 165.21 171.054 166.991 158.835C167.096 157.911 166.258 156.987 165.315 156.987Z" fill="#EDF2F7"/>
<path d="M170 150.333C169.063 137.833 159.167 127.937 146.667 127C145.729 127 145 127.833 145 128.771V148C145 150.209 146.791 152 149 152H168.229C169.271 152 170 151.271 170 150.333Z" fill="#EDF2F7"/>
<rect x="247.211" y="169.211" width="140.579" height="47.5787" rx="2.01772" fill="#F7FAFC" stroke="#CBD5E0" stroke-width="2.42126"/>
<path d="M265.41 199H267.308C267.459 199 267.559 198.899 267.559 198.748V194.281H271.875V198.748C271.875 198.899 271.976 199 272.127 199H274.025C274.176 199 274.276 198.899 274.276 198.748V187.497C274.276 187.346 274.176 187.245 274.025 187.245H272.127C271.976 187.245 271.875 187.346 271.875 187.497V192.166H267.559V187.497C267.559 187.346 267.459 187.245 267.308 187.245H265.41C265.259 187.245 265.158 187.346 265.158 187.497V198.748C265.158 198.899 265.259 199 265.41 199Z" fill="#2A84EE"/>
<path d="M280.316 199.202C282.784 199.202 284.615 197.321 284.615 194.886C284.615 192.451 282.784 190.57 280.316 190.57C277.831 190.57 276 192.451 276 194.886C276 197.321 277.831 199.202 280.316 199.202ZM278.234 194.886C278.234 193.543 279.141 192.703 280.316 192.703C281.475 192.703 282.381 193.543 282.381 194.886C282.381 196.229 281.475 197.069 280.316 197.069C279.141 197.069 278.234 196.229 278.234 194.886Z" fill="#2A84EE"/>
<path d="M288.818 199.202C290.463 199.202 291.891 198.345 291.908 196.683C291.924 195.423 291.101 194.701 290.06 194.281L288.902 193.828C288.448 193.66 288.112 193.442 288.112 193.039C288.112 192.686 288.364 192.384 288.902 192.384C289.389 192.384 289.859 192.619 290.396 193.072C290.547 193.19 290.665 193.207 290.782 193.072L291.521 192.182C291.605 192.082 291.639 191.947 291.538 191.83C290.85 191.007 289.859 190.57 288.784 190.57C287.256 190.57 285.913 191.477 285.913 193.056C285.913 194.197 286.652 194.903 287.709 195.323L288.751 195.742C289.355 195.994 289.607 196.179 289.607 196.582C289.607 197.052 289.238 197.27 288.683 197.27C288.045 197.27 287.474 196.985 286.786 196.464C286.652 196.364 286.5 196.33 286.366 196.532L285.778 197.354C285.661 197.539 285.644 197.724 285.745 197.841C286.4 198.614 287.441 199.202 288.818 199.202Z" fill="#2A84EE"/>
<path d="M296.503 199.101C297.057 199.101 297.897 199 297.897 198.614V197.388C297.897 197.22 297.78 197.136 297.595 197.153C297.393 197.17 297.225 197.17 297.074 197.17C296.638 197.17 296.352 196.935 296.352 196.448V192.569H297.645C297.796 192.569 297.897 192.468 297.897 192.317V191.024C297.897 190.873 297.796 190.772 297.645 190.772H296.352V188.841C296.352 188.69 296.251 188.589 296.1 188.589H294.27C294.119 188.589 294.018 188.69 294.018 188.841V190.772H292.977C292.826 190.772 292.725 190.873 292.725 191.024V192.317C292.725 192.468 292.826 192.569 292.977 192.569H294.018V196.7C294.018 198.496 295.194 199.101 296.503 199.101Z" fill="#2A84EE"/>
<path d="M306.151 199.202C307.377 199.202 308.267 198.681 308.838 197.841L308.871 198.748C308.871 198.899 308.972 199 309.123 199H310.752C310.903 199 311.021 198.899 311.021 198.748V191.024C311.021 190.873 310.92 190.772 310.769 190.772H309.123C308.972 190.772 308.871 190.873 308.871 191.024L308.838 191.931C308.284 191.074 307.394 190.57 306.151 190.57C303.834 190.57 302.238 192.451 302.238 194.886C302.238 197.338 303.834 199.202 306.151 199.202ZM304.505 194.886C304.505 193.576 305.412 192.686 306.638 192.686C307.864 192.686 308.72 193.559 308.72 194.886C308.72 196.213 307.864 197.086 306.638 197.086C305.412 197.086 304.505 196.213 304.505 194.886Z" fill="#2A84EE"/>
<path d="M319.946 199.202C321.944 199.202 323.875 198.11 323.875 195.742C323.875 193.761 322.532 192.972 321.256 192.367L320.047 191.813C319.14 191.393 318.67 191.124 318.67 190.436C318.67 189.731 319.207 189.311 320.063 189.311C320.802 189.311 321.39 189.63 322.112 190.268C322.246 190.369 322.381 190.335 322.481 190.201L323.439 189.042C323.539 188.908 323.539 188.774 323.422 188.656C322.498 187.665 321.373 187.111 319.979 187.111C317.981 187.111 316.352 188.287 316.352 190.419C316.352 192.166 317.461 193.056 318.703 193.627L320.13 194.298C320.953 194.668 321.541 194.953 321.541 195.742C321.541 196.582 320.886 197.002 319.895 197.002C318.938 197.002 318.267 196.599 317.528 195.843C317.393 195.726 317.259 195.742 317.141 195.877L316.168 197.002C316.05 197.136 316.05 197.254 316.134 197.371C316.822 198.312 318.115 199.202 319.946 199.202Z" fill="#2A84EE"/>
<path d="M329.714 199.202C330.872 199.202 331.93 198.866 332.635 198.16C332.787 198.026 332.803 197.909 332.719 197.791L332.098 196.935C332.014 196.817 331.93 196.8 331.813 196.867C331.141 197.254 330.536 197.371 329.898 197.371C328.572 197.371 327.715 196.8 327.463 195.759H332.468C333.19 195.759 333.374 195.306 333.374 194.5C333.374 192.417 331.93 190.57 329.428 190.57C326.893 190.57 325.196 192.434 325.196 194.852C325.196 197.338 327.01 199.202 329.714 199.202ZM327.43 194.13C327.631 193.039 328.421 192.485 329.445 192.485C330.436 192.485 331.175 193.039 331.309 194.13H327.43Z" fill="#2A84EE"/>
<path d="M337.571 199.202C339.217 199.202 340.644 198.345 340.661 196.683C340.678 195.423 339.855 194.701 338.814 194.281L337.655 193.828C337.202 193.66 336.866 193.442 336.866 193.039C336.866 192.686 337.118 192.384 337.655 192.384C338.142 192.384 338.612 192.619 339.15 193.072C339.301 193.19 339.418 193.207 339.536 193.072L340.275 192.182C340.359 192.082 340.392 191.947 340.291 191.83C339.603 191.007 338.612 190.57 337.538 190.57C336.009 190.57 334.666 191.477 334.666 193.056C334.666 194.197 335.405 194.903 336.463 195.323L337.504 195.742C338.108 195.994 338.36 196.179 338.36 196.582C338.36 197.052 337.991 197.27 337.437 197.27C336.799 197.27 336.228 196.985 335.539 196.464C335.405 196.364 335.254 196.33 335.119 196.532L334.532 197.354C334.414 197.539 334.397 197.724 334.498 197.841C335.153 198.614 336.194 199.202 337.571 199.202Z" fill="#2A84EE"/>
<path d="M345.115 199.202C346.76 199.202 348.187 198.345 348.204 196.683C348.221 195.423 347.398 194.701 346.357 194.281L345.198 193.828C344.745 193.66 344.409 193.442 344.409 193.039C344.409 192.686 344.661 192.384 345.198 192.384C345.685 192.384 346.156 192.619 346.693 193.072C346.844 193.19 346.962 193.207 347.079 193.072L347.818 192.182C347.902 192.082 347.936 191.947 347.835 191.83C347.146 191.007 346.156 190.57 345.081 190.57C343.553 190.57 342.209 191.477 342.209 193.056C342.209 194.197 342.948 194.903 344.006 195.323L345.047 195.742C345.652 195.994 345.904 196.179 345.904 196.582C345.904 197.052 345.534 197.27 344.98 197.27C344.342 197.27 343.771 196.985 343.083 196.464C342.948 196.364 342.797 196.33 342.663 196.532L342.075 197.354C341.958 197.539 341.941 197.724 342.042 197.841C342.696 198.614 343.738 199.202 345.115 199.202Z" fill="#2A84EE"/>
<path d="M351.046 189.311C351.785 189.311 352.322 188.74 352.322 188.018C352.322 187.313 351.785 186.742 351.046 186.742C350.307 186.742 349.753 187.313 349.753 188.018C349.753 188.74 350.307 189.311 351.046 189.311ZM349.87 198.748C349.87 198.899 349.971 199 350.122 199H351.953C352.104 199 352.205 198.899 352.205 198.748V191.024C352.205 190.873 352.104 190.772 351.953 190.772H350.122C349.971 190.772 349.87 190.873 349.87 191.024V198.748Z" fill="#2A84EE"/>
<path d="M358.111 199.202C360.58 199.202 362.41 197.321 362.41 194.886C362.41 192.451 360.58 190.57 358.111 190.57C355.626 190.57 353.796 192.451 353.796 194.886C353.796 197.321 355.626 199.202 358.111 199.202ZM356.029 194.886C356.029 193.543 356.936 192.703 358.111 192.703C359.27 192.703 360.177 193.543 360.177 194.886C360.177 196.229 359.27 197.069 358.111 197.069C356.936 197.069 356.029 196.229 356.029 194.886Z" fill="#2A84EE"/>
<path d="M364.225 199H366.038C366.189 199 366.29 198.899 366.29 198.748V194.483C366.29 193.324 366.928 192.703 367.902 192.703C368.893 192.703 369.43 193.324 369.43 194.483V198.748C369.43 198.899 369.531 199 369.682 199H371.479C371.63 199 371.748 198.899 371.748 198.748V193.962C371.748 191.813 370.488 190.57 368.775 190.57C367.55 190.57 366.76 191.175 366.29 192.014L366.223 191.041C366.223 190.839 366.122 190.772 365.971 190.772H364.225C364.074 190.772 363.973 190.873 363.973 191.024V198.748C363.973 198.899 364.074 199 364.225 199Z" fill="#2A84EE"/>
<path d="M350.5 212.146V233.124C350.5 235.694 353.78 236.775 355.308 234.708L358.268 230.705L364.114 240.742C364.858 242.019 366.499 242.447 367.772 241.696L371.094 239.735C372.383 238.974 372.793 237.301 372 236.03L366.087 226.547L370.484 225.671C372.829 225.204 373.42 222.124 371.415 220.822L354.617 209.911C352.844 208.759 350.5 210.032 350.5 212.146ZM358.57 230.296C358.57 230.296 358.57 230.296 358.57 230.296L358.57 230.296Z" fill="#F7FAFC" stroke="#171923" stroke-width="3"/>
</svg>
