<?xml version="1.0" encoding="utf-8"?>
<!-- Generator: Adobe Illustrator 25.4.1, SVG Export Plug-In . SVG Version: 6.00 Build 0)  -->
<svg version="1.0" id="layer" xmlns="http://www.w3.org/2000/svg" xmlns:xlink="http://www.w3.org/1999/xlink" x="0px" y="0px"
	 viewBox="0 0 637.4 246" enable-background="new 0 0 637.4 246" xml:space="preserve">
<g>
	<path fill="#8C1515" d="M308.4,117.8c-15.9,0-17.2-12.1-17.2-15.7c0-4.2,1-12.1,11.3-15.9c10.4-3.8,12.6-4.2,20-6.6v-1.8
		c0-3.6,0-4.2-0.8-6.6c-1.3-4.1-5.3-6.9-10.9-6.9c-5.3,0-9.8,3-11.9,7.4l-3-1.8c1.8-6.6,8.6-13.1,20.2-13.1c8,0,13.6,2.3,16.9,7.4
		c2.5,4.1,2.8,9.6,2.8,15.2c0,5.1-0.3,10.7-0.3,15.2c0,3-0.3,5.9-0.3,7.5c0,4.1,0.8,7.4,4.1,7.4c1.5,0,1.8-0.5,3-1.3l1.8,2.3
		c-3,4.1-6.6,7.4-12.4,7.4c-4.5,0-7.8-2.3-9.2-6C320.5,114.5,315.7,117.8,308.4,117.8z M322.4,86.8c-7.8,2.3-10.7,3.6-12.9,4.8
		c-3.6,1.8-5.1,5.1-5.1,9.3c0,3.3,1.3,8.6,8.9,8.6c2.5,0,6-0.5,9.3-2.8v-20L322.4,86.8L322.4,86.8z M190.8,114.6
		c0-5.9,0-10.9-0.5-16.9h3.6c0,3.8,1,6.6,2.8,8.3c2.5,2.8,8.3,4.5,13.6,4.5c11.1,0,16.4-4.2,16.4-13.4c0-7.8-4.8-11.1-11.3-15.7
		l-1-0.8l-7.1-4.8c-9.8-6.6-14.9-11.6-14.9-22c0-5.1,2-21.8,26.5-21.8c6.3,0,14.4,0.8,19.2,1.5c0,0.8-0.3,4.5-0.3,7.8
		c0,3.8,0,4.8,0.3,9.3h-3c0-4.1-1.3-6.6-3-8.3c-2.3-2.3-7.5-3.6-13.1-3.6c-13.1,0-14.6,6.6-14.6,11.6c0,6.9,3.6,9.3,11.3,14.4
		l8.9,5.9c7.5,5.1,14.6,9.8,14.6,22.5c0,21.2-20,23.5-28.3,23.5C203.2,117.8,196.8,116.6,190.8,114.6z M349.5,60.6
		c3,0.3,7.5,0,11.9-0.8c3.8-0.8,5.1-1.3,7.8-2.5l1.3,0.8v4.5c3-2.3,8.9-5.6,17.2-5.6c10.7,0,17.5,5.1,19.4,13.9
		c0.5,2.3,0.8,7.5,0.8,10.7v17.2c0,9.6,0.5,12.4,2.3,14.2c1,0.8,3,1.8,5.9,1.8v2.8c-3.8-0.3-10.7-0.5-14.6-0.5
		c-5.3,0-11.3,0.3-14.6,0.5v-2.8c3-0.3,4.8-1.3,5.9-2c1.8-1.8,2-5.1,2.3-12.4c0-2.3,0.3-6.9,0.3-10.1c0-4.2,0-8.9-0.5-13.4
		c-0.8-7.5-4.8-11.1-12.4-11.1c-5.3,0-8.6,1.3-11.1,2.5v30.8c0,9.6,0.5,12.4,2.3,14.2c1,0.8,3.3,1.8,5.6,1.8v2.8
		c-4.8-0.3-10.7-0.5-14.4-0.5c-7.8,0-10.4,0.3-14.9,0.5v-2.9c2.5,0,5.1-1,6.3-2.5c1.8-2,2-7.1,2-16.9V78c0-7.4-0.3-10.4-1.3-11.9
		c-0.8-1.3-2.8-2.3-6.9-2.3v-3.3h-0.5v0.1H349.5z M422.6,114.5c2.5,0,5.1-0.8,6.3-2.5c1.8-2,2-7.1,2-16.9V65.7h-7.5v-3.3
		c3.3-1.3,6-2.8,7.5-4.1c0-5.3,0.3-11.9,1-15.7c2.3-12.1,10.1-18.2,23.5-18.2c5.9,0,11.3,2,14.9,4.8l0.3,1.3l-5.9,8h-1.5
		c-2-4.8-5.1-7.5-10.4-7.5c-1.8,0-4.2,0.5-5.9,2c-2.5,2.5-3,6.3-3,13.9v11.3h13.1v7.4H444v32.6c0,7.8,0.3,11.6,1.3,13.1
		c1.5,2.5,6.9,2.8,9.3,2.8v3c-4.2-0.3-11.1-0.5-15.9-0.5c-7.4,0-12.1,0.3-15.9,0.5L422.6,114.5L422.6,114.5z M490.3,118.2
		c-17.9,0-28.5-11.1-28.5-29.8c0-14.6,7.8-31.6,29.8-31.6c17.9,0,28.5,11.1,28.5,29.8C520.1,101.2,512.2,118.2,490.3,118.2z
		 M491.1,63.6c-3.6,0-6.3,1-8.3,2.8c-4.8,4.1-7.1,11.1-7.1,21.5c0,4.1,0.8,23.8,15.2,23.8c3.6,0,6.3-1,8.3-2.8
		c4.8-4.1,7.1-11.1,7.1-21.5C506.2,83.3,505.5,63.6,491.1,63.6z M526.1,60.3c4.1,0.3,8.3-0.3,12.9-1c3.6-0.5,5.9-1.3,7.1-2l1,0.5
		v5.1c2.8-2.8,7.4-5.6,13.6-5.6c4.5,0,7.5,1.3,10.4,3.6v1.8l-5.1,9.2h-2.5c-1.5-2.8-4.5-5.3-9.8-5.3c-2.5,0-4.5,0.5-6.3,1.8v30.1
		c0,7.8,0.3,11.3,1.3,12.9c1.5,2.5,6.6,2.8,9.3,2.5v3.3c-4.1-0.3-11.1-0.5-15.9-0.5c-5.6,0-11.3,0-15.9,0.5v-3
		c3.3-0.3,5.1-1,6.3-2.5c1.8-2,2-6.9,2-16.9V78.3c0-7.4,0-10.4-1.3-11.9c-1-1.3-3-2-6.9-2v-3.8L526.1,60.3L526.1,60.3z M608.8,28
		c3.6,0,8-0.8,13.9-1.8c3.3-0.5,5.3-1.3,6.3-1.5l1,0.5c-0.5,4.8-0.5,15.7-0.5,23.5v48c0,7.1,0,11.6,1,13.1c1,1.3,3,2.3,6.9,2.3v3
		c-3.8,0-8,0.5-12.6,1.3c-3,0.5-5.3,1-6.6,1.5l-1.5-0.5v-5.1c-3,2.3-8.6,5.6-16.4,5.6c-16.2,0-26.5-11.1-26.5-28.5
		c0-5.9,1-11.1,3-15.9c5.1-10.7,15.2-16.7,28-16.7c4.8,0,8.9,0.5,11.3,1V45.2c0-7.4,0-11.1-1.3-12.9c-0.8-1.3-2-1.8-6.3-2v-2.4
		L608.8,28L608.8,28z M606.8,109.6c4.1,0,6.9-0.5,9.6-2.3V67.9c-1-1-4.5-4.1-11.6-4.1c-11.3,0-16.9,7.8-16.9,24.1
		C587.6,94.7,589.6,109.6,606.8,109.6z M285.3,111.4c-1.8,2.3-6.3,6.9-15.9,6.9c-9.2,0-14.2-3.3-16.4-10.7c-1-2.8-1-8.6-1-11.9
		c0-9.3,0-16.9,0.3-25.8v-4.1h-7.9v-2.3c3-1.3,5.3-2.5,7.4-4.1c4.5-3.6,7.5-7.8,10.9-14.2h2.5v13.1h20v7.4h-20v30.8
		c0,9.3,1.8,14.4,10.4,14.4c4.1,0,6.9-1.3,8.3-2.3L285.3,111.4z"/>
	<path fill="#8C1515" d="M517.9,164.7c-1,0-2.3,0.3-3,1c-0.8,0.5-0.8,1.3-0.8,1.8c0,1,0.3,1.8,1,3.8l5.6,14.6
		c0.8,2.3,1.5,4.1,1.8,5.3l6.9-20c0.8-2.3,1-2.8,1-3.8c0-0.5-0.3-1-0.8-1.5c-0.8-0.5-1.8-1-3-1v-2.3c0.8,0,2.5,0,3.3,0.3
		c0.8,0,2.3,0.3,3.6,0.3c2.5,0,6-0.3,7.5-0.3v2.3c-1,0.3-3.3-0.3-5.3,5.6l-14.4,38.4c-2,5.6-4.8,12.4-14.6,12.4c-4.1,0-6.9-1-9.2-3
		v-1l3.6-4.2h1c1,2.3,3,3.3,5.9,3.3c4.5,0,6.6-4.1,9.6-12.1l0.8-2.3l-12.1-31.5c0-0.3-0.3-0.8-0.5-1.3c-0.3-0.8-1-2.3-1-2.3
		c-0.8-1.5-2-2-3.6-2v-2.3c2.3,0.3,6.3,0.3,8.3,0.3c1.3,0,3.3,0,5.3-0.3c1,0,2.8-0.3,3.6-0.3v2H518v0.1H517.9z M384.1,164.2
		c2.5,0.3,5.3-0.3,8-0.8c2.3-0.5,3.6-0.8,4.5-1.3l0.8,0.3v3.3c1.8-1.8,4.5-3.6,8.6-3.6c3,0,4.8,0.8,6.6,2.3v1.3l-3,5.9h-1.5
		c-1-1.8-2.8-3.3-6.3-3.3c-1.5,0-2.8,0.5-4.1,1.3v19c0,5.1,0.3,7.4,0.8,8.3c1,1.5,4.1,1.8,5.9,1.8v2c-2.5-0.3-7.1-0.3-10.1-0.3
		c-3.6,0-7.4,0-10.1,0.5v-2c2,0,3.3-0.8,4.1-1.5c1.3-1.3,1.3-4.2,1.3-10.9v-10.7c0-4.5,0-6.6-0.8-7.5c-0.5-0.8-2-1.3-4.2-1.3v-2.8
		h-0.4L384.1,164.2L384.1,164.2z M215.8,200.8c-10.7,0-16.9-3.3-19.2-10.4c-1.3-3.6-1.3-8-1.3-11.6v-20.2c0-6-0.3-7.1-1.5-8
		c-0.5-0.5-1.8-1-3.6-1.3v-2c2.5,0.3,6.9,0.5,9.3,0.5c4.2,0,6.9,0,9.6-0.5v2.3c-1.8,0-3,0.5-4.1,1.5c-1.3,1.3-1.3,3.6-1.3,10.1v17.9
		c0,10.7,1,17.5,12.9,17.5c12.1,0,12.9-7.1,12.9-17.9v-19.7c0-6-0.3-7.1-1.5-8c-0.8-0.5-2-1-3.6-1.3v-2c2.3,0,5.3,0.3,8.3,0.3
		c2.8,0,5.6,0,8.9-0.5v2.3c-1.8,0-3,0.5-4.1,1.5c-1.3,1.3-1.3,3.6-1.3,10.1v15.2c0,4.8,0,10.1-1.5,14.4
		C232.5,197.6,226.4,200.8,215.8,200.8z M287.9,198.5c2-0.3,3.3-0.5,4.2-1.5c1.3-1.3,1.3-4.2,1.3-10.9v-10.7c0-4.5,0-6.9-0.8-7.8
		c-0.5-0.8-1.5-1.3-4.2-1.5v-2.3c1.5,0.3,5.6-0.3,8.6-0.8c1.5-0.3,3-0.8,4.1-1.3l0.8,0.8c-0.3,2.5-0.3,7.8-0.3,14.9v10.9
		c0,5.1,0.3,7.4,0.8,8.3c0.8,1,2.3,1.8,4.5,1.8v1.8c-2-0.3-5.9-0.3-9.2-0.3c-3.8,0-7.8,0.3-9.8,0.5L287.9,198.5L287.9,198.5z
		 M297.2,155.3c-3,0-4.8-1.8-4.8-4.5s2-4.8,5.1-4.8c3,0,4.8,1.8,4.8,4.5C302.2,153.5,300.2,155.3,297.2,155.3z M447.6,198.5
		c2-0.3,3.3-0.5,4.2-1.5c1.3-1.3,1.3-4.2,1.3-10.9v-10.7c0-4.5,0-6.9-0.8-7.8c-0.5-0.8-1.5-1.3-4.2-1.5v-2.3
		c1.5,0.3,5.6-0.3,8.6-0.8c1.5-0.3,3.3-0.8,4.1-1.3l0.8,0.8c-0.3,2.5-0.3,7.8-0.3,14.9v10.9c0,5.1,0.3,7.4,0.8,8.3
		c0.8,1,2.3,1.8,4.5,1.8v1.8c-2.3-0.3-6-0.3-9.3-0.3c-3.8,0-7.8,0.3-9.8,0.5v-2H447.6z M456.9,155.3c-3,0-4.8-1.8-4.8-4.5
		s2-4.8,5.1-4.8c3,0,4.8,1.8,4.8,4.5C462,153.5,459.9,155.3,456.9,155.3z M417,199c0-3.8-0.3-7.8-0.5-9.8h2.5c0,2,0.5,3.8,1.5,4.8
		c1.5,1.8,3.3,2.5,6.6,2.5h0.5c4.1,0,6.3-1.8,6.3-5.3c0-2.8-1.8-4.1-4.8-5.9l-5.3-3.3c-2.8-1.8-6-4.2-6-9.6c0-4.2,1.8-7.5,5.3-9.3
		c2.3-1.3,5.9-1.3,7.5-1.3c3,0,7.4,0.5,9.8,1c-0.3,1-0.3,3.6-0.3,4.5c0,0.8,0,4.2,0.3,5.1h-2.5c0-1.5-0.5-3-1.5-4.2
		c-1-1.3-3.3-2-6-2c-3.8,0-5.9,1.5-5.9,4.8c0,2.5,2,3.8,3.8,5.1h0.3l5.1,3c3.3,2,7.5,4.5,7.5,10.4c0,9.8-9.2,11.3-14.4,11.3
		C423.8,200.5,420.6,200.3,417,199z M496.3,196.6c-1.3,1.3-4.1,4.2-10.1,4.2c-5.9,0-9.2-2-10.4-6.9c-0.5-1.8-0.5-5.6-0.5-7.5
		c0-6,0-10.9,0-16.4v-2.5h-5.1v-1.5c2-0.8,3.3-1.5,4.8-2.5c2.8-2.3,4.8-5.1,7.1-9.2h1.8v8.3h12.6v4.5h-12.6V187c0,5.9,1,9.3,6.6,9.3
		c2.5,0,4.2-0.8,5.3-1.5L496.3,196.6z M325.4,162.7c-0.8,0-2.5,0-3.6,0.3c-2,0-4.1,0.3-5.6,0.3c-2.8,0-6.9-0.3-8-0.3v2.3
		c0.5,0,2.5-0.3,3.8,2.3c0.5,1,0.8,1.8,1,2.3c0.3,0.5,0.5,1,0.5,1.3l12.1,30.3l3.8-0.8l13.4-29.8c0-0.3,0.3-0.5,0.5-1
		c0.3-0.3,0.3-0.8,1.3-2.3c0.8-1.5,2.5-2.3,3.8-2.3V163c-1.5,0-4.8,0.3-7.4,0.3c-1.3,0-2.5,0-3.8-0.3c-1,0-2.5-0.3-3.6-0.3v2
		c1.3,0,2.5,0.5,3,1c0.3,0.3,0.8,1,0.8,1.5c0,0.8-0.3,1.5-1,3.8l-7.4,17.9c-0.3-1-0.8-2.5-1.5-4.5l-5.1-13.4c-0.8-2-1-2.8-1-3.8
		c0-0.5,0-1,0.5-1.3c0.8-0.8,2-1.3,3.3-1.3v-2h0V162.7z M242.9,164.2c2,0.3,4.8,0,7.5-0.5c2.3-0.5,3.3-0.8,5.1-1.5l0.8,0.5v3
		c1.8-1.5,5.9-3.6,10.9-3.6c6.9,0,11.1,3.3,12.4,8.9c0.3,1.5,0.5,4.8,0.5,6.9v10.9c0,6,0.3,7.8,1.5,9.2c0.5,0.5,2,1,3.6,1v1.8
		c-2.5,0-6.9-0.3-9.3-0.3c-3.6,0-7.4,0.3-9.3,0.5V199c1.8-0.3,3-0.8,3.8-1.3c1-1,1.3-3.3,1.5-7.8c0-1.5,0-4.2,0-6.6
		c0-2.8,0-5.9-0.3-8.6c-0.5-4.8-3-7.1-7.8-7.1c-3.3,0-5.6,0.8-7.1,1.5v19.8c0,6,0.3,7.8,1.5,9.2c0.5,0.5,2,1,3.6,1v1.8
		c-3.3-0.8-7.1-0.8-9.6-0.8c-5.1,0-6.6,0-9.3,0.5v-1.8c1.5,0,3.3-0.5,4.1-1.5c1-1.3,1.3-4.5,1.3-10.9v-10.7c0-4.5,0-6.6-0.8-7.5
		c-0.5-0.8-1.8-1.5-4.2-1.3v-2.8L242.9,164.2L242.9,164.2z M365.7,200.8c-11.3,0-17.5-6.6-17.5-18.5c0-2,0.5-20.5,17.7-20.5
		c5.1,0,9.6,2,11.6,5.6c2.3,3.6,2.5,7.1,2.5,10.1v2.3h-23.5c0,2,0.3,3.6,0.5,4.8c1.3,7.4,5.3,10.9,12.4,10.9c4.1,0,6.6-0.8,8.9-2.3
		l1,1.8C376.8,198.4,371.8,200.8,365.7,200.8z M356.6,175.6h14.6c0-4.5-0.8-9.6-7.4-9.6C358.1,166.3,356.9,171.7,356.6,175.6z"/>
</g>
<g>
	<path fill="#8C1515" d="M34.6,0L0,33.8v90.9l30,30.7h13.8c-0.3,0.9-0.8,2.3,0.2,3.7c1,1.5,2.8,1.5,3.5,1.5c0.8,0,1.9-0.1,3.7-0.3h0
		c0,0,0.7,0.6-1.5,1.4c-1.8,0.6-3.4,1.7-3.9,3.5c0,0.1,0,0.3-0.1,0.4H0l0,46.5l34.6,34h90.9l34.6-33.9V125l-30-30.6h-25.5
		c0,0,0,0,0,0c-1.1-0.7-2.3-1.4-3.3-2.1l-0.4-0.2l-0.1,0c-0.6-0.4-1.2-0.8-1.8-1.4c-0.6-0.5-1-0.9-1.4-1.3l-0.1-0.1
		c-0.7-0.7-1.3-1.4-1.7-2c4,1.1,8.3,1.4,10.4,1.5h0.2c0.1,0,0.3,0,0.4,0l0.2,0c0.5,0,0.9,0.1,1.1,0.2c0.3,0.1,0.5,0.2,0.7,0.3
		l1.1,0.4c0.3,0.1,0.5,0.1,0.8,0.1c1.6,0,3-0.9,3.7-2.4c0.2-0.5,0.6-1.5,0.3-2.8l45.4,0V33.9L125.4,0L34.6,0L34.6,0z"/>
	<path fill="#FFFFFF" d="M155.9,35.7L123.8,4.2H36.2L4.1,35.6V123l27.6,28.2l17.8,0c-2,1.8-2.6,3.7-2.9,4.6c-0.7,2-1.4,2.6,4.8,1.7
		c2-0.3,5.6-1.6,7.3-2.7c1.7-1.1,4.9-0.2,4.7,2.2c-1.5,3.8-5.5,6.1-9.3,6.6c-8.7,1.1-4.9,4.3-4.9,4.3c1,0.7,1.6,1.3,2.1,1.9h-4.2v0
		h-43l0,40.5l32.1,31.5h87.6l32.1-31.5v-83.5l-27.6-28.1h-22.3c-1.8-1.2-4.2-2.5-6.4-3.9c0,0,0,0,0,0c-0.8-0.5-1.7-1.1-2.4-1.8
		c-0.7-0.5-1.2-1.1-1.7-1.6c-1.9-2-3.4-4.1-3.8-5.1c-0.7-1.8-0.6-4,1.1-3.1c4.1,2.4,10.9,2.8,13.4,2.9c0.3,0,2.3,0.2,2.8,0.4
		c0.5,0.2,1.3,0.6,1.3,0.6c1,0.4,2.9-1,0.7-3.6c-0.6-0.9-1.4-1.9-2.4-3h47.4L155.9,35.7"/>
	<path fill="#8C1515" d="M37.9,8.4l-29.6,29v83.8L33.5,147h23.7c4-1.8,4.9-1.6,6-3.9c0.2-0.4,0.3-1.4,0.4-2.4
		c0.1-0.3,0.6-3.3-0.9-2.6c-2.5,1.3-7.6-2.1-11.5-0.1c-3.8,2-1-2.6-0.5-3.4c0,0,2-2.7,5.1-4.5c0.1-0.1,0.2-0.1,0.3-0.2
		c0.3-0.2,0.6-0.3,0.9-0.5c2.3-1.1,9-5.6,10.2-6.9c0.7-0.8,2-2.7,2-3.7c0.2-0.9,0.4-2.3-0.5-2.8c-1.3-0.8-2.3,0.8-4.3,1.7
		c-2,0.9-3.5,1.3-5.3,1.3c-1.7,0.1-3.4-0.6-4.4-0.4c-1,0.2-1.6-0.6,0.3-2.5c0.9-0.9,1.2-1.2,1.6-1.5c4.5-2.9,8.5-2.9,10.7-8
		c0,0,1.7-4.6-1.6-2.6c-1.8,1.1-2.9,2.6-8.1,2.6c-5.3,0-7.3,2.5-8.2,3.6c0,0-3.6,5-2.7-2c0.9-7,2.3-10.6,5.6-13.3
		c2.9-2.3,9.9-5.5,12.5-9c1.3-1.3,4.6-5.1,2.7-8.2c-0.8-1.3-2.8,2.1-4.8,2.6c-2.3,0.6-5.3,1.4-7.5,0.9c-2.8-0.6-4.6,0.5-5.6,1
		c-1,0.5-3-1-0.6-3.8c3.2-3.7,11-8.5,16.2-11.3c0.7-0.3,2.5-1.1,4.1-2.1c0,0,0.1,0,0.1,0c0.4-0.2,1-0.5,1.3-1c1.1-1,1.9-2,1.7-3.1
		c-0.2-1-0.7-1.3-2.3-1.5c-1.2-0.1-3.3,1.3-5,1.2c-2.6-0.2-6.5,0.4-5.2-1.5c1.2-1.7,3.1-2.8,3.7-3.1c1.1-0.5,2.5-1.1,4.6-2.1
		c3.3-1.5,2.9-5.3,1.6-5.4c-2-0.2-7.4,1.5-3.6-2.8c0,0,1.8-1.8,3.6-3c1.4-0.8,2.6-1.2,4.1-1.7c0.9-0.3,3.2-2.4-2.3-2.6
		c0,0-3.1,0.1-2.5-1.3c0.5-0.9,3.2-2.7,3.2-2.7s2.2-1.5,3.1-2.4c0.9-0.8,1.5-1.5,1.4-2.2c0-0.8-2.2-1.9-3.1-3.1
		c-0.7-0.8-0.1-1.1,0.3-1.2c0.2,0,0.4-0.1,0.7-0.1c2.2,0,2.9-2.2,4.2-8.1c0.4-1.7,0.4-2.1,1-2.1c0.1,0,0.1,0,0.1,0
		c0,0,0.6,3,1.4,6.3c0.7,1.8,1.4,2.6,2.8,2.6c0.3,0,0.5,0,0.7,0.1c0.4,0.1,0.9,0.4,0.3,1.2c-0.5,0.7-2,1.7-2.1,2.3
		c-0.4,1.8,1.3,2.5,3.1,2.6c2.5,0.2,1.5,1.7-1.2,3.7c-2.6,1.9,4.1,6.1,4.1,6.1c3.8,2.9,1.1,3.7,0.3,4.1c-0.8,0.4-2.9,1.7-0.8,2.5
		c2.2,0.8,5.1,3.8,5.1,3.8c3.8,4.4-1.6,2.6-3.6,2.8c-1.3,0.1-1.8,3.9,1.6,5.4c5.1,2.3,6.2,2.7,8,4c3.4,2.5,1.6,4.6-2.6,3.9
		c0,0-2.7-0.7-4.6-0.3c-1.2,0.2-2,0.5-2.5,0.8c-0.3,0.4-1,2.2,4.9,4c2.8,0.9,6.2,3,9.3,5.4l47.8,0l0-38.8L122.1,8.4L37.9,8.4
		L37.9,8.4z M110.1,102.8c1.4,2.3,2.2,5.3,2.8,9.6c0,2.6-3.5,1.4-4.6,0.7c-0.8-0.5-1.8-1-3.2-1.4c-2.5-0.6-8.6-3.3-10.2-3.8
		c-1.7-0.6-2.9,0.6-3.1,1.1h0c-0.4,0.8,0.5,2.4,0.5,2.4c2.4,5.4,6.7,5.1,11.5,8.5c6.6,4.7,3.1,5.7,1.7,5c-1.3-0.7-3.6-0.3-3.6-0.3
		c-5.3,1.5-6.9-0.8-10-1.6c-3.1-0.8-0.6,3,0.6,4.3c1.2,1.4,7.9,5.9,10.2,6.9c5.1,2.4,7.7,6.2,9.3,11.1c1.5,4.6-0.1,3.6-1.3,3
		c-1.2-0.6-1.6-1.8-4.6-1.7c-3,0.1-4.7-0.2-6.9-1.8c-0.6-0.4-1-0.9-1.4-1.4c0,0,0,0-0.1,0c-2.1-1.6-1.7,3.7-1.2,4.5
		c1.5,3,2.5,1.8,11.1,6.4c4.1,2.2,5,5.1,5.5,6.3c0.7,2,1.4,2.6-4.8,1.7c-2-0.3-5.6-1.5-7.3-2.7c-1.6-1.1-4.9-0.2-4.6,2.2
		c1.5,3.8,5.5,6.1,9.3,6.6c3.3,0.4,4.8,1.1,5.4,1.9c1.8,2.1-1.5,5.1-1.5,5.1c-1.7,1.9,0.1,4.2,1.4,4.9c2,1,5.9,3.4,7.2,6.7
		c6.8,17.4,0.2,12.4-3,10.4c-3.2-2-9.3-7.1-14.9-6.7c-5.6,0.4-7.4,0.7-10.8-1.9c-3.3-2.6-3,1.6-3,1.6v21c0.2,4.7,1.1,9.2,4.8,13
		c3.1,3.1,5.4,2.6,9.7,7.8c2,2.4,8.5,5,12.8,5.1l8.3,0l29.6-29.1v-80l-25.2-25.7L110.1,102.8L110.1,102.8z M8.3,174l0,34.5
		l29.6,29.1h9.5c9-0.4,12.3-7.4,15-11.7c2-3.2,5.7-6,8-8.3c2.4-2.5,2.9-8.1,2.9-14.2v-12.7l0,0.1v-3h0v-2h0v-0.5v-5.5
		c0-1.3-1.5-1.4-4.7,2.1c-3.2,3.5-8.7,3.2-11.8,3.5c-3.1,0.3-12.2,5-14.7,8.4c-1.6,2.1-3.9,0.4-2.9-3.8h0c0.4-1.9,1.2-4.4,2.5-7.7
		c1.8-4.6,8.5-7.3,8.5-7.3s0.7-0.3,1.3-0.9L8.3,174L8.3,174z"/>
</g>
</svg>
