<svg width="154" height="154" viewBox="0 0 154 154" fill="none" xmlns="http://www.w3.org/2000/svg">
<circle cx="77" cy="77" r="77" fill="#E6F6FF"/>
<mask id="mask0" mask-type="alpha" maskUnits="userSpaceOnUse" x="0" y="0" width="154" height="154">
<circle cx="77" cy="77" r="77" fill="#E6F6FF"/>
</mask>
<g mask="url(#mask0)">
<path d="M76.4804 53.3703C76.6848 51.4481 75.2924 49.7241 73.3703 49.5196L42.047 46.1874C40.1248 45.9829 38.4009 47.3753 38.1964 49.2975C37.9919 51.2196 39.3843 52.9436 41.3065 53.1481L69.1494 56.1101L66.1874 83.953C65.9829 85.8752 67.3753 87.5991 69.2975 87.8036C71.2196 88.0081 72.9436 86.6157 73.1481 84.6935L76.4804 53.3703ZM-2.80082 118.723L75.1992 55.7228L70.8008 50.2772L-7.19918 113.277L-2.80082 118.723Z" fill="#A9DBFD"/>
<rect x="31" y="129" width="18" height="25" fill="#5DAAF4"/>
<rect x="56" y="105" width="18" height="49" fill="#5DAAF4"/>
<rect x="80" y="87" width="18" height="67" fill="#5DAAF4"/>
<rect x="105" y="74" width="18" height="80" fill="#5DAAF4"/>
</g>
<mask id="path-8-outside-1" maskUnits="userSpaceOnUse" x="82.9656" y="14.0078" width="34" height="49" fill="black">
<rect fill="white" x="82.9656" y="14.0078" width="34" height="49"/>
<path fill-rule="evenodd" clip-rule="evenodd" d="M101.024 16.6822C100.21 15.783 98.7908 15.783 97.9762 16.6822C97.3737 17.3473 96.4055 17.5433 95.5931 17.1619C94.5061 16.6516 93.2155 17.1851 92.8059 18.3139L92.7807 18.3835C92.4744 19.2277 91.6582 19.7776 90.7607 19.7444C89.5611 19.6999 88.576 20.6832 88.6181 21.8829L88.6215 21.9795C88.6532 22.8826 88.1077 23.706 87.2637 24.029C86.1314 24.4622 85.5943 25.7566 86.0873 26.8642L86.1129 26.9217C86.4833 27.7538 86.291 28.7289 85.6324 29.3581C84.7433 30.2077 84.7433 31.6275 85.6324 32.477C86.291 33.1062 86.4833 34.0813 86.1129 34.9135L86.0873 34.9709C85.5943 36.0785 86.1314 37.3729 87.2637 37.8062C88.1077 38.1291 88.6532 38.9526 88.6215 39.8557L88.6181 39.9522C88.576 41.152 89.5611 42.1352 90.7607 42.0908C91.3151 42.0702 91.8385 42.2722 92.2299 42.6287L86.3108 54.7797C85.6968 56.0401 86.7995 57.4804 88.1653 57.2021L92.3177 56.3559L94.5962 59.4412C95.4505 60.598 97.2387 60.24 97.5621 58.8474L99.5608 50.2401L101.59 58.9733C101.908 60.3442 103.654 60.7198 104.526 59.6051L107.178 56.2161L110.855 57.0759C112.233 57.3982 113.379 55.9437 112.755 54.6634L106.856 42.5554C107.236 42.2448 107.725 42.0717 108.24 42.0908C109.439 42.1352 110.425 41.152 110.382 39.9522L110.379 39.8557C110.347 38.9526 110.893 38.1291 111.737 37.8062C112.869 37.3729 113.406 36.0785 112.913 34.9709L112.888 34.9135C112.517 34.0813 112.71 33.1062 113.368 32.477C114.257 31.6275 114.257 30.2077 113.368 29.3581C112.71 28.7289 112.517 27.7538 112.888 26.9217L112.913 26.8642C113.406 25.7566 112.869 24.4622 111.737 24.029C110.893 23.706 110.347 22.8826 110.379 21.9795L110.382 21.8829C110.425 20.6832 109.439 19.6999 108.24 19.7444C107.342 19.7776 106.526 19.2277 106.22 18.3835L106.195 18.3139C105.785 17.1851 104.494 16.6516 103.407 17.1619C102.595 17.5433 101.627 17.3473 101.024 16.6822Z"/>
</mask>
<path fill-rule="evenodd" clip-rule="evenodd" d="M101.024 16.6822C100.21 15.783 98.7908 15.783 97.9762 16.6822C97.3737 17.3473 96.4055 17.5433 95.5931 17.1619C94.5061 16.6516 93.2155 17.1851 92.8059 18.3139L92.7807 18.3835C92.4744 19.2277 91.6582 19.7776 90.7607 19.7444C89.5611 19.6999 88.576 20.6832 88.6181 21.8829L88.6215 21.9795C88.6532 22.8826 88.1077 23.706 87.2637 24.029C86.1314 24.4622 85.5943 25.7566 86.0873 26.8642L86.1129 26.9217C86.4833 27.7538 86.291 28.7289 85.6324 29.3581C84.7433 30.2077 84.7433 31.6275 85.6324 32.477C86.291 33.1062 86.4833 34.0813 86.1129 34.9135L86.0873 34.9709C85.5943 36.0785 86.1314 37.3729 87.2637 37.8062C88.1077 38.1291 88.6532 38.9526 88.6215 39.8557L88.6181 39.9522C88.576 41.152 89.5611 42.1352 90.7607 42.0908C91.3151 42.0702 91.8385 42.2722 92.2299 42.6287L86.3108 54.7797C85.6968 56.0401 86.7995 57.4804 88.1653 57.2021L92.3177 56.3559L94.5962 59.4412C95.4505 60.598 97.2387 60.24 97.5621 58.8474L99.5608 50.2401L101.59 58.9733C101.908 60.3442 103.654 60.7198 104.526 59.6051L107.178 56.2161L110.855 57.0759C112.233 57.3982 113.379 55.9437 112.755 54.6634L106.856 42.5554C107.236 42.2448 107.725 42.0717 108.24 42.0908C109.439 42.1352 110.425 41.152 110.382 39.9522L110.379 39.8557C110.347 38.9526 110.893 38.1291 111.737 37.8062C112.869 37.3729 113.406 36.0785 112.913 34.9709L112.888 34.9135C112.517 34.0813 112.71 33.1062 113.368 32.477C114.257 31.6275 114.257 30.2077 113.368 29.3581C112.71 28.7289 112.517 27.7538 112.888 26.9217L112.913 26.8642C113.406 25.7566 112.869 24.4622 111.737 24.029C110.893 23.706 110.347 22.8826 110.379 21.9795L110.382 21.8829C110.425 20.6832 109.439 19.6999 108.24 19.7444C107.342 19.7776 106.526 19.2277 106.22 18.3835L106.195 18.3139C105.785 17.1851 104.494 16.6516 103.407 17.1619C102.595 17.5433 101.627 17.3473 101.024 16.6822Z" fill="#5DAAF4"/>
<path d="M97.9762 16.6822L96.494 15.3394L96.494 15.3394L97.9762 16.6822ZM101.024 16.6822L99.5421 18.025L99.5421 18.025L101.024 16.6822ZM95.5931 17.1619L94.7433 18.9724V18.9724L95.5931 17.1619ZM92.8059 18.3139L94.686 18.996V18.996L92.8059 18.3139ZM92.7807 18.3835L94.6608 19.0656V19.0656L92.7807 18.3835ZM90.7607 19.7444L90.6867 21.743H90.6867L90.7607 19.7444ZM88.6181 21.8829L86.6193 21.9531V21.9531L88.6181 21.8829ZM88.6215 21.9795L90.6203 21.9093V21.9093L88.6215 21.9795ZM87.2637 24.029L87.9784 25.8969H87.9784L87.2637 24.029ZM86.0873 26.8642L84.2601 27.6775L84.2601 27.6775L86.0873 26.8642ZM86.1129 26.9217L87.94 26.1083L87.94 26.1083L86.1129 26.9217ZM85.6324 29.3581L84.2508 27.9121L84.2508 27.9121L85.6324 29.3581ZM85.6324 32.477L87.014 31.0309L87.014 31.0309L85.6324 32.477ZM86.1129 34.9135L84.2857 34.1002L84.2857 34.1002L86.1129 34.9135ZM86.0873 34.9709L87.9145 35.7842L87.9145 35.7842L86.0873 34.9709ZM87.2637 37.8062L87.9784 35.9382L87.9784 35.9382L87.2637 37.8062ZM88.6215 39.8557L90.6203 39.9259L88.6215 39.8557ZM88.6181 39.9522L86.6193 39.882L88.6181 39.9522ZM90.7607 42.0908L90.6867 40.0921H90.6867L90.7607 42.0908ZM92.2299 42.6287L94.0279 43.5045L94.6836 42.1584L93.5766 41.1501L92.2299 42.6287ZM86.3108 54.7797L88.1088 55.6555H88.1088L86.3108 54.7797ZM88.1653 57.2021L88.5647 59.1618H88.5647L88.1653 57.2021ZM92.3177 56.3559L93.9266 55.1678L93.1686 54.1414L91.9184 54.3962L92.3177 56.3559ZM94.5962 59.4412L96.2051 58.2531L96.2051 58.253L94.5962 59.4412ZM97.5621 58.8474L99.5103 59.2998V59.2998L97.5621 58.8474ZM99.5608 50.2401L101.509 49.7876L97.6126 49.7877L99.5608 50.2401ZM101.59 58.9733L103.538 58.5208L101.59 58.9733ZM104.526 59.6051L106.102 60.8375L104.526 59.6051ZM107.178 56.2161L107.633 54.2686L106.39 53.9778L105.603 54.9837L107.178 56.2161ZM110.855 57.0759L111.31 55.1284H111.31L110.855 57.0759ZM112.755 54.6634L114.553 53.7874L112.755 54.6634ZM106.856 42.5554L105.591 41.0061L104.364 42.0076L105.058 43.4315L106.856 42.5554ZM108.24 42.0908L108.314 40.0921H108.314L108.24 42.0908ZM110.382 39.9522L112.381 39.882L112.381 39.882L110.382 39.9522ZM110.379 39.8557L108.38 39.9259L108.38 39.9259L110.379 39.8557ZM111.737 37.8062L111.022 35.9382L111.022 35.9382L111.737 37.8062ZM112.913 34.9709L114.74 34.1576L114.74 34.1576L112.913 34.9709ZM112.888 34.9135L111.06 35.7268L111.06 35.7268L112.888 34.9135ZM113.368 32.477L111.986 31.0309L111.986 31.0309L113.368 32.477ZM113.368 29.3581L111.986 30.8042L111.986 30.8042L113.368 29.3581ZM112.888 26.9217L111.06 26.1083L111.06 26.1083L112.888 26.9217ZM112.913 26.8642L114.74 27.6775L114.74 27.6775L112.913 26.8642ZM111.737 24.029L111.022 25.8969L111.737 24.029ZM110.379 21.9795L108.38 21.9093L108.38 21.9093L110.379 21.9795ZM110.382 21.8829L112.381 21.9531L112.381 21.9531L110.382 21.8829ZM108.24 19.7444L108.314 21.743L108.24 19.7444ZM106.22 18.3835L104.34 19.0655L104.34 19.0656L106.22 18.3835ZM106.195 18.3139L108.075 17.6319L108.075 17.6318L106.195 18.3139ZM103.407 17.1619L102.557 15.3515L102.557 15.3515L103.407 17.1619ZM99.4584 18.025C99.4661 18.0165 99.4709 18.0141 99.4744 18.0126C99.4798 18.0102 99.4887 18.0078 99.5003 18.0078C99.5118 18.0078 99.5207 18.0102 99.5261 18.0126C99.5297 18.0141 99.5345 18.0165 99.5421 18.025L102.507 15.3394C100.898 13.5639 98.1025 13.5639 96.494 15.3394L99.4584 18.025ZM94.7433 18.9724C96.3545 19.7287 98.2681 19.3388 99.4584 18.025L96.494 15.3394C96.4874 15.3467 96.4793 15.3517 96.468 15.3539C96.457 15.3562 96.4495 15.3545 96.443 15.3515L94.7433 18.9724ZM94.686 18.996C94.6898 18.9857 94.6928 18.9827 94.694 18.9814C94.6966 18.9788 94.7017 18.9748 94.7094 18.9716C94.7172 18.9684 94.7236 18.9676 94.7273 18.9677C94.729 18.9677 94.7333 18.9677 94.7433 18.9724L96.443 15.3515C94.2912 14.3414 91.7365 15.3972 90.9258 17.6318L94.686 18.996ZM94.6608 19.0656L94.686 18.996L90.9258 17.6318L90.9006 17.7014L94.6608 19.0656ZM90.6867 21.743C92.4523 21.8084 94.0582 20.7265 94.6608 19.0656L90.9006 17.7014C90.8906 17.7289 90.864 17.7468 90.8348 17.7457L90.6867 21.743ZM90.6169 21.8127C90.6164 21.7983 90.6187 21.7908 90.6207 21.7859C90.6234 21.7792 90.6284 21.7708 90.6366 21.7626C90.6448 21.7544 90.6532 21.7494 90.6599 21.7467C90.6649 21.7447 90.6723 21.7425 90.6867 21.743L90.8348 17.7457C88.4746 17.6583 86.5364 19.5927 86.6193 21.9531L90.6169 21.8127ZM90.6203 21.9093L90.6169 21.8127L86.6193 21.9531L86.6227 22.0497L90.6203 21.9093ZM87.9784 25.8969C89.6205 25.2686 90.682 23.6664 90.6203 21.9093L86.6227 22.0497C86.6245 22.0987 86.5948 22.1435 86.549 22.161L87.9784 25.8969ZM87.9145 26.0509C87.8877 25.9907 87.9169 25.9204 87.9784 25.8969L86.549 22.161C84.3459 23.0039 83.3009 25.5226 84.2601 27.6775L87.9145 26.0509ZM87.94 26.1083L87.9145 26.0509L84.2601 27.6775L84.2857 27.735L87.94 26.1083ZM87.014 30.8042C88.2833 29.5915 88.6539 27.7121 87.94 26.1083L84.2857 27.735C84.3126 27.7955 84.2987 27.8663 84.2508 27.9121L87.014 30.8042ZM87.014 31.0309C86.9494 30.9692 86.9494 30.866 87.014 30.8042L84.2508 27.9121C82.5372 29.5493 82.5372 32.2858 84.2508 33.9231L87.014 31.0309ZM87.94 35.7268C88.6539 34.123 88.2833 32.2436 87.014 31.0309L84.2508 33.9231C84.2987 33.9688 84.3126 34.0397 84.2857 34.1002L87.94 35.7268ZM87.9145 35.7842L87.94 35.7268L84.2857 34.1002L84.2601 34.1576L87.9145 35.7842ZM87.9784 35.9382C87.9169 35.9147 87.8877 35.8444 87.9145 35.7842L84.2601 34.1576C83.3009 36.3126 84.3459 38.8312 86.549 39.6741L87.9784 35.9382ZM90.6203 39.9259C90.682 38.1687 89.6205 36.5665 87.9784 35.9382L86.549 39.6741C86.5948 39.6917 86.6245 39.7364 86.6227 39.7854L90.6203 39.9259ZM90.6169 40.0224L90.6203 39.9259L86.6227 39.7854L86.6193 39.882L90.6169 40.0224ZM90.6867 40.0921C90.6723 40.0927 90.6649 40.0904 90.6599 40.0884C90.6532 40.0857 90.6448 40.0807 90.6366 40.0725C90.6284 40.0643 90.6234 40.0559 90.6207 40.0493C90.6187 40.0443 90.6164 40.0368 90.6169 40.0224L86.6193 39.882C86.5364 42.2424 88.4746 44.1768 90.8348 44.0894L90.6867 40.0921ZM93.5766 41.1501C92.8081 40.4501 91.7779 40.0517 90.6867 40.0921L90.8348 44.0894C90.845 44.089 90.8529 44.0906 90.8602 44.0933C90.8683 44.0963 90.8763 44.1011 90.8831 44.1073L93.5766 41.1501ZM90.4318 41.7528L84.5128 53.9038L88.1088 55.6555L94.0279 43.5045L90.4318 41.7528ZM84.5128 53.9038C83.1882 56.623 85.5396 59.7783 88.5647 59.1618L87.766 55.2424C87.8187 55.2316 87.893 55.2359 87.9627 55.2641C88.0242 55.2889 88.0617 55.3235 88.0837 55.3521C88.1056 55.3808 88.1268 55.4229 88.1341 55.4817C88.1425 55.5489 88.1291 55.6138 88.1088 55.6555L84.5128 53.9038ZM88.5647 59.1618L92.7171 58.3156L91.9184 54.3962L87.7659 55.2424L88.5647 59.1618ZM90.7089 57.544L92.9874 60.6293L96.2051 58.253L93.9266 55.1678L90.7089 57.544ZM92.9874 60.6293C94.8314 63.1263 98.7917 62.3943 99.5103 59.2998L95.6139 58.395C95.6234 58.3541 95.6552 58.2866 95.7179 58.2281C95.774 58.1757 95.8341 58.1495 95.8856 58.1392C95.9372 58.1289 95.9982 58.1307 96.063 58.1544C96.1357 58.1811 96.1846 58.2253 96.2051 58.2531L92.9874 60.6293ZM99.5103 59.2998L101.509 50.6925L97.6126 49.7877L95.6139 58.395L99.5103 59.2998ZM97.6127 50.6927L99.6415 59.4259L103.538 58.5208L101.509 49.7876L97.6127 50.6927ZM99.6415 59.4259C100.349 62.4695 104.216 63.2469 106.102 60.8375L102.951 58.3727C102.973 58.3449 103.022 58.3027 103.094 58.278C103.159 58.2559 103.219 58.2549 103.271 58.266C103.323 58.2771 103.382 58.3039 103.436 58.3557C103.497 58.4133 103.528 58.4795 103.538 58.5208L99.6415 59.4259ZM106.102 60.8375L108.753 57.4485L105.603 54.9837L102.951 58.3727L106.102 60.8375ZM106.723 58.1636L110.399 59.0233L111.31 55.1284L107.633 54.2686L106.723 58.1636ZM110.399 59.0233C113.456 59.7382 115.898 56.547 114.553 53.7874L110.957 55.5394C110.937 55.498 110.923 55.4319 110.932 55.3632C110.94 55.3034 110.962 55.2612 110.985 55.233C111.007 55.2047 111.045 55.1701 111.109 55.1459C111.181 55.1183 111.257 55.1161 111.31 55.1284L110.399 59.0233ZM114.553 53.7874L108.654 41.6794L105.058 43.4315L110.957 55.5394L114.553 53.7874ZM108.314 40.0921C107.3 40.0546 106.338 40.396 105.591 41.0061L108.12 44.1048C108.127 44.0993 108.135 44.0952 108.142 44.0927C108.149 44.0904 108.156 44.089 108.166 44.0894L108.314 40.0921ZM108.384 40.0224C108.384 40.0368 108.382 40.0443 108.38 40.0493C108.377 40.0559 108.372 40.0643 108.364 40.0725C108.356 40.0807 108.347 40.0857 108.341 40.0884C108.336 40.0904 108.328 40.0927 108.314 40.0921L108.166 44.0894C110.526 44.1768 112.464 42.2424 112.381 39.882L108.384 40.0224ZM108.38 39.9259L108.384 40.0225L112.381 39.882L112.378 39.7854L108.38 39.9259ZM111.022 35.9382C109.38 36.5665 108.319 38.1687 108.38 39.9259L112.378 39.7854C112.376 39.7364 112.406 39.6917 112.452 39.6741L111.022 35.9382ZM111.086 35.7842C111.113 35.8444 111.084 35.9147 111.022 35.9382L112.452 39.6741C114.655 38.8312 115.7 36.3126 114.74 34.1576L111.086 35.7842ZM111.06 35.7268L111.086 35.7842L114.74 34.1576L114.715 34.1002L111.06 35.7268ZM111.986 31.0309C110.717 32.2436 110.347 34.123 111.06 35.7268L114.715 34.1002C114.688 34.0397 114.702 33.9688 114.75 33.9231L111.986 31.0309ZM111.986 30.8042C112.051 30.866 112.051 30.9692 111.986 31.0309L114.75 33.9231C116.463 32.2858 116.463 29.5493 114.75 27.9121L111.986 30.8042ZM111.06 26.1083C110.347 27.7121 110.717 29.5915 111.986 30.8042L114.75 27.9121C114.702 27.8663 114.688 27.7954 114.715 27.735L111.06 26.1083ZM111.086 26.0509L111.06 26.1083L114.715 27.735L114.74 27.6775L111.086 26.0509ZM111.022 25.8969C111.084 25.9204 111.113 25.9907 111.086 26.0509L114.74 27.6775C115.7 25.5226 114.655 23.0039 112.452 22.161L111.022 25.8969ZM108.38 21.9093C108.319 23.6664 109.38 25.2686 111.022 25.8969L112.452 22.161C112.406 22.1435 112.376 22.0987 112.378 22.0497L108.38 21.9093ZM108.384 21.8127L108.38 21.9093L112.378 22.0497L112.381 21.9531L108.384 21.8127ZM108.314 21.743C108.328 21.7425 108.336 21.7447 108.341 21.7467C108.347 21.7494 108.356 21.7544 108.364 21.7626C108.372 21.7708 108.377 21.7792 108.38 21.7859C108.382 21.7908 108.384 21.7983 108.384 21.8127L112.381 21.9531C112.464 19.5927 110.526 17.6583 108.166 17.7457L108.314 21.743ZM104.34 19.0656C104.942 20.7265 106.548 21.8084 108.314 21.743L108.166 17.7457C108.136 17.7468 108.11 17.7289 108.1 17.7014L104.34 19.0656ZM104.314 18.996L104.34 19.0655L108.1 17.7014L108.075 17.6319L104.314 18.996ZM104.257 18.9724C104.267 18.9677 104.271 18.9677 104.273 18.9677C104.277 18.9676 104.283 18.9684 104.291 18.9716C104.299 18.9748 104.304 18.9788 104.306 18.9814C104.308 18.9827 104.311 18.9857 104.314 18.996L108.075 17.6318C107.264 15.3973 104.709 14.3414 102.557 15.3515L104.257 18.9724ZM99.5421 18.025C100.732 19.3388 102.646 19.7287 104.257 18.9724L102.557 15.3515C102.551 15.3545 102.544 15.3562 102.532 15.3539C102.521 15.3517 102.513 15.3467 102.507 15.3394L99.5421 18.025Z" fill="#0D358A" mask="url(#path-8-outside-1)"/>
<path d="M96.4289 34.0052L102.778 36.3777L97.5602 58.8476C97.2369 60.2401 95.4486 60.5981 94.5944 59.4414L92.3159 56.3561L88.1634 57.2023C86.7976 57.4806 85.695 56.0403 86.3089 54.7799L96.4289 34.0052Z" fill="#A9DBFD"/>
<path d="M96.3387 36.3783L102.688 34.0052L112.753 54.6635C113.377 55.9437 112.231 57.3983 110.853 57.0759L107.176 56.2162L104.525 59.6052C103.652 60.7199 101.906 60.3442 101.588 58.9734L96.3387 36.3783Z" fill="#D4EFFE"/>
<path d="M97.9759 16.6823C98.7906 15.7831 100.209 15.7831 101.024 16.6823C101.627 17.3473 102.595 17.5433 103.407 17.162C104.494 16.6517 105.785 17.1851 106.194 18.314L106.22 18.3835C106.526 19.2277 107.342 19.7777 108.24 19.7444C109.439 19.7 110.424 20.6832 110.382 21.883L110.379 21.9795C110.347 22.8826 110.893 23.7061 111.737 24.029C112.869 24.4623 113.406 25.7567 112.913 26.8643L112.887 26.9217C112.517 27.7539 112.709 28.729 113.368 29.3582C114.257 30.2077 114.257 31.6276 113.368 32.4771C112.709 33.1063 112.517 34.0814 112.887 34.9135L112.913 34.971C113.406 36.0786 112.869 37.373 111.737 37.8062C110.893 38.1292 110.347 38.9526 110.379 39.8557L110.382 39.9523C110.424 41.152 109.439 42.1353 108.24 42.0908C107.342 42.0576 106.526 42.6075 106.22 43.4517L106.194 43.5213C105.785 44.6501 104.494 45.1836 103.407 44.6733C102.595 44.2919 101.627 44.4879 101.024 45.153C100.209 46.0522 98.7906 46.0522 97.9759 45.153C97.3734 44.4879 96.4052 44.2919 95.5929 44.6733C94.5058 45.1836 93.2152 44.6501 92.8057 43.5213L92.7804 43.4517C92.4742 42.6075 91.6579 42.0576 90.7605 42.0908C89.5608 42.1353 88.5757 41.152 88.6178 39.9523L88.6212 39.8557C88.653 38.9526 88.1074 38.1292 87.2634 37.8062C86.1311 37.373 85.5941 36.0786 86.0871 34.971L86.1126 34.9135C86.483 34.0814 86.2907 33.1063 85.6322 32.4771C84.743 31.6276 84.743 30.2077 85.6322 29.3582C86.2907 28.729 86.483 27.7539 86.1126 26.9217L86.0871 26.8643C85.5941 25.7567 86.1311 24.4623 87.2634 24.029C88.1074 23.7061 88.653 22.8826 88.6212 21.9795L88.6178 21.883C88.5757 20.6832 89.5608 19.7 90.7605 19.7444C91.6579 19.7777 92.4742 19.2277 92.7804 18.3835L92.8057 18.314C93.2152 17.1851 94.5058 16.6517 95.5929 17.162C96.4052 17.5433 97.3734 17.3473 97.9759 16.6823Z" fill="#7EC2F9"/>
<ellipse cx="99.4997" cy="30.9175" rx="10.3333" ry="10.6118" fill="white"/>
<path d="M98.0601 26.4229C98.7147 25.3395 100.286 25.3395 100.941 26.4229L101.563 27.452C101.804 27.8521 102.202 28.1336 102.659 28.2291L103.768 28.4606C105.05 28.7281 105.548 30.2919 104.659 31.252L103.97 31.9951C103.64 32.3511 103.479 32.8322 103.53 33.3149L103.64 34.3651C103.774 35.6407 102.489 36.5913 101.309 36.0898L100.158 35.6011C99.7379 35.4225 99.263 35.4225 98.8425 35.6011L97.692 36.0898C96.5115 36.5913 95.2264 35.6407 95.3604 34.3651L95.4707 33.3149C95.5214 32.8322 95.3612 32.3511 95.0313 31.9951L94.3424 31.2519C93.4525 30.2919 93.9513 28.7281 95.2327 28.4606L96.3418 28.2291C96.7994 28.1336 97.1966 27.8521 97.4383 27.452L98.0601 26.4229Z" fill="#FFD000"/>
</svg>
