<svg width="154" height="154" viewBox="0 0 154 154" fill="none" xmlns="http://www.w3.org/2000/svg">
<circle cx="77" cy="77" r="77" fill="#E6F6FF"/>
<mask id="mask0" mask-type="alpha" maskUnits="userSpaceOnUse" x="0" y="0" width="154" height="154">
<circle cx="77" cy="77" r="77" fill="#C4C4C4"/>
</mask>
<g mask="url(#mask0)">
<path d="M53.6342 10.3168C53.1511 11.7689 52.3607 33.2769 55.8624 39.0169H80.6927C84.5126 30.7257 84.8309 12.2302 83.2393 9.67899C82.2445 8.08456 80.3743 9.04121 80.0559 9.67898C79.5466 8.65854 78.1459 8.7223 77.5092 9.99785C76.7452 8.9774 74.9625 9.25379 74.3259 9.67898C73.5619 8.65855 71.4608 9.2538 70.8242 9.67898C69.8692 8.08451 68.0653 9.04117 67.3225 9.36005C66.0491 8.3396 65.2002 8.82857 64.4575 9.36005C63.4388 8.3396 62.1231 9.1475 61.2742 9.67898C59.7462 8.65851 58.9398 9.25378 58.7275 9.67898C56.8175 8.40345 54.2707 8.40345 53.6342 10.3168Z" fill="#784F39"/>
<path d="M82.0793 30.0786C82.0793 39.9515 76.323 47.9551 68.0083 47.9551C59.6937 47.9551 54.5769 39.9515 54.5769 30.0786C54.5769 20.2056 57.9411 12.202 68.0083 12.202C78.0755 12.202 82.0793 20.2056 82.0793 30.0786Z" fill="#D2A066"/>
<path d="M55.264 12.202H81.3912V22.5154H55.264V12.202Z" fill="#784F39"/>
<rect x="64.2019" y="43.1423" width="8.93826" height="9.62582" fill="#D2A066"/>
<path d="M74.5145 50.8159C70.733 51.1858 68.684 52.3961 60.8038 50.8159C49.7624 51.3927 49.7188 97.4995 47.9999 103L90.9999 100.5C92.4999 93.9999 91.0159 63.7688 88.9533 59.6435C85.921 53.5789 81.3901 50.1432 74.5145 50.8159Z" fill="#EF8508"/>
<rect x="93" y="120" width="18" height="17" fill="#2D3748"/>
<path d="M87.0502 64.318C82.0997 60.1926 81.8937 49.5355 83.2686 45.7539L94.2694 68.7871C93.3526 69.1309 92.0006 68.4433 87.0502 64.318Z" fill="#1A202C"/>
<path d="M113.134 65.6936C118.084 61.5683 118.29 50.9111 116.915 47.1295L105.915 70.1627C106.831 70.5065 108.183 69.819 113.134 65.6936Z" fill="#1A202C"/>
<rect x="95.6024" y="70.5063" width="11.0009" height="14.4387" fill="#B87C4E"/>
<path d="M106.945 75.417C113.477 75.417 119.727 77.8483 122.759 83.9129C123.314 85.0224 123.848 88.133 124.266 91.2028L124.478 91.1201C124.807 95.203 124.994 97.3437 125.067 98.1565C125.117 98.7128 125.114 98.6471 125.067 98.1565C124.968 97.1189 124.671 94.18 124.266 91.2028L71 112C71.6875 104.464 84.2152 76.5829 95.2566 76.006C95.9442 76.006 98.3506 84.6004 101.788 84.6004C105.226 84.6004 106.258 75.417 106.945 75.417Z" fill="#4A5568"/>
<path fill-rule="evenodd" clip-rule="evenodd" d="M116.51 56.1578C115.854 47.6182 110.035 40.9403 101.102 40.9403C92.1648 40.9403 86.0395 47.6242 85.3524 56.1695C85.1524 56.0989 84.9473 56.0849 84.7496 56.1384C84.0166 56.3369 83.6637 57.3891 83.9614 58.4887C84.2591 59.5883 85.0947 60.3188 85.8278 60.1203C86.0303 60.0655 86.2038 59.9455 86.3425 59.7774C86.5954 60.2636 86.8454 60.7485 87.0937 61.2303L87.0939 61.2308C90.7196 68.2647 94.0009 74.6307 101.102 74.6307C108.039 74.6307 111.506 68.2675 115.481 60.0513C116.18 60.3081 117.078 59.6878 117.502 58.6478C117.932 57.5928 117.71 56.5053 117.006 56.2189C116.849 56.1548 116.681 56.1362 116.51 56.1578Z" fill="#B87C4E"/>
<path d="M110.04 39.5654C103.989 34.0649 92.507 36.4714 88.7254 39.9092C79.0994 40.9405 82.4226 49.7642 85.2875 56.4106C87.0063 55.3792 88.0035 55.0695 89.7565 53.3166C92.163 50.9101 92.163 50.5663 93.1943 48.1599C95.6008 49.8788 102.133 54.6917 110.384 55.3792C117.007 55.9311 120.239 51.8269 122.072 47.8161C115.884 47.8161 116.09 45.0658 110.04 39.5654Z" fill="#1A202C"/>
<path d="M25.5094 53.4075C28.497 48.927 35.7169 48.4292 39.3269 49.3004C47.9164 44.0731 54.6384 46.3134 58.3728 51.5406C62.1073 56.7679 60.6135 59.3816 60.6135 63.1154C60.6135 66.8491 63.9746 69.4628 63.9746 74.6901C63.9746 78.9472 60.6135 79.9173 60.6135 83.2777C60.6135 86.6381 63.5385 88.5844 62.8542 91.492C61.3604 97.8394 55.3853 97.0927 54.6384 97.8394C53.8915 98.5862 41.5676 91.1187 41.1942 92.6122C40.8954 93.807 31.609 93.11 27.0031 92.6122C27.0031 94.1057 26.2561 94.1057 27.0031 88.8784C27.7501 83.6511 25.1358 84.7712 21.7747 79.5439C18.4137 74.3167 23.6422 72.8231 24.3891 68.3426C25.136 63.8621 21.7749 59.0082 25.5094 53.4075Z" fill="#D2A066"/>
<path d="M38.1911 88.6101C28.8403 88.3351 23.573 105.323 23 107.5C35.949 107.844 69.775 106.325 69.5 105.5C69.1562 104.469 62.5994 93.7668 60.193 91.0165C57.7865 88.2663 49.8796 88.9539 38.1911 88.6101Z" fill="#F9DCB9"/>
<path d="M55.7244 67.6167C55.7244 77.8824 49.7525 86.2045 43.7805 86.2045C37.8086 86.2045 29.5972 77.8824 29.5972 67.6167C29.5972 61.1679 31.9806 53.2017 42.2875 53.2017C50.8722 53.2017 55.7244 59.6505 55.7244 67.6167Z" fill="#F9DCB9"/>
<rect x="39.9107" y="82.0789" width="7.56315" height="8.25071" fill="#F9DCB9"/>
<path d="M51.8962 92.0905C46.3763 92.0901 41.2322 92.0905 33.6642 92.0905C23.0002 92.0905 24.0322 116.546 23.0002 141H66.0002C66.0002 136.917 66.0002 124.07 64.6058 111.505C62.1682 89.5395 58.4322 92.0909 51.8962 92.0905Z" fill="#AC346D"/>
<path d="M34.4097 88.6104H35.7848V93.0795H34.4097V88.6104Z" fill="#AC346D"/>
<path d="M51.5989 88.9536H52.974V93.079H51.5989V88.9536Z" fill="#AC346D"/>
<path d="M36.8821 58.7865C31.1597 57.331 30.007 65.5789 29.1476 69.7028C28.0427 65.7002 30.9892 55.8755 33.9357 51.8728C36.8823 47.8702 50.51 53.3283 56.0347 55.8755C60.4545 57.9132 57.8763 66.7918 56.0347 69.7028C55.9119 68.2473 54.4877 61.552 48.3 56.6032C42.1122 51.6545 37.7415 56.2394 36.8821 58.7865Z" fill="#D2A066"/>
<path d="M8.79762 75.2071C2.19706 79.8825 5.8182 89.3021 8.45384 93.4275C13.4959 96.4069 25.0926 100.784 31.1432 94.4588C37.1937 88.1333 33.8934 79.6763 31.4869 76.2385C26.6741 73.9466 15.3982 70.5317 8.79762 75.2071Z" fill="#4A5568"/>
<path d="M32.5188 85.5206C32.5188 94.8239 28.9484 104.085 19.4552 104.085C9.96195 104.085 6.73532 95.8553 6.73532 86.5519C6.73532 77.2486 9.96195 73.1445 19.4552 73.1445C28.9484 73.1445 32.5188 76.2172 32.5188 85.5206Z" fill="#FFEAD1"/>
<rect x="13.9541" y="99.9594" width="11.0009" height="12.3761" fill="#FFEAD1"/>
<path d="M4.67131 107.523C1.09601 109.173 0.202179 116.919 0.202179 120.586H40.4244C40.1493 115.361 36.1844 109.7 34.2363 107.523C25.871 106.835 8.24662 105.873 4.67131 107.523Z" fill="#FFEAD1"/>
<path d="M6.39004 120.559L31.5002 140.5C31.1565 136.402 32.8611 111.991 34.58 107.555C31.6757 105.678 28.2504 104.772 24.9541 104.772C24.2666 104.772 24.2666 109.929 19.4537 109.929C14.6407 109.929 13.9532 105.803 13.9532 104.856C10.389 105.042 6.69741 105.927 4.67114 107.555C7.0776 113.023 6.73382 116.461 6.39004 120.559Z" fill="#7843E3"/>
<path d="M11.8906 73.1986C12.5782 70.9067 14.5721 66.1855 17.0473 65.6354C19.5225 65.0854 18.537 68.844 17.7349 70.7921C19.11 69.1878 22.1352 66.1167 23.2353 66.6668C24.3354 67.2168 23.6937 69.6462 23.2353 70.7921C24.6104 69.6462 27.5669 67.5606 28.392 68.3857C29.2171 69.2107 27.5899 71.2505 26.6731 72.1673C28.392 71.2505 31.9673 69.692 32.5174 70.7921C33.0674 71.8922 31.6006 72.8548 30.7985 73.1986C32.9757 72.9694 36.5054 74.2299 35.9553 75.605C35.2678 77.3239 32.8613 76.2382 32.5174 76.9802C32.0836 77.9159 35.2676 83.512 32.5174 81.4493C30.3172 79.7992 28.8504 78.2407 28.392 77.6677C28.965 79.5012 29.4234 82.6181 26.6731 80.418C24.6731 78.8179 23.7639 77.8481 23.4167 77.35C24.4199 79.4353 25.5681 82.4915 23.2353 80.418C21.5918 78.957 20.8678 78.1226 20.6003 77.6932C20.9181 78.7797 21.2204 80.418 20.4851 80.418C19.5782 80.418 18.1398 79.089 17.8058 78.3007C17.9235 79.3053 18.0292 82.0088 16.7035 80.418C15.3284 78.7678 14.7554 77.4385 14.6408 76.9802C14.4117 78.4699 13.747 81.243 12.9219 80.418C12.0969 79.5929 11.8906 77.7823 11.8906 76.9802C11.776 78.2407 11.2718 80.6242 10.1717 80.0742C9.07161 79.5241 9.02578 76.8656 9.14037 75.605C7.99449 76.0634 5.70273 76.7051 5.70273 75.605C5.70273 74.505 8.22378 73.7716 9.4843 73.5424C8.79664 71.8235 7.76513 68.3857 9.14037 68.3857C10.5156 68.3857 11.5469 71.5943 11.8906 73.1986Z" fill="#4A5568"/>
<rect x="52" y="140" width="39" height="19" fill="#1A7CAE"/>
<path d="M88.4298 83.5716C88.4298 92.875 83.2731 100.417 71.2409 100.417C59.8961 100.417 54.0519 92.875 54.0519 83.5716C54.0519 74.2683 61.7476 66.7264 71.2409 66.7264C80.7341 66.7264 88.4298 74.2683 88.4298 83.5716Z" fill="#784F39"/>
<rect x="65.7406" y="96.2914" width="11.0009" height="13.0636" fill="#784F39"/>
<path d="M76.6085 106.059C73.0085 108.339 67.2624 107.009 64.8394 106.059C57.0856 103.78 50.7191 134.812 49.0002 141L95.9998 142.5C100.007 138.268 95.3006 117.814 92.5314 113.539C89.0699 108.197 81.1084 103.21 76.6085 106.059Z" fill="white"/>
<path fill-rule="evenodd" clip-rule="evenodd" d="M64.6456 63.3767C64.9529 62.9098 65.4816 62.6017 66.0824 62.6017C66.6447 62.6017 67.1439 62.8717 67.4575 63.2891C67.7711 62.8717 68.2703 62.6017 68.8326 62.6017C69.3949 62.6017 69.8942 62.8717 70.2078 63.2891C70.5214 62.8717 71.0206 62.6017 71.5829 62.6017C72.1455 62.6017 72.645 62.872 72.9585 63.2898C73.2721 62.872 73.7716 62.6017 74.3342 62.6017C74.896 62.6017 75.3949 62.8713 75.7086 63.2881C76.0222 62.8713 76.5211 62.6017 77.083 62.6017C77.6457 62.6017 78.1453 62.8721 78.4589 63.2901C78.7724 62.8721 79.272 62.6017 79.8347 62.6017C80.4731 62.6017 81.0302 62.9497 81.3266 63.4663C81.8037 63.1281 82.4415 63.042 83.0154 63.2951C83.53 63.5219 83.8778 63.9704 83.9964 64.4788C84.4519 64.223 85.018 64.1771 85.5328 64.4041C86.1537 64.6779 86.532 65.2744 86.5573 65.9097C86.8489 65.877 87.1528 65.9186 87.4407 66.0455C88.1705 66.3673 88.5651 67.135 88.4454 67.8874C89.2898 67.5978 90.2271 68.0059 90.5826 68.8401C90.803 69.3573 90.7504 69.9223 90.4895 70.3744C90.9966 70.4992 91.4409 70.8527 91.6614 71.3701C91.8818 71.8874 91.8292 72.4525 91.5681 72.9046C92.0749 73.0296 92.5188 73.3829 92.7392 73.9001C93.1114 74.7734 92.7051 75.7831 91.8318 76.1552L91.7683 76.1823L92.265 76.225C93.2109 76.3063 93.9117 77.139 93.8304 78.0848C93.7821 78.6457 93.4698 79.1203 93.0263 79.3969C93.4148 79.7451 93.6406 80.2653 93.5925 80.8251C93.5443 81.3852 93.2327 81.8593 92.7902 82.136C93.1794 82.4842 93.4058 83.0049 93.3576 83.5652C93.2762 84.5111 92.4436 85.2119 91.4977 85.1306L86.7025 84.7183C85.7567 84.6369 85.0559 83.8042 85.1372 82.8584C85.1854 82.2984 85.497 81.8242 85.9395 81.5475C85.5503 81.1993 85.3239 80.6786 85.3721 80.1183C85.4203 79.5574 85.7327 79.0828 86.1762 78.8062C85.8815 78.5421 85.6804 78.179 85.6215 77.7748C85.4222 77.6068 85.2581 77.3909 85.149 77.1347C84.9285 76.6174 84.9812 76.0523 85.2423 75.6002C84.7355 75.4752 84.2916 75.1219 84.0712 74.6047C84.0333 74.5159 84.0035 74.4256 83.9814 74.3348C83.9253 74.3167 83.8695 74.2955 83.8143 74.2711C82.9772 73.9021 82.5811 72.9465 82.8961 72.1002C82.6648 72.1001 82.4297 72.053 82.2044 71.9537C81.6899 71.7268 81.342 71.2784 81.2234 70.77C80.7692 71.0251 80.2049 71.0714 79.6912 70.8465C79.1875 70.8048 78.7455 70.5461 78.4589 70.164C78.1453 70.582 77.6457 70.8524 77.083 70.8524C76.5211 70.8524 76.0222 70.5828 75.7086 70.1659C75.3949 70.5828 74.896 70.8524 74.3342 70.8524C73.7716 70.8524 73.2721 70.5821 72.9585 70.1643C72.645 70.5821 72.1455 70.8524 71.5829 70.8524C71.0206 70.8524 70.5214 70.5824 70.2078 70.165C69.8942 70.5824 69.3949 70.8524 68.8326 70.8524C68.2703 70.8524 67.7711 70.5824 67.4575 70.165C67.2681 70.4171 67.011 70.6154 66.7131 70.733C66.6651 70.7612 66.6152 70.7873 66.5636 70.8112C66.0538 71.0472 65.4879 71.0123 65.0281 70.7659C64.9187 71.2759 64.5792 71.7302 64.0694 71.9663C63.5587 72.2028 62.9916 72.1672 62.5314 71.9196C62.4225 72.4306 62.0828 72.8857 61.5722 73.1222C61.2645 73.2646 60.9364 73.3084 60.6236 73.2665C60.6172 73.5926 60.518 73.9205 60.3186 74.2089C60.0983 74.5274 59.7897 74.7485 59.4484 74.862C59.4331 74.9567 59.4096 75.0515 59.3776 75.1453C59.1959 75.6772 58.7794 76.0623 58.2834 76.2243C58.5774 76.656 58.6718 77.216 58.49 77.7484C58.3083 78.2804 57.8916 78.6655 57.3953 78.8275C57.6889 79.2591 57.7831 79.8188 57.6014 80.3508C57.5888 80.3876 57.5752 80.4236 57.5604 80.4589C57.5998 80.5693 57.6285 80.6854 57.645 80.8061C57.721 81.3631 57.5211 81.894 57.1502 82.2612C57.6063 82.5154 57.9415 82.9736 58.0175 83.5309C58.1459 84.4715 57.4874 85.3381 56.5468 85.4664L51.7781 86.1172C50.8375 86.2455 49.9709 85.5871 49.8426 84.6465C49.7666 84.0895 49.9664 83.5586 50.3374 83.1914C49.8812 82.9372 49.5461 82.4789 49.47 81.9217C49.3417 80.9811 50.0001 80.1145 50.9407 79.9862L51.1363 79.9595L50.8646 79.8667C49.9662 79.5599 49.4866 78.5829 49.7934 77.6845C49.975 77.1525 50.3918 76.7674 50.888 76.6054C50.5944 76.1738 50.5003 75.6141 50.682 75.0821C50.8636 74.5502 51.2801 74.1651 51.7761 74.0031C51.4821 73.5714 51.3878 73.0114 51.5696 72.479C51.8418 71.6819 52.6417 71.2144 53.4461 71.3336C53.1363 70.7791 53.1469 70.0736 53.5325 69.516C53.8096 69.1153 54.2265 68.8688 54.6722 68.7968C54.458 68.0035 54.8393 67.1478 55.6102 66.7908C56.1203 66.5547 56.6865 66.5898 57.1464 66.8366C57.2556 66.3261 57.5952 65.8714 58.1054 65.6351C58.6161 65.3987 59.1832 65.4342 59.6434 65.6818C59.7523 65.1709 60.092 64.7157 60.6026 64.4793C61.1124 64.2432 61.6783 64.2782 62.138 64.5246C62.2475 64.0145 62.5869 63.5603 63.0968 63.3242C63.6115 63.0858 64.1835 63.1238 64.6456 63.3767Z" fill="#1A202C"/>
<path d="M125.34 68.3314C109.182 65.5812 108.265 96.2922 111.245 111.648C123.048 114.971 147.066 120.036 148.717 113.71C150.779 105.803 148.717 78.9886 143.56 71.7692C139.435 65.9937 128.09 66.2687 125.34 68.3314Z" fill="#B87C4E"/>
<path d="M145.967 87.2395C145.967 96.5428 139.647 104.085 130.153 104.085C120.66 104.085 114.34 96.5428 114.34 87.2395C114.34 77.9361 120.66 70.3943 130.153 70.3943C139.647 70.3943 145.967 77.9361 145.967 87.2395Z" fill="#EDBC89"/>
<rect x="124.654" y="99.9595" width="11.0009" height="8.25071" fill="#EDBC89"/>
<path d="M116.532 108.568C108.797 110.372 108.699 130.88 108 135L152.154 120.586C151.107 111.659 145.169 109.598 143.423 108.568C141.677 107.538 123.964 106.835 116.532 108.568Z" fill="#EDBC89"/>
<path d="M117.775 113.367L108.5 134L125.5 147.5L154 134L142.871 113.367V108.211L138.746 107.867V113.367H121.557V107.867L117.775 108.211V113.367Z" fill="#1E66CC"/>
<path d="M121.558 78.3017L111.245 87.2399C111.245 84.4897 111.589 77.6142 121.558 70.051C123.697 68.4282 135.997 70.051 139.091 70.051C141.566 70.051 144.706 75.7806 145.967 78.6454C146.196 80.5935 147.067 85.5211 145.967 85.5211C144.866 85.5211 140.695 80.3643 139.091 78.3017C139.091 80.3643 139.503 84.4897 138.403 84.4897C137.303 84.4897 133.82 80.3643 132.559 78.3017C132.559 79.7914 133.247 83.1146 132.559 84.4897C131.79 86.0271 127.402 78.3017 127.059 78.3017C126.715 78.3017 122.074 85.5211 120.527 84.4897C119.702 83.9396 120.183 80.0206 121.558 78.3017Z" fill="#B87C4E"/>
<path d="M77.6883 106.756C76.3131 109.506 80.8968 119.476 83.5325 123.601C92.7 124.059 109.966 123.601 111.341 123.601C113.06 123.601 117.567 114.775 117.567 106.756C117.567 102.974 116.191 99.1927 113.097 96.0987C110.003 93.0047 99.0024 90.5982 92.8144 93.0046C87.5398 95.0558 84.2199 93.6922 81.1259 96.0987C78.0319 98.5052 79.3385 103.456 77.6883 106.756Z" fill="#1A202C"/>
<path d="M114.816 111.912C114.816 123.257 108.972 128.758 97.6271 128.758C86.2824 128.758 80.7819 124.289 80.7819 111.912C80.7819 102.609 88.1339 98.8489 97.6271 98.8489C107.12 98.8489 114.816 102.609 114.816 111.912Z" fill="#5D4437"/>
<rect x="92.1256" y="124.632" width="11.0009" height="13.0636" fill="#5D4437"/>
<path d="M118.254 140.419C115.222 134.355 108.972 131.508 103.127 131.508C102.44 131.508 102.44 136.665 97.627 136.665C92.8141 136.665 92.1266 132.539 92.1266 131.592C81.0852 132.169 75.7482 147.295 75.7482 155.252L120.66 147.295C120.66 146.343 120.316 144.545 118.254 140.419Z" fill="#154CAB"/>
<path d="M86.6269 104.693C85.6297 107.186 81.9284 109.62 79.7511 111.225C79.1781 110.881 79.4763 106.549 79.7513 102.974C80.0264 99.3986 88.8042 97.3588 93.1587 96.7859L110.691 97.8172L116.192 111.568C115.619 112.027 114.783 112.49 113.442 110.881C111.723 108.818 111.379 106.412 111.379 104.693C111.379 102.974 106.91 100.567 103.472 101.255C101.34 101.681 95.2908 100.306 93.1587 99.8799C89.7211 99.1924 87.3144 102.974 86.6269 104.693Z" fill="#1A202C"/>
<path d="M32.5053 125.751C33.8804 125.751 35.8284 115.896 38.0057 111.312C45.4543 115.896 60.6265 125.407 61.7265 126.782C63.1017 128.501 64.8206 126.782 65.1643 121.969C65.5081 117.156 68.2584 116.812 70.6648 115.437C73.0713 114.062 67.227 110.624 65.1643 103.749C63.1017 96.8732 59.6639 100.655 55.5385 96.8732C51.4132 93.0916 48.6629 96.5294 42.8187 97.9045C36.9744 99.2796 35.9431 97.2169 31.1302 99.6234C26.3173 102.03 29.755 106.499 26.661 111.312C23.567 116.125 30.7864 125.751 32.5053 125.751Z" fill="#5D4437"/>
<path d="M64.4759 118.531C64.4759 125.407 56.7801 135.376 47.2869 135.376C37.7937 135.376 30.098 124.719 30.098 118.531C30.098 109.228 33.8795 100.311 47.2869 100.311C60.6943 100.311 64.4759 109.228 64.4759 118.531Z" fill="#EDBC89"/>
<rect x="41.7867" y="131.251" width="11.0009" height="11.0009" fill="#EDBC89"/>
<path d="M53.343 138.268C49.7431 140.548 43.997 139.218 41.5739 138.268C33.8202 135.988 25.651 147.766 22.5357 153.94H72.7275C72.7275 152.99 72.0352 150.022 69.266 145.748C65.8045 140.405 57.843 135.418 53.343 138.268Z" fill="#718096"/>
<path d="M35.5989 111.312C35.2551 112.687 30.0984 117.156 28.7233 116.812C29.2963 115.208 30.6485 110.693 31.4736 105.468C32.5049 98.9359 43.8496 98.5922 54.163 99.9673C62.4137 101.067 64.9348 108.447 65.1639 112L64.8202 123.001C64.3618 122.886 63.3075 121.9 62.7575 118.875C62.0699 115.094 62.0699 115.094 59.6635 113.718C57.257 112.343 55.5381 110.281 54.163 107.53C52.7879 104.78 49.0063 104.436 47.6312 105.468C46.2561 106.499 41.7869 107.187 39.3805 107.53C36.974 107.874 35.9427 109.937 35.5989 111.312Z" fill="#5D4437"/>
</g>
</svg>
